<?xml version="1.0" encoding="UTF-8"?>
<svg width="30px" height="30px" viewBox="0 0 30 30" version="1.1" xmlns="http://www.w3.org/2000/svg" xmlns:xlink="http://www.w3.org/1999/xlink">
    <!-- Generator: Sketch 52.4 (67378) - http://www.bohemiancoding.com/sketch -->
    <title>icon_dong_add</title>
    <desc>Created with Sketch.</desc>
    <g id="B03-京麦App-Guideline-数据展示组件" stroke="none" stroke-width="1" fill="none" fill-rule="evenodd">
        <g id="数据展示－图标" transform="translate(-256.000000, -2987.000000)" fill="#666666">
            <g id="icon_dong_add" transform="translate(256.000000, 2987.000000)">
                <g>
                    <path d="M15,29.5 C23.0081289,29.5 29.5,23.0081289 29.5,15 C29.5,6.99187113 23.0081289,0.5 15,0.5 C6.99187113,0.5 0.5,6.99187113 0.5,15 C0.5,23.0081289 6.99187113,29.5 15,29.5 Z M15,30 C6.71572875,30 0,23.2842712 0,15 C0,6.71572875 6.71572875,0 15,0 C23.2842712,0 30,6.71572875 30,15 C30,23.2842712 23.2842712,30 15,30 Z" id="Oval" fill-rule="nonzero"></path>
                    <path d="M14.5,14.5 L14.5,6.5 C14.5,6.22385763 14.7238576,6 15,6 C15.2761424,6 15.5,6.22385763 15.5,6.5 L15.5,14.5 L23.5,14.5 C23.7761424,14.5 24,14.7238576 24,15 C24,15.2761424 23.7761424,15.5 23.5,15.5 L15.5,15.5 L15.5,23.5 C15.5,23.7761424 15.2761424,24 15,24 C14.7238576,24 14.5,23.7761424 14.5,23.5 L14.5,15.5 L6.5,15.5 C6.22385763,15.5 6,15.2761424 6,15 C6,14.7238576 6.22385763,14.5 6.5,14.5 L14.5,14.5 Z" id="Combined-Shape"></path>
                </g>
            </g>
        </g>
    </g>
</svg>