<?xml version="1.0" encoding="UTF-8"?>
<svg width="18px" height="18px" viewBox="0 0 18 18" version="1.1" xmlns="http://www.w3.org/2000/svg" xmlns:xlink="http://www.w3.org/1999/xlink">
    <!-- Generator: Sketch 52.4 (67378) - http://www.bohemiancoding.com/sketch -->
    <title>Combined Shape</title>
    <desc>Created with Sketch.</desc>
    <g id="B03-京麦App-Guideline-数据展示组件" stroke="none" stroke-width="1" fill="none" fill-rule="evenodd">
        <g id="数据展示－图标" transform="translate(-262.000000, -2993.000000)" fill="#666666">
            <g id="icon_dong_add" transform="translate(256.000000, 2987.000000)">
                <g id="Combined-Shape">
                    <path d="M14.5,14.5 L14.5,6.5 C14.5,6.22385763 14.7238576,6 15,6 C15.2761424,6 15.5,6.22385763 15.5,6.5 L15.5,14.5 L23.5,14.5 C23.7761424,14.5 24,14.7238576 24,15 C24,15.2761424 23.7761424,15.5 23.5,15.5 L15.5,15.5 L15.5,23.5 C15.5,23.7761424 15.2761424,24 15,24 C14.7238576,24 14.5,23.7761424 14.5,23.5 L14.5,15.5 L6.5,15.5 C6.22385763,15.5 6,15.2761424 6,15 C6,14.7238576 6.22385763,14.5 6.5,14.5 L14.5,14.5 Z"></path>
                </g>
            </g>
        </g>
    </g>
</svg>