<?xml version="1.0" encoding="UTF-8"?>
<svg width="11px" height="16px" viewBox="0 0 11 16" version="1.1" xmlns="http://www.w3.org/2000/svg" xmlns:xlink="http://www.w3.org/1999/xlink">
    <!-- Generator: Sketch 52.4 (67378) - http://www.bohemiancoding.com/sketch -->
    <title>Group 7</title>
    <desc>Created with Sketch.</desc>
    <g id="B03-京麦App-Guideline-数据展示组件" stroke="none" stroke-width="1" fill="none" fill-rule="evenodd">
        <g id="数据展示－图标" transform="translate(-178.000000, -3417.000000)" fill="#666666" fill-rule="nonzero">
            <g id="Group-7" transform="translate(183.500000, 3425.000000) rotate(270.000000) translate(-183.500000, -3425.000000) translate(176.000000, 3419.000000)">
                <path d="M16.1733242,3.12724834 C16.3685863,2.9319862 16.6851688,2.9319862 16.880431,3.12724834 C17.0756931,3.32251049 17.0756931,3.63909298 16.880431,3.83435512 L11.8420344,8.87275166 C11.6467723,9.0680138 11.3301898,9.0680138 11.1349276,8.87275166 L6.17332418,3.91114819 C5.97806204,3.71588605 5.97806204,3.39930356 6.17332418,3.20404141 C6.36858633,3.00877926 6.68516882,3.00877926 6.88043096,3.20404141 L11.488481,7.81209149 L16.1733242,3.12724834 Z" id="icon_me_more" transform="translate(11.526878, 6.000000) rotate(-90.000000) translate(-11.526878, -6.000000) "></path>
                <path d="M13.8705257,5.57376969 C14.146668,5.57376969 14.3705257,5.79762732 14.3705257,6.07376969 C14.3705257,6.34991207 14.146668,6.57376969 13.8705257,6.57376969 L0.889263196,6.57376969 C0.613120821,6.57376969 0.389263196,6.34991207 0.389263196,6.07376969 C0.389263196,5.79762732 0.613120821,5.57376969 0.889263196,5.57376969 L13.8705257,5.57376969 Z" id="Path-2"></path>
            </g>
        </g>
    </g>
</svg>