<?xml version="1.0" encoding="UTF-8"?>
<svg width="9px" height="10px" viewBox="0 0 9 10" version="1.1" xmlns="http://www.w3.org/2000/svg" xmlns:xlink="http://www.w3.org/1999/xlink">
    <!-- Generator: Sketch 52.4 (67378) - http://www.bohemiancoding.com/sketch -->
    <title>合并形状</title>
    <desc>Created with Sketch.</desc>
    <g id="Page-1" stroke="none" stroke-width="1" fill="none" fill-rule="evenodd">
        <g id="麦头条改版-置顶" transform="translate(-31.000000, -830.000000)" fill="#666666" fill-rule="nonzero">
            <g id="专题" transform="translate(15.000000, 816.000000)">
                <g id="Bitmap">
                    <g id="Group-8-Copy-4" transform="translate(10.000000, 10.000000)">
                        <path d="M7.5,5.5 L7.5,12.5 L13.5,12.5 L13.5,5.5 L7.5,5.5 Z M7,4 L14,4 C14.5522847,4 15,4.44771525 15,5 L15,13 C15,13.5522847 14.5522847,14 14,14 L7,14 C6.44771525,14 6,13.5522847 6,13 L6,5 C6,4.44771525 6.44771525,4 7,4 Z M9.5,7 L11.5,7 C11.7761424,7 12,7.22385763 12,7.5 C12,7.77614237 11.7761424,8 11.5,8 L9.5,8 C9.22385763,8 9,7.77614237 9,7.5 C9,7.22385763 9.22385763,7 9.5,7 Z M9.5,8.5 L11.5,8.5 C11.7761424,8.5 12,8.72385763 12,9 C12,9.27614237 11.7761424,9.5 11.5,9.5 L9.5,9.5 C9.22385763,9.5 9,9.27614237 9,9 C9,8.72385763 9.22385763,8.5 9.5,8.5 Z M9.5,10 L10.5,10 C10.7761424,10 11,10.2238576 11,10.5 C11,10.7761424 10.7761424,11 10.5,11 L9.5,11 C9.22385763,11 9,10.7761424 9,10.5 C9,10.2238576 9.22385763,10 9.5,10 Z" id="合并形状"></path>
                    </g>
                </g>
            </g>
        </g>
    </g>
</svg>