<?xml version="1.0" encoding="UTF-8"?>
<svg width="15px" height="18px" viewBox="0 0 15 18" version="1.1" xmlns="http://www.w3.org/2000/svg" xmlns:xlink="http://www.w3.org/1999/xlink">
    <!-- Generator: Sketch 52.4 (67378) - http://www.bohemiancoding.com/sketch -->
    <title>Group 2</title>
    <desc>Created with Sketch.</desc>
    <g id="B05-京麦App-Guideline-反馈组件" stroke="none" stroke-width="1" fill="none" fill-rule="evenodd">
        <g id="反馈-提示" transform="translate(-145.000000, -2643.000000)" fill="#666666" fill-rule="nonzero">
            <g id="Group-10" transform="translate(131.000000, 2479.000000)">
                <g id="Group-8" transform="translate(0.000000, 76.000000)">
                    <g id="Group-11" transform="translate(0.000000, 64.000000)">
                        <g id="Group-2" transform="translate(14.000000, 24.000000)">
                            <path d="M13.4348065,13.610076 L11.4594501,10.652731 C11.4045374,10.5705202 11.3752289,10.4738755 11.3752289,10.3750119 L11.3752289,5.9672046 C11.3752289,3.65619098 9.5017822,1.78274428 7.19076858,1.78274428 C4.87975496,1.78274428 3.00630826,3.65619098 3.00630826,5.9672046 L3.00630826,10.3796628 C3.00630826,10.478986 2.97672689,10.5760588 2.92133631,10.6585027 L0.938297959,13.610076 L13.4348065,13.610076 Z M7.19076858,1.28274428 C9.77792458,1.28274428 11.8752289,3.38004861 11.8752289,5.9672046 L11.8752289,10.3750119 L14.3700624,14.110076 L0,14.110076 L2.50630826,10.3796628 L2.50630826,5.9672046 C2.50630826,3.38004861 4.60361259,1.28274428 7.19076858,1.28274428 Z" id="Rectangle"></path>
                            <path d="M4.98658168,10.7136175 C4.84851049,10.7136175 4.73658168,10.6016887 4.73658168,10.4636175 C4.73658168,10.3255463 4.84851049,10.2136175 4.98658168,10.2136175 L11.5758836,10.2136175 C11.7139548,10.2136175 11.8258836,10.3255463 11.8258836,10.4636175 C11.8258836,10.6016887 11.7139548,10.7136175 11.5758836,10.7136175 L4.98658168,10.7136175 Z" id="Path-12"></path>
                            <path d="M4.68970894,14.7546778 C4.68970894,14.6166066 4.80163775,14.5046778 4.93970894,14.5046778 C5.07778013,14.5046778 5.18970894,14.6166066 5.18970894,14.7546778 C5.18970894,15.7686597 6.01170375,16.5906546 7.02568574,16.5906546 C8.03966772,16.5906546 8.86166253,15.7686597 8.86166253,14.7546778 C8.86166253,14.6166066 8.97359134,14.5046778 9.11166253,14.5046778 C9.24973372,14.5046778 9.36166253,14.6166066 9.36166253,14.7546778 C9.36166253,16.0448021 8.3158101,17.0906546 7.02568574,17.0906546 C5.73556138,17.0906546 4.68970894,16.0448021 4.68970894,14.7546778 Z" id="Oval-2"></path>
                            <path d="M5.58783784,0.384615385 C5.58783784,0.246544197 5.69976665,0.134615385 5.83783784,0.134615385 C5.97590903,0.134615385 6.08783784,0.246544197 6.08783784,0.384615385 C6.08783784,0.990578538 6.57906803,1.48180873 7.18503119,1.48180873 C7.79099434,1.48180873 8.28222453,0.990578538 8.28222453,0.384615385 C8.28222453,0.246544197 8.39415334,0.134615385 8.53222453,0.134615385 C8.67029572,0.134615385 8.78222453,0.246544197 8.78222453,0.384615385 C8.78222453,1.26672091 8.06713671,1.98180873 7.18503119,1.98180873 C6.30292566,1.98180873 5.58783784,1.26672091 5.58783784,0.384615385 Z" id="Oval-2-Copy" transform="translate(7.185031, 1.058212) scale(1, -1) translate(-7.185031, -1.058212) "></path>
                        </g>
                    </g>
                </g>
            </g>
        </g>
    </g>
</svg>