<?xml version="1.0" encoding="UTF-8"?>
<svg width="13px" height="18px" viewBox="0 0 13 18" version="1.1" xmlns="http://www.w3.org/2000/svg" xmlns:xlink="http://www.w3.org/1999/xlink">
    <!-- Generator: Sketch 52.4 (67378) - http://www.bohemiancoding.com/sketch -->
    <title>灯泡</title>
    <desc>Created with Sketch.</desc>
    <g id="B05-京麦App-Guideline-反馈组件" stroke="none" stroke-width="1" fill="none" fill-rule="evenodd">
        <g id="反馈-提示" transform="translate(-145.000000, -2088.000000)" fill="#666666" fill-rule="nonzero">
            <g id="Group-5-Copy" transform="translate(130.000000, 1848.000000)">
                <g id="Group-8" transform="translate(0.000000, 152.000000)">
                    <g id="Group-11" transform="translate(0.000000, 64.000000)">
                        <g id="灯泡" transform="translate(15.000000, 24.000000)">
                            <path d="M6.07004635,17.050032 C7.1272195,17.0380765 7.52019122,16.7071862 7.92187048,15.5850263 C8.13500451,14.9895999 8.71120499,13.0616204 8.71201772,13.0591069 C8.79320686,12.8080107 8.8680265,12.5975337 8.9435868,12.4116849 C9.0935453,12.0428454 9.25248817,11.6900854 9.42526043,11.3384315 C9.60266753,10.9773441 9.78277999,10.6395688 10.0209835,10.2133635 C10.0867493,10.0956923 10.3214643,9.67930976 10.3028151,9.71247111 C10.4119622,9.5183895 10.4916426,9.37471953 10.5672892,9.23472334 C10.6554775,9.07151685 10.7330711,8.92242929 10.8045118,8.77814168 C11.4606312,7.45298818 11.6465491,6.90949447 11.6512439,6.0866711 C11.6688612,2.99901988 9.16956974,0.5 6.07570044,0.5 C2.97875393,0.5 0.469730174,3.00608073 0.500277335,6.08456276 C0.508176846,6.88065967 0.733688748,7.52077526 1.35710172,8.77785606 C1.45024318,8.96567113 1.57126234,9.19798949 1.7432953,9.52100113 C1.8229326,9.6705293 2.14861463,10.2780432 2.22635575,10.4238206 C2.26623864,10.4986506 2.26623864,10.4986506 2.30609782,10.5736371 C2.75670376,11.4220085 3.03902457,11.988707 3.20997631,12.4132285 C3.3275888,12.7052936 3.46095603,13.1190171 3.73678573,14.0184414 L3.74719802,14.0523984 C4.03826691,15.0017594 4.13651529,15.3121608 4.2363062,15.5775577 C4.67292258,16.7387518 5.04542224,17.0616193 6.07004635,17.050032 Z M6.07570044,17.55 C4.69863311,17.5655731 4.21574232,16.9435272 3.76829664,15.7535323 C3.50722416,15.0592023 3.00535108,13.2436203 2.74616987,12.6 C2.37320107,11.6738129 1.36356683,9.91628911 0.909159676,9 C0.454752521,8.08371089 0.0108687994,7.15443003 0.000301949046,6.08952392 C-0.0331212734,2.72119818 2.71254925,0 6.07570044,0 C9.43885163,0 12.1704803,2.71668302 12.1512358,6.08952392 C12.1451621,7.15400899 11.7835371,7.92766571 11.2525953,9 C10.7216536,10.0723343 10.0400343,11.0424133 9.40676862,12.6 C9.089102,13.381336 8.82051069,14.5581482 8.39262067,15.7535323 C7.96473066,16.9489163 7.45276777,17.5344269 6.07570044,17.55 Z" id="Oval"></path>
                            <path d="M6.075,2.45 C6.21307119,2.45 6.325,2.56192881 6.325,2.7 C6.325,2.83807119 6.21307119,2.95 6.075,2.95 C4.34911016,2.95 2.95,4.34911016 2.95,6.075 C2.95,6.21307119 2.83807119,6.325 2.7,6.325 C2.56192881,6.325 2.45,6.21307119 2.45,6.075 C2.45,4.07296778 4.07296778,2.45 6.075,2.45 Z" id="Oval-16"></path>
                            <path d="M3.15,12.4 C3.01192881,12.4 2.9,12.2880712 2.9,12.15 C2.9,12.0119288 3.01192881,11.9 3.15,11.9 L9,11.9 C9.13807119,11.9 9.25,12.0119288 9.25,12.15 C9.25,12.2880712 9.13807119,12.4 9,12.4 L3.15,12.4 Z" id="Path-12"></path>
                            <path d="M3.6,14.2 C3.46192881,14.2 3.35,14.0880712 3.35,13.95 C3.35,13.8119288 3.46192881,13.7 3.6,13.7 L8.55,13.7 C8.68807119,13.7 8.8,13.8119288 8.8,13.95 C8.8,14.0880712 8.68807119,14.2 8.55,14.2 L3.6,14.2 Z" id="Path-12-Copy"></path>
                            <path d="M4.05,16 C3.91192881,16 3.8,15.8880712 3.8,15.75 C3.8,15.6119288 3.91192881,15.5 4.05,15.5 L8.1,15.5 C8.23807119,15.5 8.35,15.6119288 8.35,15.75 C8.35,15.8880712 8.23807119,16 8.1,16 L4.05,16 Z" id="Path-12-Copy-2"></path>
                        </g>
                    </g>
                </g>
            </g>
        </g>
    </g>
</svg>