<?xml version="1.0" encoding="UTF-8"?>
<svg width="26px" height="20px" viewBox="0 0 26 20" version="1.1" xmlns="http://www.w3.org/2000/svg" xmlns:xlink="http://www.w3.org/1999/xlink">
    <!-- Generator: Sketch 52.4 (67378) - http://www.bohemiancoding.com/sketch -->
    <title>icon_dong_camera</title>
    <desc>Created with Sketch.</desc>
    <g id="B03-京麦App-Guideline-数据展示组件" stroke="none" stroke-width="1" fill="none" fill-rule="evenodd">
        <g id="数据展示－图标" transform="translate(-201.000000, -3053.000000)" fill="#666666">
            <g id="插件-2" transform="translate(192.000000, 3041.000000)">
                <g id="icon_dong_camera">
                    <g transform="translate(9.000000, 12.000000)">
                        <path d="M1,5 L1,19 L25,19 L25,5 L18,5 C17.5411324,5 17.1411493,4.68770263 17.0298575,4.24253563 L16.2192236,1 L9.78077641,1 L8.9701425,4.24253563 C8.85885075,4.68770263 8.45886764,5 8,5 L1,5 Z M8,4 L8.90531695,0.378732187 C8.96096283,0.156148687 9.16095438,0 9.3903882,0 L16.6096118,0 C16.8390456,0 17.0390372,0.156148687 17.094683,0.378732187 L18,4 L25.5,4 C25.7761424,4 26,4.22385763 26,4.5 L26,19.5 C26,19.7761424 25.7761424,20 25.5,20 L0.5,20 C0.223857625,20 1.77635684e-15,19.7761424 0,19.5 L0,4.5 C0,4.22385763 0.223857625,4 0.5,4 L8,4 Z" id="Combined-Shape" fill-rule="nonzero"></path>
                        <path d="M13,16 C15.4852814,16 17.5,13.9852814 17.5,11.5 C17.5,9.01471863 15.4852814,7 13,7 C10.5147186,7 8.5,9.01471863 8.5,11.5 C8.5,13.9852814 10.5147186,16 13,16 Z M13,17 C9.96243388,17 7.5,14.5375661 7.5,11.5 C7.5,8.46243388 9.96243388,6 13,6 C16.0375661,6 18.5,8.46243388 18.5,11.5 C18.5,14.5375661 16.0375661,17 13,17 Z" id="Oval-7" fill-rule="nonzero"></path>
                        <rect id="Rectangle-11" x="1" y="2" width="6" height="1" rx="0.5"></rect>
                    </g>
                </g>
            </g>
        </g>
    </g>
</svg>