<?xml version="1.0" encoding="UTF-8"?>
<svg width="17px" height="15px" viewBox="0 0 17 15" version="1.1" xmlns="http://www.w3.org/2000/svg" xmlns:xlink="http://www.w3.org/1999/xlink">
    <!-- Generator: Sketch 52.4 (67378) - http://www.bohemiancoding.com/sketch -->
    <title>图标-购物车</title>
    <desc>Created with Sketch.</desc>
    <g id="B03-京麦App-Guideline-数据展示组件" stroke="none" stroke-width="1" fill="none" fill-rule="evenodd">
        <g id="数据展示－图标" transform="translate(-659.000000, -2672.000000)" fill="#666666" fill-rule="nonzero">
            <g id="图标-购物车" transform="translate(660.000000, 2672.000000)">
                <path d="M4.21052632,14.8157895 C3.46930205,14.8157895 2.86842105,14.2149085 2.86842105,13.4736842 C2.86842105,12.7324599 3.46930205,12.1315789 4.21052632,12.1315789 C4.95175059,12.1315789 5.55263158,12.7324599 5.55263158,13.4736842 C5.55263158,14.2149085 4.95175059,14.8157895 4.21052632,14.8157895 Z M4.21052632,13.8157895 C4.39946584,13.8157895 4.55263158,13.6626237 4.55263158,13.4736842 C4.55263158,13.2847447 4.39946584,13.1315789 4.21052632,13.1315789 C4.0215868,13.1315789 3.86842105,13.2847447 3.86842105,13.4736842 C3.86842105,13.6626237 4.0215868,13.8157895 4.21052632,13.8157895 Z" id="Oval-9"></path>
                <path d="M11.7894737,14.8157895 C11.0482494,14.8157895 10.4473684,14.2149085 10.4473684,13.4736842 C10.4473684,12.7324599 11.0482494,12.1315789 11.7894737,12.1315789 C12.530698,12.1315789 13.1315789,12.7324599 13.1315789,13.4736842 C13.1315789,14.2149085 12.530698,14.8157895 11.7894737,14.8157895 Z M11.7894737,13.8157895 C11.9784132,13.8157895 12.1315789,13.6626237 12.1315789,13.4736842 C12.1315789,13.2847447 11.9784132,13.1315789 11.7894737,13.1315789 C11.6005342,13.1315789 11.4473684,13.2847447 11.4473684,13.4736842 C11.4473684,13.6626237 11.6005342,13.8157895 11.7894737,13.8157895 Z" id="Oval-9-Copy"></path>
                <path d="M12.3948062,10.5481086 L14.2698792,4.72774322 C14.3545549,4.46490365 14.2101245,4.18318687 13.9472849,4.0985112 C13.8977438,4.08255117 13.8460145,4.07442434 13.7939661,4.07442434 L5.86302918,4.07442434 C5.5868868,4.07442434 5.36302918,3.85056672 5.36302918,3.57442434 C5.36302918,3.29828197 5.5868868,3.07442434 5.86302918,3.07442434 L13.7939661,3.07442434 C13.9501115,3.07442434 14.1052994,3.09880483 14.2539227,3.14668491 C15.0424414,3.40071194 15.4757325,4.24586225 15.2217055,5.03438097 L13.2349467,11.2014274 C13.1683836,11.4080442 12.9761076,11.5481086 12.7590335,11.5481086 L4.59474981,11.5481086 C3.94961376,11.5481086 3.37673805,11.1356047 3.17216329,10.5237635 L-0.13969715,0.618666772 C-0.227262803,0.356775826 -0.0859442315,0.0734852796 0.175946714,-0.0140803737 C0.43783766,-0.101646027 0.721128207,0.0396725448 0.808693861,0.301563491 L4.1205543,10.2066602 C4.18874589,10.4106073 4.37970446,10.5481086 4.59474981,10.5481086 L12.3948062,10.5481086 Z" id="Path-9"></path>
            </g>
        </g>
    </g>
</svg>