<?xml version="1.0" encoding="UTF-8"?>
<svg width="13px" height="11px" viewBox="0 0 13 11" version="1.1" xmlns="http://www.w3.org/2000/svg" xmlns:xlink="http://www.w3.org/1999/xlink">
    <!-- Generator: Sketch 52.4 (67378) - http://www.bohemiancoding.com/sketch -->
    <title>icon_mq_message</title>
    <desc>Created with Sketch.</desc>
    <g id="B03-京麦App-Guideline-数据展示组件" stroke="none" stroke-width="1" fill="none" fill-rule="evenodd">
        <g id="数据展示－图标" transform="translate(-318.000000, -2542.000000)" fill="#666666">
            <g id="icon_mq_message" transform="translate(318.000000, 2541.000000)">
                <g transform="translate(1.000000, 2.000000)">
                    <path d="M0.5,0.5 L0.5,6.5 L9.03198242,6.5 C9.16598769,6.5 9.29438465,6.55379099 9.38837389,6.64930766 L10.5,7.7789989 L10.5,0.5 L0.5,0.5 Z M2.55351296e-15,7.5 C-0.276142375,7.5 -0.5,7.27614237 -0.5,7 L-0.5,-5.68434189e-14 C-0.5,-0.276142375 -0.276142375,-0.5 0,-0.5 L11,-0.5 C11.2761424,-0.5 11.5,-0.276142375 11.5,-5.68434189e-14 L11.5,9 C11.5,9.4473981 10.9574067,9.66959008 10.6436085,9.35069234 L8.822511,7.5 L2.55351296e-15,7.5 Z" id="Rectangle-4" fill-rule="nonzero"></path>
                    <path d="M2.5,4.5 C1.94771525,4.5 1.5,4.05228475 1.5,3.5 C1.5,2.94771525 1.94771525,2.5 2.5,2.5 C3.05228475,2.5 3.5,2.94771525 3.5,3.5 C3.5,4.05228475 3.05228475,4.5 2.5,4.5 Z M5.5,4.5 C4.94771525,4.5 4.5,4.05228475 4.5,3.5 C4.5,2.94771525 4.94771525,2.5 5.5,2.5 C6.05228475,2.5 6.5,2.94771525 6.5,3.5 C6.5,4.05228475 6.05228475,4.5 5.5,4.5 Z M8.5,4.5 C7.94771525,4.5 7.5,4.05228475 7.5,3.5 C7.5,2.94771525 7.94771525,2.5 8.5,2.5 C9.05228475,2.5 9.5,2.94771525 9.5,3.5 C9.5,4.05228475 9.05228475,4.5 8.5,4.5 Z" id="Combined-Shape"></path>
                </g>
            </g>
        </g>
    </g>
</svg>