<?xml version="1.0" encoding="UTF-8"?>
<svg width="30px" height="30px" viewBox="0 0 30 30" version="1.1" xmlns="http://www.w3.org/2000/svg" xmlns:xlink="http://www.w3.org/1999/xlink">
    <!-- Generator: Sketch 52.4 (67378) - http://www.bohemiancoding.com/sketch -->
    <title>Group 6</title>
    <desc>Created with Sketch.</desc>
    <g id="B03-京麦App-Guideline-数据展示组件" stroke="none" stroke-width="1" fill="none" fill-rule="evenodd">
        <g id="数据展示－图标" transform="translate(-138.000000, -2987.000000)" fill="#666666">
            <g id="icon_dong_message1" transform="translate(138.000000, 2987.000000)">
                <g id="Group-6">
                    <path d="M15,29.5 C23.0081289,29.5 29.5,23.0081289 29.5,15 C29.5,6.99187113 23.0081289,0.5 15,0.5 C6.99187113,0.5 0.5,6.99187113 0.5,15 C0.5,23.0081289 6.99187113,29.5 15,29.5 Z M15,30 C6.71572875,30 0,23.2842712 0,15 C0,6.71572875 6.71572875,0 15,0 C23.2842712,0 30,6.71572875 30,15 C30,23.2842712 23.2842712,30 15,30 Z" id="Oval" fill-rule="nonzero"></path>
                    <g id="Group-2" transform="translate(4.000000, 3.000000)">
                        <path d="M3,5.5 L3,15.3888889 L16.4585183,15.3888889 C16.5930884,15.3888889 16.7219775,15.4431329 16.81605,15.5393591 L19,17.7733068 L19,5.5 L3,5.5 Z M2.5,16.3888889 C2.22385763,16.3888889 2,16.1650313 2,15.8888889 L2,5 C2,4.72385763 2.22385763,4.5 2.5,4.5 L19.5,4.5 C19.7761424,4.5 20,4.72385763 20,5 L20,19 C20,19.4481858 19.4557769,19.670011 19.1424683,19.3495298 L16.2480891,16.3888889 L2.5,16.3888889 Z" id="Rectangle-4" fill-rule="nonzero"></path>
                        <path d="M7,11.5 C6.44771525,11.5 6,11.0522847 6,10.5 C6,9.94771525 6.44771525,9.5 7,9.5 C7.55228475,9.5 8,9.94771525 8,10.5 C8,11.0522847 7.55228475,11.5 7,11.5 Z M11,11.5 C10.4477153,11.5 10,11.0522847 10,10.5 C10,9.94771525 10.4477153,9.5 11,9.5 C11.5522847,9.5 12,9.94771525 12,10.5 C12,11.0522847 11.5522847,11.5 11,11.5 Z M15,11.5 C14.4477153,11.5 14,11.0522847 14,10.5 C14,9.94771525 14.4477153,9.5 15,9.5 C15.5522847,9.5 16,9.94771525 16,10.5 C16,11.0522847 15.5522847,11.5 15,11.5 Z" id="Combined-Shape"></path>
                    </g>
                </g>
            </g>
        </g>
    </g>
</svg>