<?xml version="1.0" encoding="UTF-8"?>
<svg width="27px" height="22px" viewBox="0 0 27 22" version="1.1" xmlns="http://www.w3.org/2000/svg" xmlns:xlink="http://www.w3.org/1999/xlink">
    <!-- Generator: Sketch 52.4 (67378) - http://www.bohemiancoding.com/sketch -->
    <title>icon_dong_link</title>
    <desc>Created with Sketch.</desc>
    <g id="B03-京麦App-Guideline-数据展示组件" stroke="none" stroke-width="1" fill="none" fill-rule="evenodd">
        <g id="数据展示－图标" transform="translate(-322.000000, -3052.000000)" fill="#666666" fill-rule="nonzero">
            <g id="插件-4" transform="translate(313.000000, 3041.000000)">
                <g id="icon_dong_link" transform="translate(9.000000, 11.000000)">
                    <path d="M7,6 L7,18.3076923 L22.9792027,18.3076923 C23.3198605,18.3076923 23.6503722,18.4236478 23.9163604,18.6364812 L26,20.3037287 L26,6 L7,6 Z M6.5,5 L26.5,5 C26.7761424,5 27,5.22385763 27,5.5 L27,21.344172 C27,21.6203144 26.7761424,21.844172 26.5,21.844172 C26.3864474,21.844172 26.2762768,21.8055202 26.1876141,21.7345757 L23.2915886,19.4172886 C23.2029259,19.3463441 23.0927553,19.3076923 22.9792027,19.3076923 L6.5,19.3076923 C6.22385763,19.3076923 6,19.0838347 6,18.8076923 L6,5.5 C6,5.22385763 6.22385763,5 6.5,5 Z" id="Rectangle-14"></path>
                    <path d="M16.5,13.5 C15.6715729,13.5 15,12.8284271 15,12 C15,11.1715729 15.6715729,10.5 16.5,10.5 C17.3284271,10.5 18,11.1715729 18,12 C18,12.8284271 17.3284271,13.5 16.5,13.5 Z M16.5,12.5 C16.7761424,12.5 17,12.2761424 17,12 C17,11.7238576 16.7761424,11.5 16.5,11.5 C16.2238576,11.5 16,11.7238576 16,12 C16,12.2761424 16.2238576,12.5 16.5,12.5 Z" id="Oval-3"></path>
                    <path d="M21.5,13.5 C20.6715729,13.5 20,12.8284271 20,12 C20,11.1715729 20.6715729,10.5 21.5,10.5 C22.3284271,10.5 23,11.1715729 23,12 C23,12.8284271 22.3284271,13.5 21.5,13.5 Z M21.5,12.5 C21.7761424,12.5 22,12.2761424 22,12 C22,11.7238576 21.7761424,11.5 21.5,11.5 C21.2238576,11.5 21,11.7238576 21,12 C21,12.2761424 21.2238576,12.5 21.5,12.5 Z" id="Oval-3"></path>
                    <path d="M11.5,13.5 C10.6715729,13.5 10,12.8284271 10,12 C10,11.1715729 10.6715729,10.5 11.5,10.5 C12.3284271,10.5 13,11.1715729 13,12 C13,12.8284271 12.3284271,13.5 11.5,13.5 Z M11.5,12.5 C11.7761424,12.5 12,12.2761424 12,12 C12,11.7238576 11.7761424,11.5 11.5,11.5 C11.2238576,11.5 11,11.7238576 11,12 C11,12.2761424 11.2238576,12.5 11.5,12.5 Z" id="Oval-3"></path>
                    <path d="M1,1 L1,3.50939941 C1,3.78554179 0.776142375,4.00939941 0.5,4.00939941 C0.223857625,4.00939941 0,3.78554179 0,3.50939941 L0,0.5 C0,0.223857625 0.223857625,0 0.5,0 L17.5,0 C17.7761424,0 18,0.223857625 18,0.5 L18,13.8846154 C18,14.3444252 17.4316355,14.5604492 17.1262261,14.2167194 L15.4300252,12.3076923 L13.4926758,12.3076923 C13.2165334,12.3076923 12.9926758,12.0838347 12.9926758,11.8076923 C12.9926758,11.5315499 13.2165334,11.3076923 13.4926758,11.3076923 L15.6546208,11.3076923 C15.7974761,11.3076923 15.9335091,11.3687972 16.0283947,11.4755883 L17,12.5691031 L17,1 L1,1 Z" id="Rectangle-14" transform="translate(9.000000, 7.192810) scale(-1, 1) translate(-9.000000, -7.192810) "></path>
                </g>
            </g>
        </g>
    </g>
</svg>