<?xml version="1.0" encoding="UTF-8"?>
<svg width="12px" height="12px" viewBox="0 0 12 12" version="1.1" xmlns="http://www.w3.org/2000/svg" xmlns:xlink="http://www.w3.org/1999/xlink">
    <!-- Generator: Sketch 52.4 (67378) - http://www.bohemiancoding.com/sketch -->
    <title>Group 13</title>
    <desc>Created with Sketch.</desc>
    <g id="B03-京麦App-Guideline-数据展示组件" stroke="none" stroke-width="1" fill="none" fill-rule="evenodd">
        <g id="数据展示－图标" transform="translate(-200.000000, -2540.000000)" fill="#666666">
            <g id="Group-13" transform="translate(200.000000, 2540.000000)">
                <path d="M6,11 C8.76142375,11 11,8.76142375 11,6 C11,3.23857625 8.76142375,1 6,1 C3.23857625,1 1,3.23857625 1,6 C1,8.76142375 3.23857625,11 6,11 Z M6,12 C2.6862915,12 0,9.3137085 0,6 C0,2.6862915 2.6862915,0 6,0 C9.3137085,0 12,2.6862915 12,6 C12,9.3137085 9.3137085,12 6,12 Z" id="Oval-8" fill-rule="nonzero"></path>
                <path d="M3.24264069,5.24264069 L9.74264069,5.24264069 C10.0187831,5.24264069 10.2426407,5.46649831 10.2426407,5.74264069 C10.2426407,6.01878306 10.0187831,6.24264069 9.74264069,6.24264069 L2.74264069,6.24264069 C2.46649831,6.24264069 2.24264069,6.01878306 2.24264069,5.74264069 L2.24264069,2.74264069 C2.24264069,2.46649831 2.46649831,2.24264069 2.74264069,2.24264069 C3.01878306,2.24264069 3.24264069,2.46649831 3.24264069,2.74264069 L3.24264069,5.24264069 Z" id="Combined-Shape" transform="translate(6.242641, 4.242641) rotate(-45.000000) translate(-6.242641, -4.242641) "></path>
            </g>
        </g>
    </g>
</svg>