<?xml version="1.0" encoding="UTF-8"?>
<svg width="39px" height="39px" viewBox="0 0 39 39" version="1.1" xmlns="http://www.w3.org/2000/svg" xmlns:xlink="http://www.w3.org/1999/xlink">
    <!-- Generator: Sketch 49 (51002) - http://www.bohemiancoding.com/sketch -->
    <title>Group 27</title>
    <desc>Created with Sketch.</desc>
    <defs></defs>
    <g id="A01-京麦App-Guideline元件" stroke="none" stroke-width="1" fill="none" fill-rule="evenodd">
        <g id="A01-京麦App-Guideline－元件" transform="translate(-522.000000, -7190.000000)" fill="#FFFFFF" fill-rule="nonzero">
            <g id="04-控件" transform="translate(206.000000, 3746.000000)">
                <g id="toast" transform="translate(0.000000, 3419.000000)">
                    <g id="Group-23" transform="translate(260.000000, 7.000000)">
                        <g id="Group-24" transform="translate(54.000000, 18.000000)">
                            <g id="Group-27" transform="translate(2.000000, 0.000000)">
                                <path d="M19.5,38 C29.7172679,38 38,29.7172679 38,19.5 C38,9.28273213 29.7172679,1 19.5,1 C9.28273213,1 1,9.28273213 1,19.5 C1,29.7172679 9.28273213,38 19.5,38 Z M19.5,39 C8.73044738,39 0,30.2695526 0,19.5 C0,8.73044738 8.73044738,0 19.5,0 C30.2695526,0 39,8.73044738 39,19.5 C39,30.2695526 30.2695526,39 19.5,39 Z" id="Oval-11"></path>
                                <path d="M16.8578889,24.9264864 L29.1379288,12.6464466 C29.3331909,12.4511845 29.6497734,12.4511845 29.8450355,12.6464466 C30.0402977,12.8417088 30.0402977,13.1582912 29.8450355,13.3535534 L17.2114423,25.9871466 C17.0161802,26.1824088 16.6995977,26.1824088 16.5043355,25.9871466 L9.64644661,19.1292577 C9.45118446,18.9339955 9.45118446,18.617413 9.64644661,18.4221509 C9.84170876,18.2268887 10.1582912,18.2268887 10.3535534,18.4221509 L16.8578889,24.9264864 Z" id="Path-7"></path>
                            </g>
                        </g>
                    </g>
                </g>
            </g>
        </g>
    </g>
</svg>