<?xml version="1.0" encoding="UTF-8"?>
<svg width="10px" height="10px" viewBox="0 0 10 10" version="1.1" xmlns="http://www.w3.org/2000/svg" xmlns:xlink="http://www.w3.org/1999/xlink">
    <!-- Generator: Sketch 52.4 (67378) - http://www.bohemiancoding.com/sketch -->
    <title>合并形状</title>
    <desc>Created with Sketch.</desc>
    <g id="Page-1" stroke="none" stroke-width="1" fill="none" fill-rule="evenodd">
        <g id="麦头条改版-直播-" transform="translate(-20.000000, -474.000000)" fill="#666666" fill-rule="nonzero">
            <g id="文章单图-copy" transform="translate(15.000000, 470.000000)">
                <g id="Group-8-Copy-3">
                    <g id="分组-10" transform="translate(5.000000, 4.000000)">
                        <path d="M5,8.5 C6.93299662,8.5 8.5,6.93299662 8.5,5 C8.5,3.06700338 6.93299662,1.5 5,1.5 C3.06700338,1.5 1.5,3.06700338 1.5,5 C1.5,6.93299662 3.06700338,8.5 5,8.5 Z M5,10 C2.23857625,10 0,7.76142375 0,5 C0,2.23857625 2.23857625,0 5,0 C7.76142375,0 10,2.23857625 10,5 C10,7.76142375 7.76142375,10 5,10 Z M6.50000001,4.99999999 C6.77614238,5 7,5.22385763 7,5.5 C7,5.77614237 6.77614238,5.99999999 6.50000001,6 L4.5,6 L4.5,3.49999998 C4.50000001,3.22385761 4.72385763,3 5,3 C5.27614237,3 5.5,3.22385761 5.50000001,3.49999998 L5.50000001,4.99999999 L6.50000001,4.99999999 Z" id="合并形状"></path>
                    </g>
                </g>
            </g>
        </g>
    </g>
</svg>