<?xml version="1.0" encoding="UTF-8"?>
<svg width="12px" height="12px" viewBox="0 0 12 12" version="1.1" xmlns="http://www.w3.org/2000/svg" xmlns:xlink="http://www.w3.org/1999/xlink">
    <!-- Generator: Sketch 52.4 (67378) - http://www.bohemiancoding.com/sketch -->
    <title>icon_mq_reserva</title>
    <desc>Created with Sketch.</desc>
    <g id="B03-京麦App-Guideline-数据展示组件" stroke="none" stroke-width="1" fill="none" fill-rule="evenodd">
        <g id="数据展示－图标" transform="translate(-258.000000, -2499.000000)" fill="#666666">
            <g id="Group-7" transform="translate(258.000000, 2499.000000)">
                <g id="icon_mq_reserva">
                    <path d="M6,11 C8.76142375,11 11,8.76142375 11,6 C11,3.23857625 8.76142375,1 6,1 C3.23857625,1 1,3.23857625 1,6 C1,8.76142375 3.23857625,11 6,11 Z M6,12 C2.6862915,12 0,9.3137085 0,6 C0,2.6862915 2.6862915,0 6,0 C9.3137085,0 12,2.6862915 12,6 C12,9.3137085 9.3137085,12 6,12 Z" id="Combined-Shape" fill-rule="nonzero"></path>
                    <rect id="Rectangle-7" x="5" y="3" width="1" height="4" rx="0.5"></rect>
                    <rect id="Rectangle-11" x="5" y="6" width="4" height="1" rx="0.5"></rect>
                </g>
            </g>
        </g>
    </g>
</svg>