<?xml version="1.0" encoding="UTF-8"?>
<svg width="14px" height="14px" viewBox="0 0 14 14" version="1.1" xmlns="http://www.w3.org/2000/svg" xmlns:xlink="http://www.w3.org/1999/xlink">
    <!-- Generator: Sketch 52.4 (67378) - http://www.bohemiancoding.com/sketch -->
    <title>合并形状</title>
    <desc>Created with Sketch.</desc>
    <g id="B03-京麦App-Guideline-数据展示组件" stroke="none" stroke-width="1" fill="none" fill-rule="evenodd">
        <g id="数据展示－图标" transform="translate(-367.000000, -2621.000000)" fill="#666666">
            <g id="Group-46" transform="translate(367.000000, 2621.000000)">
                <path d="M7.83333057,7.12622379 L10.606001,4.35355339 C10.8012631,4.15829124 10.8012631,3.84170876 10.606001,3.64644661 C10.4107388,3.45118446 10.0941563,3.45118446 9.89889419,3.64644661 L7.12622379,6.41911701 L4.35355339,3.64644661 C4.15829124,3.45118446 3.84170876,3.45118446 3.64644661,3.64644661 C3.45118446,3.84170876 3.45118446,4.15829124 3.64644661,4.35355339 L6.41911701,7.12622379 L3.64644661,9.89889419 C3.45118446,10.0941563 3.45118446,10.4107388 3.64644661,10.606001 C3.84170876,10.8012631 4.15829124,10.8012631 4.35355339,10.606001 L7.12622379,7.83333057 L9.89889419,10.606001 C10.0941563,10.8012631 10.4107388,10.8012631 10.606001,10.606001 C10.8012631,10.4107388 10.8012631,10.0941563 10.606001,9.89889419 L7.83333057,7.12622379 Z M7,14 C3.13400675,14 0,10.8659932 0,7 C0,3.13400675 3.13400675,0 7,0 C10.8659932,0 14,3.13400675 14,7 C14,10.8659932 10.8659932,14 7,14 Z" id="合并形状"></path>
            </g>
        </g>
    </g>
</svg>