<?xml version="1.0" encoding="UTF-8"?>
<svg width="16px" height="16px" viewBox="0 0 16 16" version="1.1" xmlns="http://www.w3.org/2000/svg" xmlns:xlink="http://www.w3.org/1999/xlink">
    <!-- Generator: Sketch 52.4 (67378) - http://www.bohemiancoding.com/sketch -->
    <title>删除</title>
    <desc>Created with Sketch.</desc>
    <g id="B03-京麦App-Guideline-数据展示组件" stroke="none" stroke-width="1" fill="none" fill-rule="evenodd">
        <g id="数据展示－图标" transform="translate(-310.000000, -2620.000000)" fill="#666666" fill-rule="nonzero">
            <g id="删除" transform="translate(311.000000, 2621.000000)">
                <path d="M7,14.5 C2.85786438,14.5 -0.5,11.1421356 -0.5,7 C-0.5,2.85786438 2.85786438,-0.5 7,-0.5 C11.1421356,-0.5 14.5,2.85786438 14.5,7 C14.5,11.1421356 11.1421356,14.5 7,14.5 Z M7,13.5 C10.5898509,13.5 13.5,10.5898509 13.5,7 C13.5,3.41014913 10.5898509,0.5 7,0.5 C3.41014913,0.5 0.5,3.41014913 0.5,7 C0.5,10.5898509 3.41014913,13.5 7,13.5 Z" id="Oval-7"></path>
                <g id="Group-42" transform="translate(4.000000, 4.000000)">
                    <path d="M-0.353553391,0.353553391 C-0.548815536,0.158291245 -0.548815536,-0.158291245 -0.353553391,-0.353553391 C-0.158291245,-0.548815536 0.158291245,-0.548815536 0.353553391,-0.353553391 L6.60600097,5.89889419 C6.80126312,6.09415634 6.80126312,6.41073883 6.60600097,6.60600097 C6.41073883,6.80126312 6.09415634,6.80126312 5.89889419,6.60600097 L-0.353553391,0.353553391 Z" id="Path-10"></path>
                    <path d="M5.89889419,-0.353553391 C6.09415634,-0.548815536 6.41073883,-0.548815536 6.60600097,-0.353553391 C6.80126312,-0.158291245 6.80126312,0.158291245 6.60600097,0.353553391 L0.353553391,6.60600097 C0.158291245,6.80126312 -0.158291245,6.80126312 -0.353553391,6.60600097 C-0.548815536,6.41073883 -0.548815536,6.09415634 -0.353553391,5.89889419 L5.89889419,-0.353553391 Z" id="Path-10-Copy"></path>
                </g>
            </g>
        </g>
    </g>
</svg>