<?xml version="1.0" encoding="UTF-8"?>
<svg width="10px" height="10px" viewBox="0 0 10 10" version="1.1" xmlns="http://www.w3.org/2000/svg" xmlns:xlink="http://www.w3.org/1999/xlink">
    <!-- Generator: Sketch 52.4 (67378) - http://www.bohemiancoding.com/sketch -->
    <title>Group 7</title>
    <desc>Created with Sketch.</desc>
    <g id="B03-京麦App-Guideline-数据展示组件" stroke="none" stroke-width="1" fill="none" fill-rule="evenodd">
        <g id="数据展示－图标" transform="translate(-320.000000, -2501.000000)" fill="#666666" fill-rule="nonzero">
            <g id="Group-7" transform="translate(320.000000, 2501.000000)">
                <path d="M0.646446609,1.35355339 C0.451184464,1.15829124 0.451184464,0.841708755 0.646446609,0.646446609 C0.841708755,0.451184464 1.15829124,0.451184464 1.35355339,0.646446609 L9.18949517,8.48238839 C9.38475732,8.67765053 9.38475732,8.99423302 9.18949517,9.18949517 C8.99423302,9.38475732 8.67765053,9.38475732 8.48238839,9.18949517 L0.646446609,1.35355339 Z" id="Path-2"></path>
                <path d="M8.48238839,0.646446609 C8.67765053,0.451184464 8.99423302,0.451184464 9.18949517,0.646446609 C9.38475732,0.841708755 9.38475732,1.15829124 9.18949517,1.35355339 L1.35355339,9.18949517 C1.15829124,9.38475732 0.841708755,9.38475732 0.646446609,9.18949517 C0.451184464,8.99423302 0.451184464,8.67765053 0.646446609,8.48238839 L8.48238839,0.646446609 Z" id="Path-2-Copy"></path>
            </g>
        </g>
    </g>
</svg>