<?xml version="1.0" encoding="UTF-8"?>
<svg width="24px" height="26px" viewBox="0 0 24 26" version="1.1" xmlns="http://www.w3.org/2000/svg" xmlns:xlink="http://www.w3.org/1999/xlink">
    <!-- Generator: Sketch 52.4 (67378) - http://www.bohemiancoding.com/sketch -->
    <title>Combined Shape</title>
    <desc>Created with Sketch.</desc>
    <g id="B03-京麦App-Guideline-数据展示组件" stroke="none" stroke-width="1" fill="none" fill-rule="evenodd">
        <g id="数据展示－图标" transform="translate(-261.000000, -3115.000000)" fill="#666666" fill-rule="nonzero">
            <g id="插件-3" transform="translate(251.000000, 3106.000000)">
                <path d="M23.5714286,24.478459 L23.5714286,33.6783151 L33,27.9669165 L33,18.7670604 L23.5714286,24.478459 Z M23.0533184,23.6231451 L32.4818898,17.9117465 C32.9542667,17.6256021 33.5691696,17.7765734 33.8553139,18.2489502 C33.9499607,18.4051964 34,18.5843834 34,18.7670604 L34,27.9669165 C34,28.3166753 33.8172637,28.6410168 33.5181102,28.8222304 L24.0895387,34.533629 C23.6171619,34.8197734 23.002259,34.6688021 22.7161147,34.1964253 C22.6214679,34.0401791 22.5714286,33.8609921 22.5714286,33.6783151 L22.5714286,24.478459 C22.5714286,24.1287001 22.7541648,23.8043587 23.0533184,23.6231451 Z M20.4285714,24.478459 L11,18.7670604 L11,27.9669165 L20.4285714,33.6783151 L20.4285714,24.478459 Z M20.9466816,23.6231451 C21.2458352,23.8043587 21.4285714,24.1287001 21.4285714,24.478459 L21.4285714,33.6783151 C21.4285714,33.8609921 21.3785321,34.0401791 21.2838853,34.1964253 C20.997741,34.6688021 20.3828381,34.8197734 19.9104613,34.533629 L10.4818898,28.8222304 C10.1827363,28.6410168 10,28.3166753 10,27.9669165 L10,18.7670604 C10,18.5843834 10.0500393,18.4051964 10.1446861,18.2489502 C10.4308304,17.7765734 11.0457333,17.6256021 11.5181102,17.9117465 L20.9466816,23.6231451 Z M12.5015201,15.8383267 L22,21.5920727 L31.4984799,15.8383267 L22,10.0845807 L12.5015201,15.8383267 Z M22.2590551,9.07234305 L32.7225808,15.4106697 C32.9587692,15.5537419 33.0342548,15.8611933 32.8911826,16.0973818 C32.8494009,16.1663565 32.7915555,16.2242018 32.7225808,16.2659836 L22.2590551,22.6043103 C22.0998199,22.7007677 21.9001801,22.7007677 21.7409449,22.6043103 L11.2774192,16.2659836 C11.0412308,16.1229115 10.9657452,15.81546 11.1088174,15.5792716 C11.1505991,15.5102968 11.2084445,15.4524515 11.2774192,15.4106697 L21.7409449,9.07234305 C21.9001801,8.97588565 22.0998199,8.97588565 22.2590551,9.07234305 Z" id="Combined-Shape"></path>
            </g>
        </g>
    </g>
</svg>