<?xml version="1.0" encoding="UTF-8"?>
<svg width="16px" height="14px" viewBox="0 0 16 14" version="1.1" xmlns="http://www.w3.org/2000/svg" xmlns:xlink="http://www.w3.org/1999/xlink">
    <!-- Generator: Sketch 52.4 (67378) - http://www.bohemiancoding.com/sketch -->
    <title>终端图标电脑@1x</title>
    <desc>Created with Sketch.</desc>
    <g id="B03-京麦App-Guideline-数据展示组件" stroke="none" stroke-width="1" fill="none" fill-rule="evenodd">
        <g id="数据展示－图标" transform="translate(-417.000000, -2675.000000)" fill="#666666">
            <g id="终端图标电脑" transform="translate(417.000000, 2675.000000)">
                <path d="M3.5,13 L12.5,13 C12.7761424,13 13,13.2238576 13,13.5 C13,13.7761424 12.7761424,14 12.5,14 L3.5,14 C3.22385763,14 3,13.7761424 3,13.5 C3,13.2238576 3.22385763,13 3.5,13 Z M0.5,12 C0.223857625,12 3.38176876e-17,11.7761424 0,11.5 L0,0.5 C-3.38176876e-17,0.223857625 0.223857625,5.07265313e-17 0.5,0 L15.5,0 C15.7761424,-5.07265313e-17 16,0.223857625 16,0.5 L16,11.5 C16,11.7761424 15.7761424,12 15.5,12 L0.5,12 Z M1,1 L1,11 L15,11 L15,1 L1,1 Z" id="Combined-Shape"></path>
            </g>
        </g>
    </g>
</svg>