<?xml version="1.0" encoding="UTF-8"?>
<svg width="18px" height="18px" viewBox="0 0 18 18" version="1.1" xmlns="http://www.w3.org/2000/svg" xmlns:xlink="http://www.w3.org/1999/xlink">
    <!-- Generator: Sketch 52.4 (67378) - http://www.bohemiancoding.com/sketch -->
    <title>导航-图标-删除</title>
    <desc>Created with Sketch.</desc>
    <g id="B03-京麦App-Guideline-数据展示组件" stroke="none" stroke-width="1" fill="none" fill-rule="evenodd">
        <g id="数据展示－图标" transform="translate(-169.000000, -2828.000000)" fill="#666666" fill-rule="nonzero">
            <g id="导航-图标-删除" transform="translate(169.000000, 2828.000000)">
                <path d="M3,4.5 L3,17 L15,17 L15,4.5 L3,4.5 Z M2,3.5 L16,3.5 L16,17 C16,17.5522847 15.5522847,18 15,18 L3,18 C2.44771525,18 2,17.5522847 2,17 L2,3.5 Z" id="Rectangle-5"></path>
                <path d="M0.5,4.5 C0.223857625,4.5 1.11022302e-16,4.27614237 1.11022302e-16,4 C1.11022302e-16,3.72385763 0.223857625,3.5 0.5,3.5 L17.5,3.5 C17.7761424,3.5 18,3.72385763 18,4 C18,4.27614237 17.7761424,4.5 17.5,4.5 L0.5,4.5 Z" id="Line"></path>
                <path d="M6,7.5 C6,7.22385763 6.22385763,7 6.5,7 C6.77614237,7 7,7.22385763 7,7.5 L7,13.5 C7,13.7761424 6.77614237,14 6.5,14 C6.22385763,14 6,13.7761424 6,13.5 L6,7.5 Z" id="Line-2"></path>
                <path d="M11,7.5 C11,7.22385763 11.2238576,7 11.5,7 C11.7761424,7 12,7.22385763 12,7.5 L12,13.5 C12,13.7761424 11.7761424,14 11.5,14 C11.2238576,14 11,13.7761424 11,13.5 L11,7.5 Z" id="Line-2-Copy"></path>
                <path d="M6,3.5 L12,3.5 L12,1.5 L6,1.5 L6,3.5 Z M6,0.5 L12,0.5 C12.5522847,0.5 13,0.94771525 13,1.5 L13,4.5 L5,4.5 L5,1.5 C5,0.94771525 5.44771525,0.5 6,0.5 Z" id="Rectangle-7"></path>
            </g>
        </g>
    </g>
</svg>