<?xml version="1.0" encoding="UTF-8"?>
<svg width="10px" height="9px" viewBox="0 0 10 9" version="1.1" xmlns="http://www.w3.org/2000/svg" xmlns:xlink="http://www.w3.org/1999/xlink">
    <!-- Generator: Sketch 52.4 (67378) - http://www.bohemiancoding.com/sketch -->
    <title>合并形状</title>
    <desc>Created with Sketch.</desc>
    <g id="Page-1" stroke="none" stroke-width="1" fill="none" fill-rule="evenodd">
        <g id="麦头条改版-置顶" transform="translate(-30.000000, -1066.000000)" fill="#666666" fill-rule="nonzero">
            <g id="专题-copy" transform="translate(15.000000, 1051.000000)">
                <g id="Bitmap">
                    <g id="Group-8-Copy-5" transform="translate(10.000000, 10.000000)">
                        <path d="M6.5,6.5 L6.5,11.58572 L9.57921434,11.58572 L9.98780219,11.9584647 L10.3867103,11.58572 L13.5,11.58572 L13.5,6.5 L6.5,6.5 Z M15,12.08572 C15,12.6380047 14.5522847,13.08572 14,13.08572 L10.9784546,13.08572 L10,14 L8.99780273,13.08572 L6,13.08572 C5.44771525,13.08572 5,12.6380047 5,12.08572 L5,6 C5,5.44771525 5.44771525,5 6,5 L14,5 C14.5522847,5 15,5.44771525 15,6 L15,12.08572 Z M8.05,9.5 C7.63578644,9.5 7.3,9.16421356 7.3,8.75 C7.3,8.33578644 7.63578644,8 8.05,8 C8.46421356,8 8.8,8.33578644 8.8,8.75 C8.8,9.16421356 8.46421356,9.5 8.05,9.5 Z M10.05,9.5 C9.63578644,9.5 9.3,9.16421356 9.3,8.75 C9.3,8.33578644 9.63578644,8 10.05,8 C10.4642136,8 10.8,8.33578644 10.8,8.75 C10.8,9.16421356 10.4642136,9.5 10.05,9.5 Z M12.05,9.5 C11.6357864,9.5 11.3,9.16421356 11.3,8.75 C11.3,8.33578644 11.6357864,8 12.05,8 C12.4642136,8 12.8,8.33578644 12.8,8.75 C12.8,9.16421356 12.4642136,9.5 12.05,9.5 Z" id="合并形状"></path>
                    </g>
                </g>
            </g>
        </g>
    </g>
</svg>