<?xml version="1.0" encoding="UTF-8"?>
<svg width="19px" height="19px" viewBox="0 0 19 19" version="1.1" xmlns="http://www.w3.org/2000/svg" xmlns:xlink="http://www.w3.org/1999/xlink">
    <!-- Generator: Sketch 52.4 (67378) - http://www.bohemiancoding.com/sketch -->
    <title>编辑</title>
    <desc>Created with Sketch.</desc>
    <g id="B03-京麦App-Guideline-数据展示组件" stroke="none" stroke-width="1" fill="none" fill-rule="evenodd">
        <g id="数据展示－图标" transform="translate(-204.000000, -2827.000000)" fill="#666666" fill-rule="nonzero">
            <g id="编辑" transform="translate(205.000000, 2828.000000)">
                <path d="M14.7879796,5.32657826 C14.7879796,5.05043589 15.0118372,4.82657826 15.2879796,4.82657826 C15.5641219,4.82657826 15.7879796,5.05043589 15.7879796,5.32657826 L15.7879796,17.4819196 C15.7879796,17.758062 15.5641219,17.9819196 15.2879796,17.9819196 L0.329204074,17.9819196 C0.0530616995,17.9819196 -0.170795926,17.758062 -0.170795926,17.4819196 L-0.170795926,1.78735352 C-0.170795926,1.51121114 0.0530616995,1.28735352 0.329204074,1.28735352 L11.9006348,1.28735352 C12.1767771,1.28735352 12.4006348,1.51121114 12.4006348,1.78735352 C12.4006348,2.06349589 12.1767771,2.28735352 11.9006348,2.28735352 L0.829204074,2.28735352 L0.829204074,16.9819196 L14.7879796,16.9819196 L14.7879796,5.32657826 Z" id="Path-5"></path>
                <path d="M7.61734734,10.0690075 C7.42208519,10.2642696 7.1055027,10.2642696 6.91024055,10.0690075 C6.71497841,9.87374535 6.71497841,9.55716286 6.91024055,9.36190071 L16.2761481,-0.00400687901 C16.4714103,-0.199269025 16.7879928,-0.199269025 16.9832549,-0.00400687901 C17.1785171,0.191255267 17.1785171,0.507837756 16.9832549,0.703099902 L7.61734734,10.0690075 Z" id="Path-6"></path>
            </g>
        </g>
    </g>
</svg>