<?xml version="1.0" encoding="UTF-8"?>
<svg width="39px" height="39px" viewBox="0 0 39 39" version="1.1" xmlns="http://www.w3.org/2000/svg" xmlns:xlink="http://www.w3.org/1999/xlink">
    <!-- Generator: Sketch 49 (51002) - http://www.bohemiancoding.com/sketch -->
    <title>Group 26 Copy 2</title>
    <desc>Created with Sketch.</desc>
    <defs></defs>
    <g id="A01-京麦App-Guideline元件" stroke="none" stroke-width="1" fill="none" fill-rule="evenodd">
        <g id="A01-京麦App-Guideline－元件" transform="translate(-933.000000, -7189.000000)" fill="#FFFFFF">
            <g id="04-控件" transform="translate(206.000000, 3746.000000)">
                <g id="toast" transform="translate(0.000000, 3419.000000)">
                    <g id="Group-23-Copy" transform="translate(671.000000, 7.000000)">
                        <g id="Group-26-Copy-2" transform="translate(56.000000, 17.000000)">
                            <path d="M19.5,38 C29.7172679,38 38,29.7172679 38,19.5 C38,9.28273213 29.7172679,1 19.5,1 C9.28273213,1 1,9.28273213 1,19.5 C1,29.7172679 9.28273213,38 19.5,38 Z M19.5,39 C8.73044738,39 0,30.2695526 0,19.5 C0,8.73044738 8.73044738,0 19.5,0 C30.2695526,0 39,8.73044738 39,19.5 C39,30.2695526 30.2695526,39 19.5,39 Z" id="Oval-11" fill-rule="nonzero"></path>
                            <path d="M19.5,23.509996 C19.5,23.7861384 19.2761424,24.009996 19,24.009996 C18.7238576,24.009996 18.5,23.7861384 18.5,23.509996 L18.5,11 C18.5,10.7238576 18.7238576,10.5 19,10.5 C19.2761424,10.5 19.5,10.7238576 19.5,11 L19.5,23.509996 Z" id="Path-7" fill-rule="nonzero"></path>
                            <circle id="Oval-12" cx="19" cy="28" r="1"></circle>
                        </g>
                    </g>
                </g>
            </g>
        </g>
    </g>
</svg>