<?xml version="1.0" encoding="UTF-8"?>
<svg width="16px" height="7px" viewBox="0 0 16 7" version="1.1" xmlns="http://www.w3.org/2000/svg" xmlns:xlink="http://www.w3.org/1999/xlink">
    <!-- Generator: Sketch 52.4 (67378) - http://www.bohemiancoding.com/sketch -->
    <title>Shape</title>
    <desc>Created with Sketch.</desc>
    <g id="B03-京麦App-Guideline-数据展示组件" stroke="none" stroke-width="1" fill="none" fill-rule="evenodd">
        <g id="数据展示－图标" transform="translate(-222.000000, -2681.000000)" fill="#666666" fill-rule="nonzero">
            <g id="眼睛" transform="translate(222.000000, 2681.000000)">
                <path d="M15.9480213,2.90419321 L14.998883,1.46261153 C15.2486562,1.24904387 15.5483841,0.982084301 15.7981573,0.715124734 C15.9480213,0.554948992 15.9480213,0.287989425 15.848112,0.127813669 C15.698248,-0.0323620732 15.4984294,-0.0323620732 15.3485655,0.0744217635 C13.5501982,1.88974685 11.6019669,3.01097705 9.70369031,3.43811236 C8.15509623,3.75846384 6.60650216,3.65168002 5.05790808,3.06436896 C3.65917794,2.53044981 2.5601757,1.78296301 1.86081062,1.19565196 C1.06153626,0.661732816 0.611944426,0.181205588 0.611944438,0.127813669 C0.462080495,-0.0323620732 0.2622619,-0.0323620732 0.112397957,0.127813669 C-0.0374659858,0.287989412 -0.0374659858,0.554948979 0.112397957,0.715124734 C0.112397957,0.715124734 0.462080495,1.14226004 1.06153627,1.67617919 L0.212307249,2.90419321 C0.112397957,3.06436896 0.112397957,3.33132852 0.2622619,3.49150427 C0.312216552,3.54489618 0.412125843,3.59828809 0.462080495,3.5982881 C0.561989786,3.5982881 0.66189909,3.54489618 0.761808381,3.43811236 L1.61103739,2.21009832 C2.21049316,2.69062555 3.10967682,3.2779366 4.15872442,3.75846384 L3.6092233,5.14665361 C3.50931401,5.36022127 3.6092233,5.57378892 3.75908724,5.68057276 C3.80904189,5.68057276 3.85899653,5.73396467 3.90895118,5.73396466 C4.05881513,5.73396466 4.15872442,5.62718084 4.20867907,5.52039701 L4.80813484,4.07881533 C5.7073185,4.39916682 6.65645681,4.61273448 7.55564046,4.61273446 L7.55564046,6.16109998 C7.55564046,6.37466765 7.7055044,6.58823529 7.905323,6.58823529 C8.10514159,6.58823529 8.25500553,6.42805955 8.25500553,6.16109998 L8.25500553,4.61273446 C8.75455201,4.61273446 9.25409848,4.50595064 9.70369031,4.45255872 C10.2032368,4.3457749 10.7527379,4.18559915 11.2522844,3.97203149 L11.8517402,5.4670051 C11.9016948,5.62718084 12.0515588,5.68057276 12.1514681,5.68057276 C12.2014227,5.68057276 12.2513773,5.68057276 12.301332,5.62718084 C12.5011506,5.52039701 12.5511052,5.30682935 12.4511959,5.09326169 L12.0016041,3.54489618 C12.8008785,3.17115278 13.6501075,2.63723365 14.3994272,1.99653068 L15.3485655,3.43811236 C15.3985201,3.54489618 15.5483841,3.5982881 15.6482934,3.5982881 C15.698248,3.5982881 15.7981573,3.5982881 15.848112,3.54489618 C15.9979759,3.33132852 16.0479306,3.11776087 15.9480213,2.90419321 Z" id="Shape"></path>
            </g>
        </g>
    </g>
</svg>