<?xml version="1.0" encoding="UTF-8"?>
<svg width="20px" height="19px" viewBox="0 0 20 19" version="1.1" xmlns="http://www.w3.org/2000/svg" xmlns:xlink="http://www.w3.org/1999/xlink">
    <!-- Generator: Sketch 52.4 (67378) - http://www.bohemiancoding.com/sketch -->
    <title>Path 3</title>
    <desc>Created with Sketch.</desc>
    <g id="B03-京麦App-Guideline-数据展示组件" stroke="none" stroke-width="1" fill="none" fill-rule="evenodd">
        <g id="数据展示－图标" transform="translate(-175.000000, -2894.000000)" fill="#666666" fill-rule="nonzero">
            <g id="筛选" transform="translate(173.000000, 2891.000000)">
                <path d="M4.00775177,4.14202881 L10.1193736,10.5261546 C10.2084654,10.6192189 10.2581959,10.7430811 10.2581959,10.8719156 L10.2581959,18.3322344 L13.5964614,19.9962735 L13.5964614,10.8797503 C13.5964614,10.7532924 13.6443783,10.6315317 13.730562,10.53899 L19.6880189,4.14202881 L4.00775177,4.14202881 Z M9.25819586,11.0726645 L2.47573635,3.98778979 C2.17131805,3.66979814 2.39669913,3.14202881 2.83691406,3.14202881 L20.8369141,3.14202881 C21.2738443,3.14202881 21.5005905,3.66304404 21.2028135,3.9827891 L14.5964614,11.0765169 L14.5964614,20.8041867 C14.5964614,21.1756109 14.2058156,21.4173732 13.8734011,21.2516731 L9.53513548,19.08916 C9.36544322,19.0045728 9.25819586,18.8312796 9.25819586,18.6416736 L9.25819586,11.0726645 Z" id="Path-3"></path>
            </g>
        </g>
    </g>
</svg>