<?xml version="1.0" encoding="UTF-8"?>
<svg width="28px" height="28px" viewBox="0 0 28 28" version="1.1" xmlns="http://www.w3.org/2000/svg" xmlns:xlink="http://www.w3.org/1999/xlink">
    <!-- Generator: Sketch 52.4 (67378) - http://www.bohemiancoding.com/sketch -->
    <title>icon_fingerprint</title>
    <desc>Created with Sketch.</desc>
    <g id="B03-京麦App-Guideline-数据展示组件" stroke="none" stroke-width="1" fill="none" fill-rule="evenodd">
        <g id="数据展示－图标" transform="translate(-315.000000, -2987.000000)" fill="#666666" fill-rule="nonzero">
            <g id="icon_fingerprint" transform="translate(315.000000, 2987.000000)">
                <path d="M12.4969074,27.9999999 C12.3834039,28.0000836 12.2735573,27.9599077 12.1869407,27.8866311 C11.9830095,27.7147796 11.9565241,27.4096377 12.1278964,27.2050734 C12.5004438,26.7602188 12.8539819,26.2998163 13.1875623,25.8251014 C13.3546195,25.5872049 13.5166256,25.3458084 13.6734721,25.1010735 C13.8305763,24.8558086 13.9824476,24.6072377 14.1289832,24.3555289 C14.2758142,24.1032347 14.4172477,23.8478442 14.5531877,23.5895311 C14.6894338,23.3304263 14.8201062,23.0684347 14.9451151,22.8037367 C15.0704932,22.5381284 15.1901433,22.2698593 15.3039826,21.9991153 C15.8814605,20.6249437 16.306164,19.1915894 16.57046,17.7248142 C16.6243012,17.4262074 16.6715023,17.1264438 16.7120284,16.8257448 C16.7528513,16.5226043 16.7869421,16.2185969 16.8142758,15.9139469 C16.8417938,15.6065502 16.8624613,15.29858 16.8762629,14.9902647 C16.8902549,14.6767173 16.8972276,14.3628966 16.8971757,14.0490378 L16.8971757,14.0425328 C16.8971653,13.9430389 16.8921604,13.8436082 16.8821798,13.7446152 C16.8628238,13.5522596 16.8242819,13.3623166 16.7671281,13.1776148 C16.7112827,12.9973181 16.637905,12.822915 16.5480445,12.6569001 C16.4591927,12.49287 16.3547866,12.3377374 16.236262,12.1936361 C16.1772216,12.1218886 16.1147988,12.0529868 16.049205,11.9871641 C15.9836216,11.9213985 15.9149406,11.8587898 15.8433954,11.7995505 C15.7717177,11.7402775 15.6972596,11.6844422 15.6202733,11.6322338 C15.5430498,11.579964 15.4633555,11.5314331 15.3814665,11.486809 C15.1318645,11.3508487 14.8634206,11.2527015 14.5849326,11.195584 C14.4898172,11.1761224 14.3937832,11.1614468 14.2971936,11.1516126 C14.0996101,11.1316538 13.9005152,11.1316538 13.7029316,11.1516126 C13.6065073,11.1613388 13.509676,11.1761941 13.4150674,11.195584 C13.3214593,11.2147963 13.2288652,11.2386463 13.1376283,11.2670455 C12.9578227,11.3231358 12.7839669,11.3967332 12.6185648,11.4867777 C12.3730183,11.6205428 12.1481227,11.7890713 11.9508576,11.9871329 C11.8852645,12.0529562 11.8228417,12.121858 11.7638006,12.1936048 C11.7046816,12.2654924 11.6490283,12.3401556 11.5970303,12.4173401 C11.4923689,12.572847 11.4030008,12.7380967 11.3301729,12.9107837 C11.2934484,12.9980644 11.2610075,13.0870826 11.2329659,13.177521 C11.1758042,13.362224 11.1372415,13.5521657 11.1178515,13.7445214 C11.1078889,13.8435469 11.1028945,13.9430084 11.1028869,14.0425328 L11.1028556,14.0490378 L11.1028556,14.0555741 C11.1030044,14.6027124 11.0724534,15.149429 11.0113464,15.6931513 C10.95149,16.2257911 10.8620236,16.7546929 10.7433619,17.2774061 C10.6847481,17.5354612 10.6190525,17.7918599 10.5463494,18.0463125 C10.4740449,18.2989958 10.3948409,18.5496579 10.3088262,18.798018 C10.2232943,19.0448794 10.1310728,19.2893768 10.0322637,19.5312406 C9.93384378,19.7718653 9.82893888,20.0097919 9.71766363,20.2447604 C9.6068405,20.4787169 9.48974283,20.7096556 9.36649746,20.9373265 C9.2436357,21.1641779 9.11473178,21.3877114 8.97992352,21.607688 C8.84544604,21.826994 8.70516391,22.0426949 8.55922539,22.2545626 C8.41353172,22.4659593 8.26225732,22.6734632 8.10556139,22.8768557 C7.79268955,23.2827913 7.45852486,23.6718963 7.10447014,24.0425372 C6.75070297,24.4128123 6.37755906,24.7641166 5.98660525,25.094975 C5.78308102,25.2672331 5.47881214,25.2413381 5.3070015,25.0371491 C5.13519086,24.8329289 5.16105011,24.5277557 5.36460565,24.3554351 C5.54702348,24.2010334 5.72534493,24.0418659 5.89938505,23.8780977 C6.07336208,23.7142724 6.24297777,23.5458857 6.40805474,23.3731139 C6.57314635,23.2002533 6.73364842,23.0230758 6.88939377,22.8417661 C7.20141484,22.4784315 7.49391666,22.0988134 7.7656656,21.7045128 C7.90185239,21.5068292 8.03274988,21.305561 8.1582191,21.1009216 C8.28397043,20.8957149 8.40420983,20.6871878 8.51880856,20.4755636 C8.63374802,20.2632217 8.74297417,20.0478428 8.84636955,19.8296585 C8.95011156,19.6105222 9.04792797,19.3886351 9.13971243,19.1642384 C9.32459994,18.7117505 9.48462686,18.2495191 9.61907914,17.7796065 C9.68689701,17.5423357 9.74817671,17.3032484 9.8028489,17.0626152 C9.857899,16.8199913 9.90624431,16.5758977 9.94782978,16.3306124 C9.98970878,16.0830081 10.024723,15.8342939 10.0528321,15.5847551 C10.1098605,15.0770419 10.1383733,14.566536 10.1382365,14.0556367 L10.1382365,14.0491316 L10.1382365,14.0425953 C10.1380771,13.7804893 10.1643296,13.5190329 10.216597,13.2621801 C10.2420492,13.1373337 10.2740759,13.0122996 10.311769,12.8905806 C10.3492302,12.7697628 10.3925683,12.6508423 10.4416288,12.5342429 C10.5387379,12.3038563 10.657957,12.0834076 10.7976162,11.8759845 C10.8665847,11.7735929 10.9413135,11.673328 11.0197679,11.5779106 C11.0983708,11.4824126 11.1814686,11.3906969 11.2687806,11.3030733 C11.5316589,11.039279 11.8312859,10.8147812 12.1583891,10.6365273 C12.2683069,10.5767347 12.3810593,10.5222956 12.4962499,10.4734013 C12.6124431,10.4241845 12.7309877,10.3807027 12.8514546,10.3431132 C12.9732839,10.3052025 13.0969193,10.2733472 13.2219057,10.2476644 C13.3487488,10.2217029 13.476819,10.2021318 13.6056307,10.1890254 C13.8679174,10.1625482 14.1322078,10.1625482 14.3944945,10.1890254 C14.5232605,10.2021509 14.6512875,10.2217113 14.7780943,10.2476332 C14.9029451,10.273278 15.027608,10.3053653 15.1487019,10.3431132 C15.3887893,10.4179293 15.620912,10.5161984 15.8417049,10.636496 C15.9509021,10.695974 16.0571556,10.7606933 16.160093,10.830427 C16.2626208,10.8999642 16.3617865,10.974324 16.4572553,11.0532554 C16.6479279,11.2111141 16.8230793,11.3867961 16.980326,11.5779106 C17.0590835,11.6736397 17.1332085,11.7730802 17.2024464,11.8758907 C17.2719917,11.9792343 17.3365264,12.0858561 17.3958273,12.1953875 C17.4554622,12.3056507 17.5097379,12.4187235 17.5584651,12.5342116 C17.6073973,12.6504577 17.6511326,12.7703315 17.6883562,12.8905493 C17.7261986,13.0127607 17.7579615,13.1367685 17.7835283,13.2621176 C17.8093988,13.3893441 17.8289062,13.5177795 17.8419777,13.646946 C17.8552204,13.7772967 17.86192,13.910462 17.86192,14.0425641 L17.8618887,14.0490691 L17.8618887,14.0555741 C17.8619757,14.7048744 17.8330404,15.3538547 17.7751694,16.0005763 C17.7182494,16.6362007 17.633053,17.268981 17.5198327,17.8970409 C17.4638202,18.2075843 17.4009621,18.5168565 17.3313044,18.8246323 C17.2620227,19.1304434 17.1860337,19.4346995 17.1033923,19.7371809 C16.6956181,21.2290062 16.1266245,22.6721001 15.4064492,24.0410048 C15.1220406,24.5815914 14.8146425,25.109793 14.4850958,25.624165 C14.3208274,25.8804518 14.15116,26.133245 13.976207,26.3823756 C13.801455,26.6310531 13.6214645,26.8760156 13.4363559,27.1170992 C13.2523983,27.3566593 13.0606767,27.5955938 12.8665757,27.8273353 C12.7751506,27.936838 12.6397398,28.0000902 12.4970013,27.9999686 L12.4969074,27.9999999 Z M16.8812093,27.7740441 C16.7916098,27.7740441 16.7010085,27.7489935 16.6200496,27.6966719 C16.39627,27.5517474 16.331935,27.25236 16.4764149,27.0278741 C16.7775221,26.5599081 17.0622503,26.081625 17.3300834,25.5938916 C17.5989872,25.1039976 17.8506378,24.6048482 18.0845726,24.0973608 C18.5567821,23.0726649 18.9556174,22.0157909 19.2780742,20.9346995 C19.5234545,20.1118935 19.7241717,19.2764492 19.8793488,18.4320166 C19.9276236,18.1692824 20.1791409,17.9956483 20.4411145,18.0439982 C20.7030569,18.0924731 20.876245,18.3447304 20.8279702,18.6074646 C20.6664108,19.4862396 20.4575325,20.3556723 20.2022451,21.2119761 C20.0339037,21.7763615 19.8455382,22.3345925 19.6375053,22.8856124 C19.5339948,23.1595343 19.4256782,23.4316197 19.3126054,23.7017428 C19.1998585,23.9709781 19.0823885,24.2382152 18.9602496,24.5033306 C18.8383546,24.7676789 18.7118672,25.0298898 18.5808448,25.2898443 C18.3195872,25.8078242 18.0403296,26.3165468 17.743581,26.8150847 C17.5956383,27.063567 17.4433817,27.3094607 17.2868803,27.5526544 C17.1982834,27.6907347 17.0453583,27.774197 16.881178,27.7740754 L16.8812093,27.7740441 Z M8.7546099,27.0279679 C8.62916434,27.0279679 8.503844,26.9791802 8.40929806,26.8820427 C8.22333684,26.69077 8.22712494,26.3844709 8.41775084,26.1979519 C8.61443721,26.0054039 8.8064647,25.8081634 8.99366712,25.6064013 C9.18089664,25.404473 9.36322707,25.1980662 9.54049956,24.9873607 C9.71786437,24.7763861 9.89012142,24.5611785 10.0571211,24.3419247 C10.5599156,23.6815296 11.0135842,22.9852116 11.4144815,22.2585657 C11.6834819,21.7708068 11.928242,21.2700938 12.14787,20.7582507 C12.2583052,20.5007719 12.3623273,20.2405951 12.4598403,19.9779606 C12.5577855,19.713988 12.6491248,19.4476162 12.7337731,19.1790936 C12.818882,18.9089686 12.8972044,18.6367564 12.9686666,18.3627131 C13.1862089,17.5277945 13.3396188,16.6775017 13.4275588,15.8192487 C13.4574423,15.527952 13.4799276,15.2359452 13.4949932,14.9435099 C13.5100517,14.6497517 13.5176905,14.351021 13.5176905,14.0556367 C13.5176905,13.788399 13.7336121,13.5718568 13.9999687,13.5718568 C14.2663253,13.5718568 14.4822469,13.7884303 14.4822469,14.0556054 C14.4822469,14.3674712 14.4741385,14.6829336 14.4582348,14.9932045 C14.4423441,15.3021614 14.418606,15.6106656 14.3870435,15.9184191 C14.3557187,16.2232345 14.3166249,16.5272032 14.2698003,16.8300294 C14.2233311,17.1302426 14.1692786,17.4292355 14.1076947,17.7267219 C14.046457,18.0219537 13.9778218,18.315606 13.9018538,18.6074021 C13.8262903,18.8971977 13.7434898,19.1850618 13.6535298,19.4707251 C13.5640127,19.754689 13.4674227,20.0363795 13.3638498,20.3155338 C13.2607234,20.5932524 13.1507411,20.8683822 13.0340034,21.140671 C12.9176826,21.4117234 12.7947044,21.6798762 12.6651803,21.9448859 C12.2787803,22.7348786 11.8347402,23.4954117 11.3366533,24.2203308 C11.1714463,24.4607224 11.0004307,24.6970784 10.8237572,24.9291907 C10.6472912,25.1609081 10.4652529,25.3883374 10.2778014,25.61128 C10.0904783,25.8339357 9.89780306,26.0520426 9.6999441,26.2654102 C9.5021379,26.4786271 9.29921209,26.6870465 9.09134372,26.8904867 C9.00156093,26.9787492 8.880607,27.0281592 8.7546412,27.0280305 L8.7546099,27.0279679 Z M21.9007536,25.5285599 C21.8374203,25.5285599 21.7730227,25.5160189 21.7110669,25.4893734 C21.4662492,25.3841671 21.3527315,25.0998225 21.4575773,24.8541953 C21.5460707,24.646898 21.6320138,24.4385235 21.7153872,24.2291188 C21.7988799,24.0192299 21.8797823,23.8083218 21.958076,23.5964427 C22.3530486,22.5276102 22.680676,21.435133 22.9390371,20.3254164 C23.0435686,19.8763848 23.1367874,19.4247998 23.2186051,18.9710892 C23.3842983,18.0517266 23.5029998,17.1245285 23.5742481,16.1931 C23.6104768,15.7203735 23.6346533,15.2468024 23.6467542,14.7728468 C23.652859,14.5348505 23.6559583,14.2935704 23.6559583,14.0556367 L23.6559583,14.0491316 L23.6559583,14.0425953 C23.6559583,13.7117148 23.6391467,13.3780196 23.6061182,13.0508919 C23.5734487,12.7279459 23.5246645,12.40683 23.4599477,12.0887426 C23.3960795,11.7755932 23.3167561,11.4657888 23.2222679,11.1604632 C23.1287787,10.8587625 23.0205366,10.5618227 22.8979315,10.2707135 C22.6552473,9.69498187 22.3573206,9.1440809 22.0083231,8.62572429 C21.8350477,8.36851598 21.6496068,8.11969835 21.4526309,7.8801172 C21.25596,7.6411127 21.0480269,7.41158282 20.8295355,7.19230474 C20.6110312,6.97321865 20.3822133,6.76464474 20.1438583,6.56729078 C19.6654376,6.17127497 19.1499054,5.82226661 18.6044187,5.52511089 C18.3298984,5.37566863 18.0482539,5.2396734 17.7604866,5.11760866 C17.4703158,4.99469308 17.1742671,4.88611349 16.873414,4.79226365 C16.5690887,4.69752097 16.2602323,4.61796539 15.9479908,4.55389205 C15.6308857,4.48899792 15.3107163,4.44006513 14.9886938,4.40727882 C14.6601835,4.37397857 14.3301973,4.35729856 14,4.35730272 C13.7335808,4.35730272 13.5177218,4.1407292 13.5177218,3.87355411 C13.5177218,3.60637902 13.7336434,3.3898055 14,3.3898055 C14.36228,3.3898055 14.7276281,3.40825725 15.0859635,3.44472292 C15.4401472,3.48078509 15.7922906,3.53462383 16.1410586,3.606035 C16.4847071,3.67653137 16.8246274,3.76408236 17.1595563,3.8683626 C17.4906909,3.97167049 17.8165377,4.09118837 18.1359154,4.22648293 C18.4525824,4.36079485 18.7625096,4.51044191 19.0645945,4.67489175 C19.3649114,4.83848414 19.6571538,5.01645325 19.9403028,5.20817861 C20.222399,5.39936017 20.4951823,5.60390781 20.7577182,5.82112075 C21.0197583,6.03811635 21.2713296,6.26742679 21.5115812,6.50827645 C21.7518353,6.74934293 21.9804653,7.00169823 22.1966949,7.26448548 C22.4133319,7.5278951 22.6172654,7.80147967 22.8077998,8.08430615 C22.9990142,8.3684252 23.1764456,8.66156257 23.3394799,8.9627033 C23.5034585,9.2658211 23.6526424,9.57669606 23.7865069,9.89423523 C23.9214571,10.2146632 24.0406069,10.5415052 24.1435274,10.8735854 C24.2475309,11.2095984 24.3348162,11.5505497 24.4050627,11.8951869 C24.4762591,12.2450673 24.5299332,12.598279 24.5658847,12.9535042 C24.6023611,13.3154437 24.6206462,13.6789826 24.6206713,14.0427517 C24.6206713,14.0449409 24.6206713,14.0470675 24.6206087,14.0492567 L24.62064,14.055793 C24.6206273,14.3031601 24.6174651,14.5505169 24.6111541,14.7978036 C24.5863877,15.7739372 24.5117915,16.7481733 24.3876563,17.7167142 C24.3570009,17.9559019 24.3232914,18.194689 24.2865359,18.4330174 C24.1050277,19.6108386 23.8494142,20.7760658 23.5212147,21.9217743 C23.4562206,22.1485119 23.3884052,22.3744331 23.3177844,22.5994852 C23.0371936,23.4936431 22.7122788,24.3733135 22.3442429,25.2352396 C22.2686469,25.4130572 22.0940491,25.5285841 21.9006597,25.5287475 L21.9007536,25.5285599 Z M3.26531005,22.7678653 C3.1171077,22.7680248 2.97712096,22.6998696 2.88593663,22.5831601 C2.72126389,22.3731854 2.75742302,22.069013 2.96673897,21.9038542 C3.11142053,21.7896418 3.25293788,21.6714853 3.39113129,21.5495181 C3.52922627,21.4275931 3.66394751,21.3019071 3.795143,21.172602 C4.18921124,20.7840176 4.55044657,20.3635537 4.87515821,19.9155061 C4.98332253,19.7662658 5.08854402,19.6121468 5.18791118,19.457715 C5.28811719,19.3018361 5.38398343,19.1432153 5.47539972,18.9820351 C5.84514547,18.330136 6.13987224,17.6385403 6.35395693,16.9204429 C6.40814802,16.7384026 6.45716254,16.5548643 6.50094143,16.3700491 C6.58952153,15.99542 6.65631634,15.6159823 6.70099063,15.2336402 C6.72371245,15.0394218 6.74078175,14.8445851 6.75217693,14.6493765 C6.76194459,14.4815594 6.76764239,14.3113029 6.76908249,14.1421097 C6.76224718,14.1093475 6.75881657,14.0759677 6.75884523,14.0425015 C6.75884523,13.7948102 6.77136787,13.5450548 6.7961627,13.3000531 C6.82067544,13.0578522 6.85726614,12.8170235 6.90579843,12.5784646 C6.95372237,12.34346 7.01324625,12.1109657 7.08415215,11.8818328 C7.15435776,11.6554042 7.23560143,11.4325392 7.3275923,11.2140358 C7.41884115,10.9975114 7.5205506,10.7855363 7.63236208,10.5788577 C7.7435625,10.3735428 7.86456615,10.1736793 7.99495516,9.97995769 C8.12481905,9.78712518 8.2638328,9.60060191 8.41152083,9.42102602 C8.55894386,9.24189924 8.71480751,9.06987447 8.87858405,8.90553414 C9.04236075,8.7413197 9.2138643,8.58498075 9.39251325,8.43704732 C9.57149765,8.28896218 9.7574733,8.14951805 9.9498021,8.01919336 C10.1705137,7.86960908 10.470337,7.92796665 10.6194503,8.14938766 C10.6733941,8.22927277 10.7021782,8.32345384 10.7020998,8.41981526 C10.7020372,8.57509144 10.6275901,8.72761548 10.4896219,8.82106265 C10.3228696,8.93406849 10.1616234,9.05497698 10.0064357,9.18337372 C9.8514809,9.31167632 9.70272132,9.44726739 9.56066102,9.58968753 C9.41861817,9.73224156 9.28343018,9.88145171 9.15555357,10.0368141 C8.89875129,10.3489992 8.67257546,10.685115 8.4801449,11.0405268 C8.38328871,11.2195568 8.29518233,11.4031747 8.21613632,11.590733 C8.13646772,11.7799229 8.06612103,11.9728966 8.00534896,12.1689608 C7.88142132,12.5692356 7.79783503,12.9808773 7.75583533,13.3977536 C7.73713591,13.5836203 7.72653384,13.7702113 7.72405912,13.956998 C7.73063351,13.9888976 7.73407724,14.0218606 7.73407724,14.0556679 C7.73425457,14.487041 7.70919789,14.9180559 7.65903531,15.3465086 C7.61000024,15.7660553 7.53670376,16.182416 7.43951341,16.5935029 C7.3915009,16.7964027 7.3376942,16.9978905 7.27815917,17.1977196 C6.98479751,18.1813918 6.5539898,19.1188035 5.99847045,19.9822451 C5.88877639,20.1527463 5.77439065,20.3201894 5.65544399,20.4843829 C5.29943335,20.9756015 4.90339264,21.4365878 4.47136564,21.8626349 C4.18362176,22.1462911 3.88045921,22.4139026 3.56325499,22.664254 C3.47854177,22.731472 3.37352626,22.7680284 3.26534135,22.7679591 L3.26531005,22.7678653 Z M1.52441244,19.7570087 C1.38636279,19.7571599 1.25492427,19.6979577 1.16363514,19.5945082 C0.986752834,19.3947289 1.00481674,19.0889927 1.20395805,18.9115432 C1.28738976,18.8372442 1.36888713,18.7608055 1.4483687,18.6823037 C1.5275118,18.604087 1.60571569,18.5228055 1.68078893,18.440617 C1.90738042,18.1925529 2.11446276,17.9273838 2.30019008,17.6474732 C2.54991316,17.2710019 2.75961412,16.8695179 2.92588385,16.449548 C3.09535662,16.0208814 3.21845488,15.5753395 3.293079,15.1205216 C3.33135045,14.8873222 3.35695498,14.6522239 3.36978018,14.4162589 C3.37626065,14.2971044 3.37954784,14.1757607 3.37954784,14.0557618 L3.37957915,14.0492255 L3.37957915,14.0427204 C3.37957915,13.679346 3.39795613,13.3128755 3.43430309,12.9534417 C3.47024795,12.5982156 3.52392209,12.2450036 3.59512511,11.8951243 C3.66538819,11.5504909 3.7526733,11.2095405 3.85666048,10.8735228 C3.95961282,10.5414779 4.07875139,10.2146587 4.21364968,9.89423523 C4.34752908,9.57669757 4.49672325,9.26582283 4.66070798,8.9627033 C4.78775017,8.72792823 5.08052953,8.64089226 5.31464031,8.76836571 C5.47561886,8.85599588 5.56687761,9.02221801 5.56694023,9.19381929 C5.56694023,9.27181703 5.54815626,9.35094064 5.50839688,9.4243098 C5.35938693,9.69977051 5.22381669,9.98227758 5.10216239,10.2708386 C4.97958748,10.5619596 4.87134591,10.8588979 4.77782598,11.1605883 C4.68334178,11.4658996 4.6040391,11.7756944 4.54020886,12.0888364 C4.47548975,12.4069563 4.42669518,12.728103 4.39400702,13.0510796 C4.36081132,13.3806071 4.34418748,13.711591 4.34419822,14.042783 L4.34416691,14.049288 L4.34416691,14.0558243 C4.34416691,14.193368 4.34041012,14.3324442 4.33299045,14.469081 C4.32554927,14.605188 4.3144523,14.741071 4.29971153,14.8765832 C4.28505681,15.0107976 4.26679849,15.1445949 4.24495628,15.2778306 C4.22329008,15.4099031 4.19804771,15.5413652 4.16925692,15.6720726 C4.11235779,15.9306217 4.04164987,16.185944 3.95743644,16.4369445 C3.91573752,16.5612542 3.87076562,16.6844441 3.82256759,16.8063861 C3.63158731,17.2892406 3.39057174,17.7508149 3.10345491,18.1835747 C2.96119397,18.3979716 2.80798567,18.6049151 2.64443749,18.8035848 C2.39963551,19.1008738 2.13226856,19.3788793 1.8447103,19.6351333 C1.75663182,19.7137621 1.6426298,19.7571979 1.52450636,19.7571338 L1.52441244,19.7570087 Z M20.6933831,16.3528171 C20.6814866,16.3528171 20.6695901,16.3523792 20.657631,16.3515035 C20.3919631,16.3319572 20.1924149,16.1000593 20.2118563,15.8336036 C20.2333604,15.539005 20.2495173,15.2440413 20.2603189,14.9488578 C20.2710884,14.6528166 20.2765357,14.352272 20.2765357,14.0556679 L20.276567,14.0491004 L20.276567,14.0425953 C20.276567,13.8272415 20.2656097,13.6102927 20.2441647,13.3977223 C20.2229292,13.187789 20.1912179,12.9790454 20.1491491,12.7722705 C20.1076437,12.5687577 20.0560918,12.3674191 19.9946823,12.1689921 C19.9338879,11.9729252 19.8635416,11.7799421 19.783895,11.590733 C19.7048156,11.4031946 19.6166993,11.2195883 19.5198551,11.0405581 C19.4235059,10.8626224 19.318654,10.689414 19.205662,10.5215322 C19.1517277,10.4416543 19.1229443,10.3474861 19.1230126,10.2511359 C19.1230439,10.0958597 19.1975223,9.94333565 19.3354592,9.84988848 C19.5561708,9.70033548 19.8559941,9.7586305 20.0051074,9.98008279 C20.1354727,10.1737858 20.2564554,10.3736283 20.3676379,10.5789203 C20.4794269,10.7856102 20.5811359,10.9975843 20.6724077,11.2140983 C20.7644126,11.4325963 20.8456565,11.6554619 20.9158478,11.8818953 C21.0588703,12.3438875 21.1553353,12.818997 21.203806,13.3001469 C21.2286697,13.5468503 21.2411245,13.7946448 21.2411235,14.0425953 L21.2411235,14.0556054 C21.2411235,14.3639685 21.2354883,14.6763973 21.2242179,14.984135 C21.2130214,15.2911305 21.1962383,15.5978972 21.1738769,15.9042831 C21.1552808,16.1587297 20.9437107,16.3527545 20.6934144,16.3527545 L20.6933831,16.3528171 Z M0.484563608,14.6102212 C0.481839934,14.6102212 0.479116259,14.6102212 0.476392585,14.6101587 L0.47542208,14.6101587 C0.457781989,14.6098199 0.440172802,14.6085358 0.422670453,14.6063119 C0.422451307,14.6062494 0.422263467,14.6063119 0.421950401,14.6062181 L0.42123035,14.6061243 C0.184208055,14.5749127 0.0027236745,14.3704423 0.00203492922,14.1264101 L0.00203492922,14.1255657 L0.00197231602,14.1231263 L0.0018470896,14.1171842 L0.0009078915,14.0907263 L0.000751358483,14.0860351 L0.000626132069,14.0812815 L0.000156533017,14.0614849 L9.39198104e-05,14.0572316 L0,14.0425953 C0,13.563444 0.0242626177,13.0802271 0.0721930276,12.6064862 C0.11958784,12.1382391 0.190334753,11.6726452 0.28417004,11.21144 C0.376814513,10.7571847 0.4918709,10.3077797 0.628918357,9.8648688 C0.764589959,9.42718409 0.921634531,8.99639844 1.09948791,8.57405939 C1.27592666,8.15551242 1.47257514,7.74575698 1.6887408,7.34623612 C1.9036806,6.94930142 2.13757006,6.56290243 2.38960174,6.18837313 C2.64074565,5.81550071 2.90955764,5.45481228 3.19512064,5.10753839 C3.48015291,4.76115627 3.78152778,4.42852329 4.09822223,4.11076857 C4.28656276,3.92181013 4.59192737,3.92187268 4.7802679,4.11076857 C4.96860842,4.29966445 4.96860842,4.60596351 4.7802679,4.79489067 C4.48529996,5.0908523 4.20460043,5.40067101 3.93912207,5.7232952 C3.67317618,6.04668919 3.42283501,6.38258056 3.18895324,6.72982255 C2.95429793,7.07849582 2.73652914,7.43821837 2.5363984,7.80774881 C2.33523509,8.17963555 2.15221119,8.56103238 1.98796932,8.9506002 C1.82244915,9.34364065 1.67630176,9.74454492 1.55005255,10.1518717 C1.42248213,10.5640819 1.31539754,10.9823425 1.22919117,11.4051209 C1.14184852,11.8345576 1.07598124,12.2680754 1.03183434,12.7040616 C0.989004988,13.1290316 0.966615885,13.55581 0.964744292,13.9829242 C0.968313245,14.0066613 0.970160335,14.0309301 0.970160335,14.0556054 L0.970066415,14.0650814 L0.968751537,14.1029857 C0.968688924,14.1045494 0.968626311,14.106207 0.968469778,14.1078332 L0.967906259,14.1167776 L0.967593193,14.1214687 C0.967523641,14.1230354 0.967408802,14.1245998 0.96724882,14.1261599 C0.967187947,14.1275909 0.967083544,14.1290197 0.966935754,14.1304444 C0.96686158,14.1318538 0.966757201,14.1332615 0.966622688,14.1346664 C0.966622688,14.1358861 0.966497462,14.1370433 0.966466155,14.138263 C0.966278316,14.1472699 0.965840023,14.1561831 0.965151278,14.1650649 L0.965151278,14.1653151 L0.965119971,14.1658468 C0.945709877,14.4162589 0.736957445,14.6101899 0.484563608,14.6102212 Z M27.5177218,14.5263439 C27.2513026,14.5263439 27.0354435,14.3097704 27.0354435,14.0425953 C27.0354435,13.5961568 27.0127776,13.145809 26.968197,12.7040616 C26.924083,12.2680694 26.858205,11.8345495 26.7708088,11.4051209 C26.6845921,10.9823551 26.5775077,10.5641054 26.4499474,10.151903 C26.3237001,9.74457958 26.1775633,9.34367573 26.012062,8.95063147 C25.8478171,8.56104443 25.6647719,8.17963633 25.4635703,7.80774881 C25.263451,7.43819525 25.0456711,7.07846125 24.8109841,6.72979128 C24.5771113,6.38255872 24.3267914,6.04666791 24.0608779,5.72326392 C23.7953755,5.40065096 23.5146661,5.09083288 23.2197008,4.7948594 C23.0313603,4.60596351 23.031329,4.29966445 23.2197008,4.11073729 C23.4080413,3.9218414 23.7134059,3.9218414 23.9017465,4.11073729 C24.2184361,4.42850749 24.5198107,4.76115064 24.8048481,5.10753839 C25.0904147,5.45478781 25.3592269,5.81545559 25.610367,6.18831059 C25.8624119,6.56283142 26.0963018,6.94923106 26.3112279,7.34617357 C26.5273869,7.74571332 26.7240454,8.15547833 26.9005121,8.57402812 C27.0783364,8.99637498 27.2353702,9.42715971 27.3710503,9.86483753 C27.5081254,10.3077406 27.6231822,10.757147 27.7157987,11.2114088 C27.8096256,11.6726272 27.8803828,12.1382306 27.927807,12.6064862 C27.9758786,13.0836834 27.9999731,13.5629879 28,14.0425953 C28,14.3097704 27.7840784,14.5263127 27.5177218,14.5263127 L27.5177218,14.5263439 Z M18.7803931,9.73151581 C18.6569512,9.73151581 18.5335406,9.68429184 18.4393703,9.58978135 C18.2973116,9.44734819 18.1485409,9.31175656 17.9935643,9.18346755 C17.6825989,8.92603469 17.3474954,8.69917385 16.9929113,8.50603811 C16.8144851,8.40891509 16.6314386,8.32051341 16.4444196,8.24114603 C16.255855,8.16125209 16.0634615,8.09069532 15.8679398,8.02973275 C15.6701291,7.96814982 15.4693724,7.91644178 15.2664147,7.87480059 C15.0603008,7.83260689 14.8521935,7.80079219 14.6428811,7.77947697 C14.21537,7.73635841 13.7845987,7.73635841 13.3570876,7.77947697 C13.1477674,7.80081246 12.9396507,7.832627 12.7335227,7.87480059 C12.5305801,7.9164623 12.3298347,7.96817008 12.1320289,8.02973275 C11.8777254,8.10901273 11.6073928,7.96643386 11.5283437,7.71126804 C11.5139002,7.66469778 11.5065445,7.61622365 11.506523,7.56746948 C11.5065543,7.36121644 11.6391377,7.17019391 11.8458239,7.10580043 C12.0742083,7.03468642 12.3059975,6.97498303 12.5403296,6.92691227 C12.7781387,6.87821969 13.0182513,6.84151992 13.2597554,6.81695235 C13.7519668,6.7672583 14.2479393,6.7672583 14.7401507,6.81695235 C14.9816322,6.84152047 15.2217234,6.87820973 15.4595139,6.926881 C15.6938444,6.97495867 15.9256332,7.03466197 16.1540195,7.10576915 C16.379835,7.17619565 16.6020372,7.25770122 16.8198171,7.34998902 C17.0357348,7.44157098 17.2470642,7.54359321 17.4530557,7.65569387 C17.6578098,7.76726874 17.857067,7.88862789 18.0501353,8.01934973 C18.2424423,8.1496797 18.4284068,8.28911287 18.6073928,8.43717242 C18.7860328,8.58512715 18.9575358,8.74147608 19.121322,8.90569051 C19.2119835,8.99647486 19.2628094,9.11953218 19.2626087,9.24776721 C19.2628114,9.37599344 19.2119845,9.49904178 19.121322,9.58981262 C19.0311187,9.68057312 18.9083587,9.73157629 18.7803305,9.73148454 L18.7803931,9.73148454 L18.7803931,9.73151581 Z M6.82944162,7.33400793 C6.70138456,7.33413673 6.57859368,7.28310291 6.48841879,7.19227346 C6.39776504,7.10149678 6.34693975,6.97845224 6.34713209,6.85022805 C6.34713209,6.72641367 6.39421722,6.6025993 6.48841879,6.50815135 C6.72864453,6.26726327 6.98022813,6.03795115 7.24231311,5.82099565 C7.7684394,5.38538369 8.33543333,5.00152698 8.93540553,4.67476665 C9.23751994,4.51033273 9.54746722,4.36068607 9.86414723,4.22635784 C10.1835055,4.09105003 10.509343,3.97154214 10.840475,3.86826878 C11.1754068,3.7639618 11.515339,3.67641047 11.859004,3.60594118 C12.1201324,3.55249365 12.3747803,3.72128026 12.4280641,3.9830762 C12.4347324,4.01575769 12.4379257,4.04843918 12.4379257,4.08055773 C12.4378944,4.30557527 12.2804535,4.50710591 12.0521031,4.55389205 C11.7398574,4.61795996 11.4310003,4.69752618 11.1266799,4.79229492 C10.8258182,4.88611941 10.5297682,4.99469947 10.2396073,5.11763994 C9.95183487,5.23969339 9.67018988,5.37568888 9.39567522,5.52514216 C9.12267701,5.67387515 8.85701398,5.83566686 8.5996109,6.00995409 C8.34306141,6.18379207 8.09498595,6.3697941 7.8562356,6.56732205 C7.61788414,6.76466902 7.38906639,6.97323235 7.17055838,7.19230474 C7.08033381,7.28307181 6.957552,7.33407466 6.82950424,7.33397665 L6.82944162,7.33397665 L6.82944162,7.33400793 Z M21.5601377,3.28162821 C21.4672197,3.28162821 21.3733939,3.25479498 21.2906192,3.1987517 C20.9431421,2.96342858 20.5845048,2.74498542 20.2159574,2.54418367 C19.8453122,2.34244223 19.4650615,2.15883357 19.0765536,1.99400876 C18.6848224,1.82802786 18.2851361,1.68144511 17.8789508,1.55479454 C17.6245533,1.47551456 17.4824526,1.20439893 17.5614705,0.949264383 C17.6404571,0.694098564 17.9108522,0.551519698 18.1650931,0.630799677 C18.6015544,0.766900575 19.0310381,0.924400495 19.4519824,1.10272665 C19.8693951,1.27980984 20.2779385,1.47707007 20.6761645,1.69380816 C21.0720103,1.90950443 21.4572253,2.14412398 21.8304703,2.39685113 C22.0511818,2.54637286 22.1093182,2.84704257 21.9602674,3.06849485 C21.8708354,3.2017688 21.7207519,3.28170067 21.5601377,3.28159693 L21.5601377,3.28162821 Z M6.43986225,3.28162821 C6.27924254,3.28175424 6.12914915,3.20181713 6.03973255,3.06852612 C5.8906192,2.84710512 5.94878687,2.54640413 6.16952973,2.3968824 C6.54278268,2.14415101 6.92800832,1.90953135 7.32386681,1.69383943 C7.72207172,1.47709992 8.13060581,1.27986002 8.54801762,1.10282048 C8.96896266,0.924478002 9.39844616,0.76695729 9.83490686,0.630830951 C10.2763776,0.493357818 10.7244294,0.377938268 11.1773966,0.285001361 C11.6371575,0.190899379 12.1013626,0.119942623 12.5682551,0.0723996655 C13.0439772,0.0241806021 13.5218353,1.65429222e-05 14,0 C14.4776448,0 14.9593596,0.0243625656 15.4317449,0.0723996655 C15.6967553,0.0993579858 15.8897918,0.336666263 15.8629307,0.602496568 C15.8360384,0.868326873 15.5992665,1.06185134 15.334444,1.03501811 C14.4470693,0.945124629 13.5528681,0.945124629 12.6654934,1.03501811 C12.2307695,1.07927534 11.7985477,1.14533675 11.3704645,1.23295223 C10.9489013,1.3194287 10.5319127,1.42683217 10.1210492,1.55476327 C9.71485635,1.6814218 9.31516001,1.8280044 8.9234151,1.99397748 C8.53489918,2.15876211 8.15465693,2.34237172 7.78404258,2.54415239 C7.41547487,2.74495412 7.05681672,2.96339725 6.70931819,3.19872043 C6.62986152,3.25276318 6.5359561,3.2816532 6.43983094,3.28162821 L6.43986225,3.28162821 Z"></path>
            </g>
        </g>
    </g>
</svg>