<?xml version="1.0" encoding="UTF-8"?>
<svg width="16px" height="19px" viewBox="0 0 16 19" version="1.1" xmlns="http://www.w3.org/2000/svg" xmlns:xlink="http://www.w3.org/1999/xlink">
    <!-- Generator: Sketch 52.4 (67378) - http://www.bohemiancoding.com/sketch -->
    <title>手电筒</title>
    <desc>Created with Sketch.</desc>
    <g id="B03-京麦App-Guideline-数据展示组件" stroke="none" stroke-width="1" fill="none" fill-rule="evenodd">
        <g id="数据展示－图标" transform="translate(-343.000000, -2827.000000)" fill="#666666" fill-rule="nonzero">
            <g id="Group-6" transform="translate(340.000000, 2825.000000)">
                <g id="手电筒" transform="translate(3.500000, 0.000000)">
                    <path d="M10.373369,19.8576688 L10.373369,11.0600993 C10.373369,10.9641023 10.4010038,10.8701347 10.4529724,10.7894211 L13.5680632,5.95130073 L1.42176162,5.95130073 L4.41051964,10.7976435 C4.45917493,10.8765392 4.48494127,10.9674069 4.48494127,11.0600993 L4.48494127,19.8769103 L10.373369,19.8576688 Z M11.373369,11.2071436 L11.373369,20.3560377 C11.373369,20.6315422 11.1505059,20.8551347 10.8750028,20.856035 L3.9865751,20.8785442 C3.70979594,20.8794486 3.48494127,20.6553275 3.48494127,20.3785468 L3.48494127,11.2018786 L0.100395477,5.71375653 C-0.105041605,5.38063538 0.134599226,4.95130073 0.52597385,4.95130073 L14.4846717,4.95130073 C14.880415,4.95130073 15.1193065,5.38924057 14.9050683,5.72197892 L11.373369,11.2071436 Z" id="Path-5"></path>
                    <path d="M4.22222222,3.02777778 C3.94607985,3.02777778 3.72222222,2.80392015 3.72222222,2.52777778 C3.72222222,2.2516354 3.94607985,2.02777778 4.22222222,2.02777778 L10.5555556,2.02777778 C10.8316979,2.02777778 11.0555556,2.2516354 11.0555556,2.52777778 C11.0555556,2.80392015 10.8316979,3.02777778 10.5555556,3.02777778 L4.22222222,3.02777778 Z" id="Line-2"></path>
                    <path d="M6.88888889,14.1388889 C6.88888889,13.8627465 7.11274651,13.6388889 7.38888889,13.6388889 C7.66503126,13.6388889 7.88888889,13.8627465 7.88888889,14.1388889 L7.88888889,16.25 C7.88888889,16.5261424 7.66503126,16.75 7.38888889,16.75 C7.11274651,16.75 6.88888889,16.5261424 6.88888889,16.25 L6.88888889,14.1388889 Z" id="Line"></path>
                </g>
            </g>
        </g>
    </g>
</svg>