<?xml version="1.0" encoding="UTF-8"?>
<svg width="27px" height="22px" viewBox="0 0 27 22" version="1.1" xmlns="http://www.w3.org/2000/svg" xmlns:xlink="http://www.w3.org/1999/xlink">
    <!-- Generator: Sketch 52.4 (67378) - http://www.bohemiancoding.com/sketch -->
    <title>Group 2</title>
    <desc>Created with Sketch.</desc>
    <g id="B03-京麦App-Guideline-数据展示组件" stroke="none" stroke-width="1" fill="none" fill-rule="evenodd">
        <g id="数据展示－图标" transform="translate(-495.000000, -3118.000000)" fill="#666666">
            <g id="插件-3-copy-2" transform="translate(487.000000, 3107.000000)">
                <g id="Group-2" transform="translate(8.000000, 11.000000)">
                    <polygon id="Path-12" fill-rule="nonzero" points="0.9664642 21.180031 0.0335358003 20.819969 8.02151187 0.122947545 8.95444027 0.483009486"></polygon>
                    <path d="M8.02151187,0.483009486 L8.95444027,0.122947545 L16.9424163,20.819969 L16.0094879,21.180031 L8.02151187,0.483009486 Z M8.95444027,0.122947545 L16.9424163,20.819969 L16.0094879,21.180031 L8.02151187,0.483009486 L8.95444027,0.122947545 Z" id="Path-12" fill-rule="nonzero"></path>
                    <path d="M21.3320312,19.4765625 C22.2929736,19.4765625 23.0996061,19.1777374 23.7519531,18.5800781 C24.4043001,17.9824189 24.7304688,17.2460981 24.7304688,16.3710938 L24.7304688,15.375 L21.4726562,15.5742188 C19.7538977,15.6835943 18.8945312,16.3437439 18.8945312,17.5546875 C18.8945312,18.1328154 19.1171853,18.5976545 19.5625,18.9492188 C20.0078147,19.300783 20.5976526,19.4765625 21.3320312,19.4765625 Z M20.875,21.2109375 C19.6640564,21.2109375 18.6855506,20.8750034 17.9394531,20.203125 C17.1933556,19.5312466 16.8203125,18.648443 16.8203125,17.5546875 C16.8203125,16.5078073 17.2050743,15.6718781 17.9746094,15.046875 C18.7441445,14.4218719 19.8320242,14.0703129 21.2382812,13.9921875 L24.7304688,13.7929688 L24.7304688,12.7734375 C24.7304688,12.0312463 24.4960961,11.4492209 24.0273438,11.0273438 C23.5585914,10.6054666 22.902348,10.3945312 22.0585938,10.3945312 C21.2773398,10.3945312 20.6464868,10.5664045 20.1660156,10.9101562 C19.6855445,11.253908 19.3789069,11.7265595 19.2460938,12.328125 L17.2773438,12.328125 C17.3476566,11.2734322 17.8105426,10.3886754 18.6660156,9.67382812 C19.5214887,8.9589808 20.6679616,8.6015625 22.1054688,8.6015625 C23.5351634,8.6015625 24.6699177,8.96093391 25.5097656,9.6796875 C26.3496136,10.3984411 26.7695312,11.3632752 26.7695312,12.5742188 L26.7695312,21 L24.8359375,21 L24.8359375,18.9023438 L24.7890625,18.9023438 C24.4296857,19.5976597 23.8925817,20.1562479 23.1777344,20.578125 C22.4628871,21.0000021 21.6953166,21.2109375 20.875,21.2109375 Z" id="a"></path>
                    <polygon id="Path-13" fill-rule="nonzero" points="4 14 4 13 14.118103 13 14.118103 14"></polygon>
                </g>
            </g>
        </g>
    </g>
</svg>