<?xml version="1.0" encoding="UTF-8"?>
<svg width="30px" height="30px" viewBox="0 0 30 30" version="1.1" xmlns="http://www.w3.org/2000/svg" xmlns:xlink="http://www.w3.org/1999/xlink">
    <!-- Generator: Sketch 52.4 (67378) - http://www.bohemiancoding.com/sketch -->
    <title>icon_dong_emoi</title>
    <desc>Created with Sketch.</desc>
    <g id="B03-京麦App-Guideline-数据展示组件" stroke="none" stroke-width="1" fill="none" fill-rule="evenodd">
        <g id="数据展示－图标" transform="translate(-197.000000, -2987.000000)" fill="#666666">
            <g id="icon_dong_emoi" transform="translate(197.000000, 2987.000000)">
                <g>
                    <path d="M15,29.5 C23.0081289,29.5 29.5,23.0081289 29.5,15 C29.5,6.99187113 23.0081289,0.5 15,0.5 C6.99187113,0.5 0.5,6.99187113 0.5,15 C0.5,23.0081289 6.99187113,29.5 15,29.5 Z M15,30 C6.71572875,30 0,23.2842712 0,15 C0,6.71572875 6.71572875,0 15,0 C23.2842712,0 30,6.71572875 30,15 C30,23.2842712 23.2842712,30 15,30 Z" id="Oval" fill-rule="nonzero"></path>
                    <g id="Group" transform="translate(7.000000, 8.000000)">
                        <path d="M8,15.5 C3.30557963,15.5 -0.5,11.6944204 -0.5,7 C-0.5,6.72385763 -0.276142375,6.5 0,6.5 C1.58928655,6.5 2.90732308,6.50013818 5.58745565,6.50052084 C11.0592661,6.50130207 13.2679146,6.50130207 15.9997617,6.50000006 C16.2759971,6.4998684 16.5,6.72376456 16.5,7 C16.5,11.6944204 12.6944204,15.5 8,15.5 Z M8,14.5 C11.9740424,14.5 15.2261754,11.4091388 15.4835824,7.50023304 C12.9735081,7.50129892 10.7108131,7.50125233 5.58731287,7.50052083 C3.20182275,7.50018024 1.89543232,7.50003333 0.516402616,7.50000515 C0.773698176,11.4090186 4.0258804,14.5 8,14.5 Z" id="Oval-2" fill-rule="nonzero"></path>
                        <circle id="Oval-4" cx="2.5" cy="1.5" r="1.5"></circle>
                        <circle id="Oval-4" cx="13.5" cy="1.5" r="1.5"></circle>
                    </g>
                </g>
            </g>
        </g>
    </g>
</svg>