<?xml version="1.0" encoding="UTF-8"?>
<svg width="30px" height="28px" viewBox="0 0 30 28" version="1.1" xmlns="http://www.w3.org/2000/svg" xmlns:xlink="http://www.w3.org/1999/xlink">
    <!-- Generator: Sketch 52.4 (67378) - http://www.bohemiancoding.com/sketch -->
    <title>图标-扫描历史</title>
    <desc>Created with Sketch.</desc>
    <g id="B03-京麦App-Guideline-数据展示组件" stroke="none" stroke-width="1" fill="none" fill-rule="evenodd">
        <g id="数据展示－图标" transform="translate(-329.000000, -3494.000000)" fill="#666666">
            <g id="图标-扫描历史" transform="translate(329.000000, 3492.000000)">
                <g transform="translate(0.000000, 2.000000)">
                    <polygon id="Rectangle-3" transform="translate(3.053301, 12.348350) rotate(-315.000000) translate(-3.053301, -12.348350) " points="4.89061146 10.511039 4.89061146 14.1856602 1.21599026 14.1856602"></polygon>
                    <path d="M4.77751396,21.3319517 C7.2388746,25.0488335 11.458187,27.5 16.25,27.5 C23.8439153,27.5 30,21.3439153 30,13.75 C30,6.15608469 23.8439153,0 16.25,0 C9.07744681,0 3.18758974,5.49187499 2.55605377,12.5 L3.53233508,12.5 C4.16053877,6.02952988 9.61464155,0.971973115 16.25,0.971973115 C23.3071094,0.971973115 29.0280269,6.69289062 29.0280269,13.75 C29.0280269,20.8071094 23.3071094,26.5280269 16.25,26.5280269 C11.7722169,26.5280269 7.83238297,24.2247927 5.55058334,20.7384096 L4.77751396,21.3319517 Z" id="Combined-Shape"></path>
                    <path d="M16,14 L22.5,14 L22.5,15 L16,15 L15,15 L15,7.5 L16,7.5 L16,14 Z" id="Combined-Shape"></path>
                </g>
            </g>
        </g>
    </g>
</svg>