<?xml version="1.0" encoding="UTF-8"?>
<svg width="25px" height="27px" viewBox="0 0 25 27" version="1.1" xmlns="http://www.w3.org/2000/svg" xmlns:xlink="http://www.w3.org/1999/xlink">
    <!-- Generator: Sketch 52.4 (67378) - http://www.bohemiancoding.com/sketch -->
    <title>icon_dong_yaoping</title>
    <desc>Created with Sketch.</desc>
    <g id="B03-京麦App-Guideline-数据展示组件" stroke="none" stroke-width="1" fill="none" fill-rule="evenodd">
        <g id="数据展示－图标" transform="translate(-260.000000, -3049.000000)" fill="#666666">
            <g id="插件-3" transform="translate(251.000000, 3041.000000)">
                <g id="icon_dong_yaoping" transform="translate(9.000000, 8.000000)">
                    <path d="M4.17867635,1.3081027 C4.24696132,1.20957948 4.33240435,1.12413645 4.43092756,1.05585148 C4.88484656,0.741246982 5.50785795,0.854183699 5.82246244,1.3081027 L6.79616876,2.71298978 L8.43726525,3.210742 C8.55948721,3.24781249 8.6734763,3.30795317 8.77307,3.38791268 C9.20373106,3.73367199 9.27255753,4.36308505 8.92679822,4.79374611 L7.9047632,6.06674348 L7.9521196,7.82337014 C7.95582885,7.96096018 7.93109448,8.09783461 7.87946495,8.22542447 C7.67229996,8.73738258 7.0893355,8.98446622 6.57737738,8.77730123 L5.0005694,8.13924235 L3.42343638,8.77743275 C3.29597796,8.82900908 3.15925267,8.85374623 3.02180282,8.85009865 C2.46971244,8.83544756 2.03403181,8.37601282 2.0486829,7.82392244 L2.09531365,6.06675752 L1.073084,4.79279018 C0.99309726,4.69310563 0.932961176,4.57901206 0.895931242,4.45668598 C0.735917271,3.92808975 1.03471223,3.36986088 1.56330846,3.20984691 L3.20505629,2.71286533 L4.17867635,1.3081027 Z M3.82839567,3.56898521 L1.85303938,4.16695505 L3.10468635,5.72683679 L3.04833097,7.85045059 L5.0005694,7.06047295 L6.95248279,7.85031906 L6.8952368,5.72685083 L8.1470174,4.16769351 L6.17265686,3.56886075 L5.0005694,1.87774453 L3.82839567,3.56898521 Z" id="Page-1" fill-rule="nonzero"></path>
                    <path d="M4.17867635,10.3081027 C4.24696132,10.2095795 4.33240435,10.1241365 4.43092756,10.0558515 C4.88484656,9.74124698 5.50785795,9.8541837 5.82246244,10.3081027 L6.79616876,11.7129898 L8.43726525,12.210742 C8.55948721,12.2478125 8.6734763,12.3079532 8.77307,12.3879127 C9.20373106,12.733672 9.27255753,13.3630851 8.92679822,13.7937461 L7.9047632,15.0667435 L7.9521196,16.8233701 C7.95582885,16.9609602 7.93109448,17.0978346 7.87946495,17.2254245 C7.67229996,17.7373826 7.0893355,17.9844662 6.57737738,17.7773012 L5.0005694,17.1392424 L3.42343638,17.7774328 C3.29597796,17.8290091 3.15925267,17.8537462 3.02180282,17.8500987 C2.46971244,17.8354476 2.03403181,17.3760128 2.0486829,16.8239224 L2.09531365,15.0667575 L1.073084,13.7927902 C0.99309726,13.6931056 0.932961176,13.5790121 0.895931242,13.456686 C0.735917271,12.9280897 1.03471223,12.3698609 1.56330846,12.2098469 L3.20505629,11.7128653 L4.17867635,10.3081027 Z M3.82839567,12.5689852 L1.85303938,13.1669551 L3.10468635,14.7268368 L3.04833097,16.8504506 L5.0005694,16.0604729 L6.95248279,16.8503191 L6.8952368,14.7268508 L8.1470174,13.1676935 L6.17265686,12.5688608 L5.0005694,10.8777445 L3.82839567,12.5689852 Z" id="Page-1-Copy" fill-rule="nonzero"></path>
                    <path d="M4.17867635,19.3081027 C4.24696132,19.2095795 4.33240435,19.1241365 4.43092756,19.0558515 C4.88484656,18.741247 5.50785795,18.8541837 5.82246244,19.3081027 L6.79616876,20.7129898 L8.43726525,21.210742 C8.55948721,21.2478125 8.6734763,21.3079532 8.77307,21.3879127 C9.20373106,21.733672 9.27255753,22.3630851 8.92679822,22.7937461 L7.9047632,24.0667435 L7.9521196,25.8233701 C7.95582885,25.9609602 7.93109448,26.0978346 7.87946495,26.2254245 C7.67229996,26.7373826 7.0893355,26.9844662 6.57737738,26.7773012 L5.0005694,26.1392424 L3.42343638,26.7774328 C3.29597796,26.8290091 3.15925267,26.8537462 3.02180282,26.8500987 C2.46971244,26.8354476 2.03403181,26.3760128 2.0486829,25.8239224 L2.09531365,24.0667575 L1.073084,22.7927902 C0.99309726,22.6931056 0.932961176,22.5790121 0.895931242,22.456686 C0.735917271,21.9280897 1.03471223,21.3698609 1.56330846,21.2098469 L3.20505629,20.7128653 L4.17867635,19.3081027 Z M3.82839567,21.5689852 L1.85303938,22.1669551 L3.10468635,23.7268368 L3.04833097,25.8504506 L5.0005694,25.0604729 L6.95248279,25.8503191 L6.8952368,23.7268508 L8.1470174,22.1676935 L6.17265686,21.5688608 L5.0005694,19.8777445 L3.82839567,21.5689852 Z" id="Page-1-Copy-2" fill-rule="nonzero"></path>
                    <rect id="Rectangle-15" x="11" y="3" width="14" height="1" rx="0.5"></rect>
                    <rect id="Rectangle-15-Copy-2" x="11" y="12" width="14" height="1" rx="0.5"></rect>
                    <rect id="Rectangle-15-Copy-4" x="11" y="21" width="14" height="1" rx="0.5"></rect>
                    <rect id="Rectangle-15-Copy" x="11" y="6" width="10" height="1" rx="0.5"></rect>
                    <rect id="Rectangle-15-Copy-3" x="11" y="15" width="10" height="1" rx="0.5"></rect>
                    <rect id="Rectangle-15-Copy-5" x="11" y="24" width="10" height="1" rx="0.5"></rect>
                </g>
            </g>
        </g>
    </g>
</svg>