<?xml version="1.0" encoding="UTF-8"?>
<svg width="25px" height="27px" viewBox="0 0 25 27" version="1.1" xmlns="http://www.w3.org/2000/svg" xmlns:xlink="http://www.w3.org/1999/xlink">
    <!-- Generator: Sketch 52.4 (67378) - http://www.bohemiancoding.com/sketch -->
    <title>Page 1</title>
    <desc>Created with Sketch.</desc>
    <defs>
        <polygon id="path-1" points="0 0 19.726381 0 19.726381 10 0 10"></polygon>
        <polygon id="path-3" points="0.817759091 0.802083333 20.5885909 0.802083333 20.5885909 10.8854167 0.817759091 10.8854167"></polygon>
    </defs>
    <g id="B03-京麦App-Guideline-数据展示组件" stroke="none" stroke-width="1" fill="none" fill-rule="evenodd">
        <g id="数据展示－图标" transform="translate(-438.000000, -3116.000000)">
            <g id="插件-2-copy" transform="translate(428.000000, 3107.000000)">
                <g id="Page-1" transform="translate(22.500000, 22.000000) rotate(-45.000000) translate(-22.500000, -22.000000) translate(7.000000, 16.000000)">
                    <g id="Group-3" transform="translate(0.000000, 2.000000)">
                        <mask id="mask-2" fill="white">
                            <use xlink:href="#path-1"></use>
                        </mask>
                        <g id="Clip-2"></g>
                        <path d="M18.3073333,3.18181818 C18.5968571,3.73181818 18.774,4.34363636 18.774,5 C18.774,7.25545455 16.8520952,9.09090909 14.4882857,9.09090909 L5.23780952,9.09090909 C2.87495238,9.09090909 0.952095238,7.25545455 0.952095238,5 C0.952095238,2.74454545 2.87495238,0.909090909 5.23780952,0.909090909 L9.83590476,0.909090909 L9.83590476,0 L5.23780952,0 C2.35019048,0 -0.000285714286,2.24272727 -0.000285714286,5 C-0.000285714286,7.75727273 2.35019048,10 5.23780952,10 L14.4882857,10 C17.3768571,10 19.726381,7.75727273 19.726381,5 C19.726381,4.35818182 19.5949524,3.74636364 19.3625714,3.18181818 L18.3073333,3.18181818 Z" id="Fill-1" fill="#666666" mask="url(#mask-2)"></path>
                    </g>
                    <g id="Group-6" transform="translate(10.000000, 0.000000)">
                        <mask id="mask-4" fill="white">
                            <use xlink:href="#path-3"></use>
                        </mask>
                        <g id="Clip-5"></g>
                        <path d="M2.24003182,7.67708333 C1.94985,7.1225 1.77230455,6.50558333 1.77230455,5.84375 C1.77230455,3.5695 3.69857727,1.71875 6.06775909,1.71875 L15.3392591,1.71875 C17.7074864,1.71875 19.6347136,3.5695 19.6347136,5.84375 C19.6347136,8.118 17.7074864,9.96875 15.3392591,9.96875 L10.7307136,9.96875 L10.7307136,10.8854167 L15.3392591,10.8854167 C18.2334409,10.8854167 20.5892591,8.624 20.5892591,5.84375 C20.5892591,3.0635 18.2334409,0.802083333 15.3392591,0.802083333 L6.06775909,0.802083333 C3.17262273,0.802083333 0.817759091,3.0635 0.817759091,5.84375 C0.817759091,6.49091667 0.949486364,7.10783333 1.18239545,7.67708333 L2.24003182,7.67708333 Z" id="Fill-4" fill="#666666" mask="url(#mask-4)"></path>
                    </g>
                </g>
            </g>
        </g>
    </g>
</svg>