<?xml version="1.0" encoding="UTF-8"?>
<svg width="9px" height="8px" viewBox="0 0 9 8" version="1.1" xmlns="http://www.w3.org/2000/svg" xmlns:xlink="http://www.w3.org/1999/xlink">
    <!-- Generator: Sketch 52.4 (67378) - http://www.bohemiancoding.com/sketch -->
    <title>合并形状</title>
    <desc>Created with Sketch.</desc>
    <g id="Page-1" stroke="none" stroke-width="1" fill="none" fill-rule="evenodd">
        <g id="麦头条改版-置顶" transform="translate(-20.000000, -301.000000)" fill="#666666" fill-rule="nonzero">
            <g id="直播" transform="translate(15.000000, 296.000000)">
                <g id="Group-8-Copy">
                    <path d="M6,5 C6.55228475,5 7,5.44771525 7,6 L7,12 C7,12.5522847 6.55228475,13 6,13 C5.44771525,13 5,12.5522847 5,12 L5,6 C5,5.44771525 5.44771525,5 6,5 Z M9.5,7 C10.0522847,7 10.5,7.44771525 10.5,8 L10.5,10 C10.5,10.5522847 10.0522847,11 9.5,11 C8.94771525,11 8.5,10.5522847 8.5,10 L8.5,8 C8.5,7.44771525 8.94771525,7 9.5,7 Z M13,6 C13.5522847,6 14,6.44771525 14,7 L14,11 C14,11.5522847 13.5522847,12 13,12 C12.4477153,12 12,11.5522847 12,11 L12,7 C12,6.44771525 12.4477153,6 13,6 Z" id="合并形状"></path>
                </g>
            </g>
        </g>
    </g>
</svg>