<?xml version="1.0" encoding="UTF-8"?>
<svg width="18px" height="18px" viewBox="0 0 18 18" version="1.1" xmlns="http://www.w3.org/2000/svg" xmlns:xlink="http://www.w3.org/1999/xlink">
    <!-- Generator: Sketch 52.4 (67378) - http://www.bohemiancoding.com/sketch -->
    <title>Combined Shape</title>
    <desc>Created with Sketch.</desc>
    <g id="B03-京麦App-Guideline-数据展示组件" stroke="none" stroke-width="1" fill="none" fill-rule="evenodd">
        <g id="数据展示－图标" transform="translate(-386.000000, -2894.000000)" fill="#666666">
            <g id="Group-4" transform="translate(385.000000, 2892.000000)">
                <path d="M1.5,2 L18.5,2 C18.7761424,2 19,2.22385763 19,2.5 C19,2.77614237 18.7761424,3 18.5,3 L1.5,3 C1.22385763,3 1,2.77614237 1,2.5 C1,2.22385763 1.22385763,2 1.5,2 Z M7.5,10.5 L18.5,10.5 C18.7761424,10.5 19,10.7238576 19,11 C19,11.2761424 18.7761424,11.5 18.5,11.5 L7.5,11.5 C7.22385763,11.5 7,11.2761424 7,11 C7,10.7238576 7.22385763,10.5 7.5,10.5 Z M1.5,19 L18.5,19 C18.7761424,19 19,19.2238576 19,19.5 C19,19.7761424 18.7761424,20 18.5,20 L1.5,20 C1.22385763,20 1,19.7761424 1,19.5 C1,19.2238576 1.22385763,19 1.5,19 Z" id="Combined-Shape"></path>
            </g>
        </g>
    </g>
</svg>