<?xml version="1.0" encoding="UTF-8"?>
<svg width="18px" height="18px" viewBox="0 0 18 18" version="1.1" xmlns="http://www.w3.org/2000/svg" xmlns:xlink="http://www.w3.org/1999/xlink">
    <!-- Generator: Sketch 52.4 (67378) - http://www.bohemiancoding.com/sketch -->
    <title>Group</title>
    <desc>Created with Sketch.</desc>
    <g id="B03-京麦App-Guideline-数据展示组件" stroke="none" stroke-width="1" fill="none" fill-rule="evenodd">
        <g id="数据展示－图标" transform="translate(-134.000000, -2828.000000)" fill="#666666" fill-rule="nonzero">
            <g id="Group" transform="translate(134.000000, 2828.000000)">
                <path d="M1,1 L1,7 L7,7 L7,1 L1,1 Z M0.5,0 L7.5,0 C7.77614237,-5.07265313e-17 8,0.223857625 8,0.5 L8,7.5 C8,7.77614237 7.77614237,8 7.5,8 L0.5,8 C0.223857625,8 3.38176876e-17,7.77614237 0,7.5 L0,0.5 C-3.38176876e-17,0.223857625 0.223857625,5.07265313e-17 0.5,0 Z" id="Rectangle-6"></path>
                <path d="M11,1 L11,7 L17,7 L17,1 L11,1 Z M10.5,0 L17.5,0 C17.7761424,-5.07265313e-17 18,0.223857625 18,0.5 L18,7.5 C18,7.77614237 17.7761424,8 17.5,8 L10.5,8 C10.2238576,8 10,7.77614237 10,7.5 L10,0.5 C10,0.223857625 10.2238576,5.07265313e-17 10.5,0 Z" id="Rectangle-6"></path>
                <path d="M1,11 L1,17 L7,17 L7,11 L1,11 Z M0.5,10 L7.5,10 C7.77614237,10 8,10.2238576 8,10.5 L8,17.5 C8,17.7761424 7.77614237,18 7.5,18 L0.5,18 C0.223857625,18 3.38176876e-17,17.7761424 0,17.5 L0,10.5 C-3.38176876e-17,10.2238576 0.223857625,10 0.5,10 Z" id="Rectangle-6"></path>
                <path d="M11,11 L11,17 L17,17 L17,11 L11,11 Z M10.5,10 L17.5,10 C17.7761424,10 18,10.2238576 18,10.5 L18,17.5 C18,17.7761424 17.7761424,18 17.5,18 L10.5,18 C10.2238576,18 10,17.7761424 10,17.5 L10,10.5 C10,10.2238576 10.2238576,10 10.5,10 Z" id="Rectangle-6"></path>
            </g>
        </g>
    </g>
</svg>