<?xml version="1.0" encoding="UTF-8"?>
<svg width="17px" height="5px" viewBox="0 0 17 5" version="1.1" xmlns="http://www.w3.org/2000/svg" xmlns:xlink="http://www.w3.org/1999/xlink">
    <!-- Generator: Sketch 52.4 (67378) - http://www.bohemiancoding.com/sketch -->
    <title>展开</title>
    <desc>Created with Sketch.</desc>
    <g id="B03-京麦App-Guideline-数据展示组件" stroke="none" stroke-width="1" fill="none" fill-rule="evenodd">
        <g id="数据展示－图标" transform="translate(-254.000000, -2682.000000)" fill="#666666" fill-rule="nonzero">
            <g id="展开" transform="translate(255.000000, 2683.000000)">
                <path d="M1.5,3.5 C0.3954305,3.5 -0.5,2.6045695 -0.5,1.5 C-0.5,0.3954305 0.3954305,-0.5 1.5,-0.5 C2.6045695,-0.5 3.5,0.3954305 3.5,1.5 C3.5,2.6045695 2.6045695,3.5 1.5,3.5 Z M1.5,2.5 C2.05228475,2.5 2.5,2.05228475 2.5,1.5 C2.5,0.94771525 2.05228475,0.5 1.5,0.5 C0.94771525,0.5 0.5,0.94771525 0.5,1.5 C0.5,2.05228475 0.94771525,2.5 1.5,2.5 Z" id="Oval-3"></path>
                <path d="M7.5,3.5 C6.3954305,3.5 5.5,2.6045695 5.5,1.5 C5.5,0.3954305 6.3954305,-0.5 7.5,-0.5 C8.6045695,-0.5 9.5,0.3954305 9.5,1.5 C9.5,2.6045695 8.6045695,3.5 7.5,3.5 Z M7.5,2.5 C8.05228475,2.5 8.5,2.05228475 8.5,1.5 C8.5,0.94771525 8.05228475,0.5 7.5,0.5 C6.94771525,0.5 6.5,0.94771525 6.5,1.5 C6.5,2.05228475 6.94771525,2.5 7.5,2.5 Z" id="Oval-3"></path>
                <path d="M13.5,3.5 C12.3954305,3.5 11.5,2.6045695 11.5,1.5 C11.5,0.3954305 12.3954305,-0.5 13.5,-0.5 C14.6045695,-0.5 15.5,0.3954305 15.5,1.5 C15.5,2.6045695 14.6045695,3.5 13.5,3.5 Z M13.5,2.5 C14.0522847,2.5 14.5,2.05228475 14.5,1.5 C14.5,0.94771525 14.0522847,0.5 13.5,0.5 C12.9477153,0.5 12.5,0.94771525 12.5,1.5 C12.5,2.05228475 12.9477153,2.5 13.5,2.5 Z" id="Oval-3"></path>
            </g>
        </g>
    </g>
</svg>