<?xml version="1.0" encoding="UTF-8"?>
<svg width="20px" height="20px" viewBox="0 0 20 20" version="1.1" xmlns="http://www.w3.org/2000/svg" xmlns:xlink="http://www.w3.org/1999/xlink">
    <!-- Generator: Sketch 52.4 (67378) - http://www.bohemiancoding.com/sketch -->
    <title>icon_mq_loading</title>
    <desc>Created with Sketch.</desc>
    <g id="B03-京麦App-Guideline-数据展示组件" stroke="none" stroke-width="1" fill="none" fill-rule="evenodd">
        <g id="数据展示－图标" transform="translate(-136.000000, -2894.000000)" fill="#666666">
            <g id="icon_mq_loading" transform="translate(136.000000, 2894.000000)">
                <g>
                    <path d="M5,20 L2,20 C0.8954305,20 1.3527075e-16,19.1045695 0,18 L0,12 C-1.3527075e-16,10.8954305 0.8954305,10 2,10 L5,10 L5,2 C5,0.8954305 5.8954305,2.02906125e-16 7,0 L18,0 C19.1045695,-2.02906125e-16 20,0.8954305 20,2 L20,18 C20,19.1045695 19.1045695,20 18,20 L5,20 Z M2,11 C1.44771525,11 1,11.4477153 1,12 L1,18 C1,18.5522847 1.44771525,19 2,19 L3,19 C4.1045695,19 5,18.1045695 5,17 L5,11 L2,11 Z M7,1 C6.44771525,1 6,1.44771525 6,2 L6,18 C6,18.5522847 6.44771525,19 7,19 L18,19 C18.5522847,19 19,18.5522847 19,18 L19,2 C19,1.44771525 18.5522847,1 18,1 L7,1 Z" id="Combined-Shape"></path>
                    <g id="Group-3" transform="translate(7.000000, 3.500000)">
                        <rect id="Rectangle" x="0" y="0" width="11" height="1" rx="0.5"></rect>
                        <rect id="Rectangle-Copy-2" x="0" y="6" width="11" height="1" rx="0.5"></rect>
                        <rect id="Rectangle-Copy-4" x="0" y="12" width="11" height="1" rx="0.5"></rect>
                        <rect id="Rectangle-Copy" x="0" y="3" width="6" height="1" rx="0.5"></rect>
                        <rect id="Rectangle-Copy-3" x="0" y="9" width="6" height="1" rx="0.5"></rect>
                    </g>
                </g>
            </g>
        </g>
    </g>
</svg>