<?xml version="1.0" encoding="UTF-8"?>
<svg width="24px" height="24px" viewBox="0 0 24 24" version="1.1" xmlns="http://www.w3.org/2000/svg" xmlns:xlink="http://www.w3.org/1999/xlink">
    <!-- Generator: Sketch 52.4 (67378) - http://www.bohemiancoding.com/sketch -->
    <title>Group 10</title>
    <desc>Created with Sketch.</desc>
    <g id="B03-京麦App-Guideline-数据展示组件" stroke="none" stroke-width="1" fill="none" fill-rule="evenodd">
        <g id="数据展示－图标" transform="translate(-502.000000, -3050.000000)" fill="#666666">
            <g id="插件-7" transform="translate(491.000000, 3041.000000)">
                <g id="icon_dong_beizhu">
                    <g id="Group-11" transform="translate(22.000000, 21.500000) rotate(-45.000000) translate(-22.000000, -21.500000) translate(6.000000, 17.000000)">
                        <g id="Group-10" transform="translate(15.960155, 4.914214) rotate(90.000000) translate(-15.960155, -4.914214) translate(11.960155, -10.585786)">
                            <path d="M1,23.7339502 L4.00659458,28.9844347 L7,23.7349213 L7,4 C7,2.34314575 5.65685425,1 4,1 C2.34314575,1 1,2.34314575 1,4 L1,23.7339502 Z M8,4 L8,23.8674606 C8,23.9543203 7.97737252,24.0396817 7.93434653,24.115136 L4.52854172,30.0878713 C4.36439692,30.3757309 3.99797499,30.4760215 3.71011543,30.3118767 C3.6170483,30.2588074 3.53988808,30.1817871 3.4866501,30.0888164 L0.0661035086,24.1154381 C0.0227878957,24.039795 1.95363153e-13,23.9541423 1.94733119e-13,23.8669751 L0,4 C-1.79295278e-14,1.790861 1.790861,-1.34655354e-14 4,-3.15303339e-14 C6.209139,3.15686109e-14 8,1.790861 8,4 Z" id="Rectangle-19" fill-rule="nonzero"></path>
                            <rect id="Rectangle-6" x="0" y="4" width="8" height="1"></rect>
                            <polygon id="Rectangle-6-Copy" points="1.88293825e-13 23 8 23 8 24 1.90070182e-13 24"></polygon>
                            <polygon id="Rectangle-9" points="3.5 4 4.5 4 4.5 24 3.5 24"></polygon>
                        </g>
                    </g>
                </g>
            </g>
        </g>
    </g>
</svg>