<?xml version="1.0" encoding="UTF-8"?>
<svg width="17px" height="17px" viewBox="0 0 17 17" version="1.1" xmlns="http://www.w3.org/2000/svg" xmlns:xlink="http://www.w3.org/1999/xlink">
    <!-- Generator: Sketch 52.4 (67378) - http://www.bohemiancoding.com/sketch -->
    <title>icon_login_user</title>
    <desc>Created with Sketch.</desc>
    <g id="B03-京麦App-Guideline-数据展示组件" stroke="none" stroke-width="1" fill="none" fill-rule="evenodd">
        <g id="数据展示－图标" transform="translate(-134.000000, -2765.000000)" fill="#666666" fill-rule="nonzero">
            <g id="icon_login_user" transform="translate(134.000000, 2766.000000)">
                <path d="M16.5,15 C16.5,15.2761424 16.2761424,15.5 16,15.5 C15.7238576,15.5 15.5,15.2761424 15.5,15 C15.5,11.9900414 12.3874483,9.5 8.5,9.5 C4.70746512,9.5 1.38362289,12.2234476 1.49955804,14.9789818 C1.51116607,15.2548801 1.29691648,15.48795 1.02101819,15.499558 C0.745119902,15.5111661 0.512049985,15.2969165 0.50044196,15.0210182 C0.358027988,11.6361383 4.18554025,8.5 8.5,8.5 C12.896823,8.5 16.5,11.3825416 16.5,15 Z" id="Oval"></path>
                <path d="M8.5,8.5 C6.01471863,8.5 4,6.48528137 4,4 C4,1.51471863 6.01471863,-0.5 8.5,-0.5 C10.9852814,-0.5 13,1.51471863 13,4 C13,6.48528137 10.9852814,8.5 8.5,8.5 Z M8.5,7.5 C10.4329966,7.5 12,5.93299662 12,4 C12,2.06700338 10.4329966,0.5 8.5,0.5 C6.56700338,0.5 5,2.06700338 5,4 C5,5.93299662 6.56700338,7.5 8.5,7.5 Z" id="Oval-47-Copy-2"></path>
            </g>
        </g>
    </g>
</svg>