<?xml version="1.0" encoding="UTF-8"?>
<svg width="26px" height="20px" viewBox="0 0 26 20" version="1.1" xmlns="http://www.w3.org/2000/svg" xmlns:xlink="http://www.w3.org/1999/xlink">
    <!-- Generator: Sketch 52.4 (67378) - http://www.bohemiancoding.com/sketch -->
    <title>Group 12</title>
    <desc>Created with Sketch.</desc>
    <g id="B03-京麦App-Guideline-数据展示组件" stroke="none" stroke-width="1" fill="none" fill-rule="evenodd">
        <g id="数据展示－图标" transform="translate(-146.000000, -3053.000000)" fill="#666666" fill-rule="nonzero">
            <g id="插件-1" transform="translate(137.000000, 3041.000000)">
                <g id="icon_dong_pic">
                    <g id="Group-12" transform="translate(9.000000, 12.000000)">
                        <path d="M1,1 L1,19 L25,19 L25,1 L1,1 Z M0.5,0 L25.5,0 C25.7761424,1.77635684e-15 26,0.223857625 26,0.5 L26,19.5 C26,19.7761424 25.7761424,20 25.5,20 L0.5,20 C0.223857625,20 1.77635684e-15,19.7761424 0,19.5 L0,0.5 C0,0.223857625 0.223857625,0 0.5,0 Z" id="Rectangle-8"></path>
                        <path d="M21,6 C21.5522847,6 22,5.55228475 22,5 C22,4.44771525 21.5522847,4 21,4 C20.4477153,4 20,4.44771525 20,5 C20,5.55228475 20.4477153,6 21,6 Z M21,7 C19.8954305,7 19,6.1045695 19,5 C19,3.8954305 19.8954305,3 21,3 C22.1045695,3 23,3.8954305 23,5 C23,6.1045695 22.1045695,7 21,7 Z" id="Oval-5"></path>
                        <path d="M10.5,6.88679623 L4.80424764,16 L21.1957524,16 L18,10.8867962 L16.7719975,12.8516003 C16.332932,13.5541051 15.4075064,13.7676648 14.7050016,13.3285993 C14.5118479,13.2078783 14.3487236,13.044754 14.2280025,12.8516003 L10.5,6.88679623 Z M15.0760008,12.3216014 C15.1162412,12.3859859 15.170616,12.4403607 15.2350005,12.480601 C15.4691688,12.6269562 15.777644,12.5557696 15.9239992,12.3216014 L17.5760008,9.67839864 C17.6162412,9.61401408 17.670616,9.55963931 17.7350005,9.51939896 C17.9691688,9.3730438 18.277644,9.44423038 18.4239992,9.67839864 L22.5218753,16.2350005 C22.5715415,16.3144663 22.5978762,16.4062901 22.5978762,16.5 C22.5978762,16.7761424 22.3740186,17 22.0978762,17 L3.90212382,17 C3.80841396,17 3.71659015,16.9736653 3.63712435,16.9239992 C3.40295609,16.777644 3.3317695,16.4691688 3.47812467,16.2350005 L10.0760008,5.67839864 C10.1162412,5.61401408 10.170616,5.55963931 10.2350005,5.51939896 C10.4691688,5.3730438 10.777644,5.44423038 10.9239992,5.67839864 L15.0760008,12.3216014 Z" id="Combined-Shape"></path>
                    </g>
                </g>
            </g>
        </g>
    </g>
</svg>