<?xml version="1.0" encoding="UTF-8"?>
<svg width="40px" height="40px" viewBox="0 0 40 40" version="1.1" xmlns="http://www.w3.org/2000/svg" xmlns:xlink="http://www.w3.org/1999/xlink">
    <!-- Generator: Sketch 52.4 (67378) - http://www.bohemiancoding.com/sketch -->
    <title>合并形状</title>
    <desc>Created with Sketch.</desc>
    <g id="B03-京麦App-Guideline-数据展示组件" stroke="none" stroke-width="1" fill="none" fill-rule="evenodd">
        <g id="数据展示－图标" transform="translate(-149.000000, -3240.000000)" fill="#666666" fill-rule="nonzero">
            <g id="Group-11" transform="translate(149.000000, 3240.000000)">
                <path d="M20,38 C29.9411255,38 38,29.9411255 38,20 C38,10.0588745 29.9411255,2 20,2 C10.0588745,2 2,10.0588745 2,20 C2,29.9411255 10.0588745,38 20,38 Z M20,40 C8.954305,40 0,31.045695 0,20 C0,8.954305 8.954305,0 20,0 C31.045695,0 40,8.954305 40,20 C40,31.045695 31.045695,40 20,40 Z M27.572436,21.7012424 L17.0512776,28.2020985 C16.1116117,28.7827031 14.8791889,28.4916264 14.2985843,27.5519605 C14.1033883,27.23605 14,26.872033 14,26.5006828 L14,13.4989705 C14,12.394401 14.8954305,11.4989705 16,11.4989705 C16.3713501,11.4989705 16.7353672,11.6023588 17.0512776,11.7975548 L27.572436,18.298411 C28.5121019,18.8790156 28.8031786,20.1114384 28.222574,21.0511043 C28.0592913,21.3153655 27.8366971,21.5379596 27.572436,21.7012424 Z" id="合并形状"></path>
            </g>
        </g>
    </g>
</svg>