<?xml version="1.0" encoding="UTF-8"?>
<svg width="16px" height="16px" viewBox="0 0 16 16" version="1.1" xmlns="http://www.w3.org/2000/svg" xmlns:xlink="http://www.w3.org/1999/xlink">
    <!-- Generator: Sketch 52.4 (67378) - http://www.bohemiancoding.com/sketch -->
    <title>icon_mq_news</title>
    <desc>Created with Sketch.</desc>
    <g id="B03-京麦App-Guideline-数据展示组件" stroke="none" stroke-width="1" fill="none" fill-rule="evenodd">
        <g id="数据展示－图标" transform="translate(-351.000000, -2766.000000)" fill="#666666" fill-rule="nonzero">
            <g id="Group-6" transform="translate(351.000000, 2766.000000)">
                <g id="icon_mq_news">
                    <path d="M5,6.65063933 L5,15 L12.3057458,15 C12.794585,15 13.2117751,14.646587 13.2921397,14.164399 L14.6254731,6.16439899 C14.6345283,6.11006756 14.6390792,6.05508086 14.6390792,6 C14.6390792,5.44771525 14.1913639,5 13.6390792,5 L9.33315783,5 L9.9309304,1.68674174 C9.93709549,1.65257067 9.94019651,1.61791729 9.94019651,1.58319452 C9.94019651,1.26110508 9.67909143,1 9.35700198,1 L8.058437,1 L5,6.65063933 Z M10.678106,3.17755176 L10.5297212,4 L11.3654479,4 L11.5138327,4.17755176 L11.5458663,4 L13.6390792,4 C14.7436487,4 15.6390792,4.8954305 15.6390792,6 C15.6390792,6.11016172 15.6299775,6.22013512 15.611867,6.32879797 L14.2785337,14.328798 C14.1178043,15.2931739 13.2834241,16 12.3057458,16 L4.5,16 C4.22385763,16 4,15.7761424 4,15.5 L4,6 L4.21507914,6 L7.32080141,0.261998381 C7.40817339,0.100573598 7.57696985,0 7.76052318,0 L9.35700198,0 C10.2313762,0 10.9401965,0.708820332 10.9401965,1.58319452 C10.9401965,1.67745619 10.9317782,1.77152952 10.9150419,1.8642935 L10.7101396,3 L10.5297212,3 L10.678106,3.17755176 Z" id="Combined-Shape"></path>
                    <path d="M4,15 L4,7 L2,7 C1.44771525,7 1,7.44771525 1,8 L1,14 C1,14.5522847 1.44771525,15 2,15 L4,15 Z M2,6 L5,6 L5,16 L2,16 C0.8954305,16 1.3527075e-16,15.1045695 0,14 L0,8 C-1.3527075e-16,6.8954305 0.8954305,6 2,6 Z" id="Rectangle-6"></path>
                </g>
            </g>
        </g>
    </g>
</svg>