<?xml version="1.0" encoding="UTF-8"?>
<svg width="16px" height="16px" viewBox="0 0 16 16" version="1.1" xmlns="http://www.w3.org/2000/svg" xmlns:xlink="http://www.w3.org/1999/xlink">
    <!-- Generator: Sketch 52.4 (67378) - http://www.bohemiancoding.com/sketch -->
    <title>合并形状</title>
    <desc>Created with Sketch.</desc>
    <g id="B03-京麦App-Guideline-数据展示组件" stroke="none" stroke-width="1" fill="none" fill-rule="evenodd">
        <g id="数据展示－图标" transform="translate(-318.000000, -2766.000000)" fill="#666666">
            <g id="点赞" transform="translate(318.000000, 2766.000000)">
                <g id="icon_news_zannactive">
                    <path d="M4.5,16 L2,16 C0.8954305,16 -4.45730296e-13,15.1045695 -4.45865567e-13,14 L-4.45865567e-13,8 C-4.46000837e-13,6.8954305 0.8954305,6 2,6 L4,6 L4.21507914,6 L7.32080141,0.261998381 C7.40817339,0.100573598 7.57696985,0 7.76052318,0 L9.35700198,0 C10.2313762,0 10.9401965,0.708820332 10.9401965,1.58319452 C10.9401965,1.67745619 10.9317782,1.77152952 10.9150419,1.8642935 L10.5297212,4 L13.6390792,4 C14.7436487,4 15.6390792,4.8954305 15.6390792,6 C15.6390792,6.11016172 15.6299775,6.22013512 15.611867,6.32879797 L14.2785337,14.328798 C14.1178043,15.2931739 13.2834241,16 12.3057458,16 L4.5,16 Z M4.5,7 C4.22385763,7 4,7.22385763 4,7.5 L4,14.5 C4,14.7761424 4.22385763,15 4.5,15 C4.77614237,15 5,14.7761424 5,14.5 L5,7.5 C5,7.22385763 4.77614237,7 4.5,7 Z" id="合并形状"></path>
                </g>
            </g>
        </g>
    </g>
</svg>