<?xml version="1.0" encoding="UTF-8"?>
<svg width="16px" height="16px" viewBox="0 0 16 16" version="1.1" xmlns="http://www.w3.org/2000/svg" xmlns:xlink="http://www.w3.org/1999/xlink">
    <!-- Generator: Sketch 52.4 (67378) - http://www.bohemiancoding.com/sketch -->
    <title>分组 2</title>
    <desc>Created with Sketch.</desc>
    <g id="B03-京麦App-Guideline-数据展示组件" stroke="none" stroke-width="1" fill="none" fill-rule="evenodd">
        <g id="数据展示－图标" transform="translate(-225.000000, -2620.000000)" fill="#666666">
            <g id="分组-2" transform="translate(226.000000, 2621.000000)">
                <path d="M7.00015652,5.16253706e-15 L7.00015652,0.3 C3.29979734,0.3 0.3,3.29948765 0.3,6.99956959 C0.3,10.6998905 3.29993851,13.7 7.00015652,13.7 C10.6998543,13.7 13.7,10.6997064 13.7,6.99956959 C13.7,3.29967169 10.6999954,0.3 7.00015652,0.3 L7.00015652,5.16253706e-15 Z M7.00015652,5.32907052e-15 L7.00015652,-0.3 C11.0313514,-0.3 14.3,2.96828594 14.3,6.99956959 C14.3,11.0310707 11.0312317,14.3 7.00015652,14.3 C2.96856001,14.3 -0.3,11.0312537 -0.3,6.99956959 C-0.3,2.96810293 2.96844036,-0.3 7.00015652,-0.3 L7.00015652,5.32907052e-15 Z" id="Path" fill-rule="nonzero"></path>
                <path d="M8.59216569,3.6375662 C8.9927163,3.97636077 9.19294269,4.44942495 9.19294269,5.05736525 C9.19294269,5.41625232 9.11399863,5.74135189 8.95503445,6.03060971 C8.78812695,6.32849537 8.51971715,6.6364175 8.14645947,6.95371092 C7.80837933,7.22929331 7.58017524,7.49272628 7.46245371,7.74111433 C7.34506477,8.00376473 7.28621379,8.37624897 7.28621379,8.85933006 C7.28621379,8.95691667 7.25213187,9.03585852 7.18250066,9.09838595 C7.12006932,9.15363546 7.04822729,9.18090806 6.96499853,9.18090806 C6.87527426,9.18090806 6.79993013,9.15363546 6.73747921,9.09838595 C6.6749696,9.03593678 6.64341155,8.95691667 6.64341155,8.85933006 C6.64341155,8.36981232 6.70944282,7.96571221 6.84080104,7.64779273 C6.97180709,7.31619782 7.2036698,7.01616009 7.53490225,6.74623178 C7.9289769,6.41463687 8.20171052,6.11099932 8.35386615,5.83396917 C8.48524393,5.59209603 8.55059044,5.31643539 8.55059044,5.00493299 C8.54341015,4.65324557 8.43361236,4.36612026 8.21859497,4.14510264 C7.96380228,3.87585908 7.58733597,3.74098297 7.0894895,3.74098297 C6.50201657,3.74098297 6.0770882,3.94196677 5.81472393,4.34174318 C5.63566667,4.62526866 5.5459424,4.95970039 5.5459424,5.34807082 C5.5459424,5.44420967 5.51070615,5.52675135 5.44254231,5.5956763 C5.3800914,5.65881021 5.30727113,5.68899789 5.22472714,5.68899789 C5.13423984,5.69617798 5.05850441,5.67248564 4.99644479,5.61647312 C4.93438518,5.55480652 4.90351189,5.46866502 4.90351189,5.35740298 C4.90351189,4.67410109 5.13103121,4.12851214 5.58720461,3.72087089 C6.0016658,3.35411898 6.50201657,3.17177993 7.0894895,3.17177993 L7.20359154,3.17177993 C7.76960186,3.17177993 8.23258381,3.32684638 8.59216569,3.6375662" id="Path"></path>
                <path d="M7.46955574,10.9651211 C7.46955574,11.222137 7.26144472,11.4309856 7.00481295,11.4309856 C6.74710511,11.4309856 6.53862236,11.222137 6.53862236,10.9651211 C6.53862236,10.7081835 6.74710511,10.5 7.00481295,10.5 C7.26144472,10.5 7.46955574,10.7081835 7.46955574,10.9651211" id="Path"></path>
            </g>
        </g>
    </g>
</svg>