<?xml version="1.0" encoding="UTF-8"?>
<svg width="19px" height="19px" viewBox="0 0 19 19" version="1.1" xmlns="http://www.w3.org/2000/svg" xmlns:xlink="http://www.w3.org/1999/xlink">
    <!-- Generator: Sketch 52.4 (67378) - http://www.bohemiancoding.com/sketch -->
    <title>Fill 1</title>
    <desc>Created with Sketch.</desc>
    <g id="B03-京麦App-Guideline-数据展示组件" stroke="none" stroke-width="1" fill="none" fill-rule="evenodd">
        <g id="数据展示－图标" transform="translate(-347.000000, -2893.000000)" fill="#666666">
            <g id="Group-8" transform="translate(346.000000, 2892.000000)">
                <g id="Group-5-Copy-2">
                    <path d="M19.2342005,14.3605353 C19.7290647,13.2273424 19.9799995,12.0233422 19.9799995,10.7819484 C19.9799995,10.5443046 19.7807383,10.3509731 19.5350278,10.3509731 C19.2896735,10.3509731 19.0898423,10.5443046 19.0898423,10.7819484 C19.0898423,11.9081995 18.8626783,12.9989313 18.4141682,14.024849 C17.980975,15.0165896 17.3608689,15.9066547 16.5708054,16.6718816 C15.7831641,17.4356738 14.8631569,18.0362161 13.8373091,18.4569868 C12.7773132,18.891109 11.6513718,19.1116758 10.4898098,19.1116758 C9.32917396,19.1116758 8.20275758,18.891109 7.14231044,18.4569868 C6.11693766,18.0362161 5.19681169,17.4356738 4.40881417,16.6718816 C3.61875065,15.9070943 2.99809841,15.0165896 2.56488144,14.024849 C2.11649012,12.9979363 1.88920734,11.907297 1.88920734,10.7819484 C1.88920734,9.65840461 2.11649012,8.56769595 2.56488144,7.5407832 C2.99762347,6.55001452 3.61772953,5.65904697 4.40881417,4.89291762 C5.19923389,4.12732049 6.11878993,3.52668563 7.14231044,3.10781241 C8.20230639,2.67403728 9.32824782,2.45495145 10.4898098,2.45495145 C11.8862536,2.45495145 13.223781,2.77346818 14.465038,3.40231023 C14.7574114,3.5566977 15.0078712,3.70374993 15.2308795,3.85399541 L15.3266988,3.91924911 L15.2114782,3.93813104 L13.3395478,4.24329621 C13.097993,4.2830732 12.934281,4.50586137 12.9746272,4.74079783 C13.0111739,4.94840641 13.1957595,5.09909155 13.4140422,5.09909155 C13.4382404,5.09909155 13.4629136,5.09728666 13.4875867,5.09358432 L16.5366809,4.59608271 C16.6548461,4.57717765 16.7572671,4.51372884 16.8256347,4.4208233 C16.8949286,4.32699218 16.9220002,4.21328414 16.9020764,4.09948354 L16.4285132,1.37858935 C16.3918716,1.16915274 16.2092332,1.01749574 15.993824,1.01749574 C15.9682247,1.01749574 15.9421742,1.02029563 15.9155538,1.02490041 C15.6735241,1.0646774 15.5093372,1.28748871 15.5502533,1.52140702 L15.7134191,2.45865379 L15.8049639,3.07636568 L15.8201857,3.17850392 L15.7315143,3.1216499 C14.1741369,2.12023699 12.3611941,1.59082585 10.4898098,1.59082585 C9.20820661,1.59082585 7.96547731,1.83450909 6.79584135,2.31393867 C5.66379693,2.77807297 4.64925279,3.44118477 3.78006419,4.28351285 C2.90930829,5.12602606 2.22510901,6.10846448 1.74589405,7.2047035 C1.25100605,8.33882207 1,9.54279912 1,10.7814856 C1,12.0223472 1.25055486,13.2258846 1.74589405,14.3600957 C2.22418288,15.4544373 2.90838215,16.4378707 3.77951801,17.2802913 C4.64970399,18.1236144 5.66472307,18.7866337 6.79584135,19.2508605 C7.96927684,19.7302901 9.21200614,19.9735337 10.4898098,19.9735337 C11.7675185,19.9735337 13.0102478,19.7307298 14.1836832,19.2508605 C15.3149203,18.7866337 16.3293457,18.1236144 17.1995554,17.2802913 C18.0716174,16.4387731 18.7559117,15.4553397 19.2342005,14.3605353 Z" id="Fill-1"></path>
                </g>
            </g>
        </g>
    </g>
</svg>