<?xml version="1.0" encoding="UTF-8"?>
<svg width="15px" height="16px" viewBox="0 0 15 16" version="1.1" xmlns="http://www.w3.org/2000/svg" xmlns:xlink="http://www.w3.org/1999/xlink">
    <!-- Generator: Sketch 52.4 (67378) - http://www.bohemiancoding.com/sketch -->
    <title>Group 8</title>
    <desc>Created with Sketch.</desc>
    <g id="B03-京麦App-Guideline-数据展示组件" stroke="none" stroke-width="1" fill="none" fill-rule="evenodd">
        <g id="数据展示－图标" transform="translate(-166.000000, -2766.000000)" fill="#666666" fill-rule="nonzero">
            <g id="验证码" transform="translate(164.000000, 2765.000000)">
                <g id="Group-8">
                    <path d="M9.50519298,17 C8.1557132,17 6.32872134,16.1510194 4.74048552,14.7889216 C2.996541,13.296209 2,11.5422746 2,9.99358472 L2,3.6309056 C2,3.3976705 2.20761158,3.20175223 2.46713058,3.20175223 L3.16263119,3.19242201 C3.22491557,3.19242201 4.67820114,3.1551052 6.17301267,2.60466715 C7.750867,2.03556866 8.7993109,1.36384999 8.8096924,1.35451976 L9.22491556,1.08396381 C9.3079629,1.02798657 9.40138722,1 9.50519301,1 C9.6089988,1 9.70242764,1.02798657 9.78547046,1.08396381 L10.2006936,1.35451976 C10.242215,1.38250634 11.259519,2.03556866 12.8269919,2.60466715 C14.3218034,3.1551052 15.7750889,3.19242201 15.8373733,3.19242201 L16.5328739,3.20175223 C16.7923884,3.20175223 17,3.39767052 17,3.6309056 L17,9.99358878 C17,11.5516089 16.0034635,13.296213 14.2595145,14.7889257 C12.6920506,16.1603496 10.8650588,17 9.50519298,17 Z M3.00000454,9.90525913 C3.00000454,11.1983461 3.89273976,12.6931921 5.43945417,14.0046222 C6.80969691,15.1601472 8.46021714,15.9396688 9.53980096,15.9396688 C10.6193848,15.9396688 12.269905,15.1601472 13.6401478,14.0046222 C15.1972437,12.6931921 16.0795974,11.1983461 16.0795974,9.90525913 L16.0795974,4.06343693 L15.8512228,4.06343693 C15.778557,4.06343693 14.1487997,4.01758295 12.4982795,3.42147727 C10.8581408,2.83454318 9.78893395,2.16507272 9.67474667,2.09170795 L9.53979642,2 L9.40485071,2.09170795 C9.3633293,2.11921873 8.26298251,2.81620398 6.58131785,3.42147727 C4.92041616,4.01758297 3.29065892,4.05426535 3.22837454,4.06343693 L3,4.06343693 L3.00000002,9.90525913 L3.00000454,9.90525913 Z M8.63667975,11.2398706 C8.49135255,11.2398706 8.3564023,11.1883986 8.25259651,11.0854545 L6.1557087,8.99568257 C6.05190291,8.89273849 6,8.75890849 6,8.61478768 C6,8.47066687 6.05190291,8.33683686 6.1557087,8.23389279 C6.25951449,8.13094871 6.39446473,8.07947666 6.53979194,8.07947666 C6.68511914,8.07947666 6.82006939,8.13094871 6.92387518,8.23389279 L8.63667975,9.93247904 L12.4463676,6.15441613 C12.5501734,6.05147205 12.6851237,6 12.8304509,6 C12.9757781,6 13.1107283,6.05147205 13.2145341,6.15441613 C13.4221457,6.36030428 13.4221457,6.71031773 13.2145341,6.91620589 L9.02076302,11.0751682 C8.91695718,11.1781033 8.78200695,11.2398706 8.63667975,11.2398706 Z" id="Shape"></path>
                </g>
            </g>
        </g>
    </g>
</svg>