<?xml version="1.0" encoding="UTF-8"?>
<svg width="14px" height="14px" viewBox="0 0 14 14" version="1.1" xmlns="http://www.w3.org/2000/svg" xmlns:xlink="http://www.w3.org/1999/xlink">
    <!-- Generator: Sketch 52.4 (67378) - http://www.bohemiancoding.com/sketch -->
    <title>图标-搜索</title>
    <desc>Created with Sketch.</desc>
    <g id="B03-京麦App-Guideline-数据展示组件" stroke="none" stroke-width="1" fill="none" fill-rule="evenodd">
        <g id="数据展示－图标" transform="translate(-423.000000, -2621.000000)" fill="#A7A7A7" fill-rule="nonzero">
            <g id="Group-18" transform="translate(422.000000, 2620.000000)">
                <g id="图标-搜索" transform="translate(2.000000, 2.000000)">
                    <path d="M4.5,9.5 C1.73857625,9.5 -0.5,7.26142375 -0.5,4.5 C-0.5,1.73857625 1.73857625,-0.5 4.5,-0.5 C7.26142375,-0.5 9.5,1.73857625 9.5,4.5 C9.5,7.26142375 7.26142375,9.5 4.5,9.5 Z M4.5,8.5 C6.709139,8.5 8.5,6.709139 8.5,4.5 C8.5,2.290861 6.709139,0.5 4.5,0.5 C2.290861,0.5 0.5,2.290861 0.5,4.5 C0.5,6.709139 2.290861,8.5 4.5,8.5 Z" id="Oval-3"></path>
                    <polygon id="Line-2" points="7.25735931 7.96446609 7.96446609 7.25735931 12.2071068 11.5 11.5 12.2071068"></polygon>
                </g>
            </g>
        </g>
    </g>
</svg>