<?xml version="1.0" encoding="UTF-8"?>
<svg width="18px" height="18px" viewBox="0 0 18 18" version="1.1" xmlns="http://www.w3.org/2000/svg" xmlns:xlink="http://www.w3.org/1999/xlink">
    <!-- Generator: Sketch 52.4 (67378) - http://www.bohemiancoding.com/sketch -->
    <title>Combined Shape</title>
    <desc>Created with Sketch.</desc>
    <g id="B03-京麦App-Guideline-数据展示组件" stroke="none" stroke-width="1" fill="none" fill-rule="evenodd">
        <g id="数据展示－图标" transform="translate(-205.000000, -3457.000000)" fill="#666666">
            <path d="M211.550009,3465.5 C211.781644,3464.35888 212.790521,3463.5 214,3463.5 C215.209479,3463.5 216.218356,3464.35888 216.449991,3465.5 L222.5,3465.5 C222.776142,3465.5 223,3465.72386 223,3466 C223,3466.27614 222.776142,3466.5 222.5,3466.5 L216.449991,3466.5 C216.218356,3467.64112 215.209479,3468.5 214,3468.5 C212.790521,3468.5 211.781644,3467.64112 211.550009,3466.5 L205.5,3466.5 C205.223858,3466.5 205,3466.27614 205,3466 C205,3465.72386 205.223858,3465.5 205.5,3465.5 L211.550009,3465.5 Z M209.949991,3473 C209.718356,3474.14112 208.709479,3475 207.5,3475 C206.119288,3475 205,3473.88071 205,3472.5 C205,3471.11929 206.119288,3470 207.5,3470 C208.709479,3470 209.718356,3470.85888 209.949991,3472 L222.5,3472 C222.776142,3472 223,3472.22386 223,3472.5 C223,3472.77614 222.776142,3473 222.5,3473 L209.949991,3473 Z M218.050009,3459 C218.281644,3457.85888 219.290521,3457 220.5,3457 C221.880712,3457 223,3458.11929 223,3459.5 C223,3460.88071 221.880712,3462 220.5,3462 C219.290521,3462 218.281644,3461.14112 218.050009,3460 L205.5,3460 C205.223858,3460 205,3459.77614 205,3459.5 C205,3459.22386 205.223858,3459 205.5,3459 L218.050009,3459 Z M220.5,3461 C221.328427,3461 222,3460.32843 222,3459.5 C222,3458.67157 221.328427,3458 220.5,3458 C219.671573,3458 219,3458.67157 219,3459.5 C219,3460.32843 219.671573,3461 220.5,3461 Z M207.5,3474 C208.328427,3474 209,3473.32843 209,3472.5 C209,3471.67157 208.328427,3471 207.5,3471 C206.671573,3471 206,3471.67157 206,3472.5 C206,3473.32843 206.671573,3474 207.5,3474 Z M214,3467.5 C214.828427,3467.5 215.5,3466.82843 215.5,3466 C215.5,3465.17157 214.828427,3464.5 214,3464.5 C213.171573,3464.5 212.5,3465.17157 212.5,3466 C212.5,3466.82843 213.171573,3467.5 214,3467.5 Z" id="Combined-Shape"></path>
        </g>
    </g>
</svg>