<?xml version="1.0" encoding="UTF-8"?>
<svg width="16px" height="16px" viewBox="0 0 16 16" version="1.1" xmlns="http://www.w3.org/2000/svg" xmlns:xlink="http://www.w3.org/1999/xlink">
    <!-- Generator: Sketch 52.4 (67378) - http://www.bohemiancoding.com/sketch -->
    <title>Combined Shape</title>
    <desc>Created with Sketch.</desc>
    <g id="B03-京麦App-Guideline-数据展示组件" stroke="none" stroke-width="1" fill="none" fill-rule="evenodd">
        <g id="数据展示－图标" transform="translate(-594.000000, -2672.000000)" fill="#666666">
            <g id="Group-3" transform="translate(594.000000, 2672.000000)">
                <path d="M6.50053821,14.540577 C4.16817543,13.648738 2.43495195,11.5452053 2.07088886,9 L1.5,9 C0.671572875,9 0,8.32842712 0,7.5 L0,6.5 C0,5.67157288 0.671572875,5 1.5,5 L2.08295844,5 C2.55903653,2.16228666 5.02700371,0 8,0 C10.9729963,0 13.4409635,2.16228666 13.9170416,5 L14.5,5 C15.3284271,5 16,5.67157288 16,6.5 L16,7.5 C16,8.32842712 15.3284271,9 14.5,9 L13.5,9 C13.2238576,9 13,8.77614237 13,8.5 L13,6 C13,3.23857625 10.7614237,1 8,1 C5.23857625,1 3,3.23857625 3,6 L3,8 C3,10.5406339 4.57909667,12.71245 6.80936421,13.5875226 C7.08354756,13.2302944 7.51487971,13 8,13 C8.82842712,13 9.5,13.6715729 9.5,14.5 C9.5,15.3284271 8.82842712,16 8,16 C7.18514137,16 6.52204096,15.3502459 6.50053821,14.540577 Z" id="Combined-Shape"></path>
            </g>
        </g>
    </g>
</svg>