<?xml version="1.0" encoding="UTF-8"?>
<svg width="24px" height="24px" viewBox="0 0 24 24" version="1.1" xmlns="http://www.w3.org/2000/svg" xmlns:xlink="http://www.w3.org/1999/xlink">
    <!-- Generator: Sketch 52.4 (67378) - http://www.bohemiancoding.com/sketch -->
    <title>Group 2</title>
    <desc>Created with Sketch.</desc>
    <g id="B03-京麦App-Guideline-数据展示组件" stroke="none" stroke-width="1" fill="none" fill-rule="evenodd">
        <g id="数据展示－图标" transform="translate(-555.000000, -3051.000000)" fill="#666666">
            <g id="插件-8" transform="translate(545.000000, 3041.000000)">
                <g id="icon_dong_setting">
                    <g id="Group-2" transform="translate(10.000000, 10.000000)">
                        <path d="M23.0844781,12.444908 C23.0813407,12.5945466 23.0571097,12.6424456 23.0564422,12.6436139 C23.0561752,12.6436139 23.0162908,12.688876 22.8447046,12.7553671 C22.7126357,12.8061702 22.5800661,12.8562388 22.4473296,12.9057067 C21.9791639,13.08068 21.4949444,13.2616615 21.0231074,13.5118713 C19.7143998,14.2061902 18.9837984,16.1230859 19.4904132,17.5334869 C19.6442767,17.9621081 19.8350207,18.3605879 20.0192231,18.7459831 C20.0814026,18.8761283 20.1436156,19.0062067 20.2040929,19.1367524 C20.2533893,19.2435656 20.2690427,19.3025798 20.2739824,19.3284486 C20.2606987,19.3509795 20.2259876,19.4010482 20.1437491,19.4837283 L20.039449,19.5890394 C19.8415291,19.7887132 19.6368339,19.9950629 19.4351425,20.1923668 C19.3802723,20.2459737 19.3463622,20.2674698 19.3326781,20.2750469 C19.315723,20.2730775 19.270365,20.2646326 19.1862574,20.2285831 C19.0309921,20.1617248 18.8762274,20.0935646 18.7218633,20.0242696 C18.2585038,19.8177864 17.7792573,19.60406 17.2639981,19.4443075 C17.0267279,19.3706398 16.7696323,19.3332552 16.4998872,19.3332552 C15.2435798,19.3332552 13.9188517,20.1110219 13.4184782,21.1424699 C13.2116803,21.568187 13.0573161,22.0004465 12.908192,22.4184865 C12.8771523,22.5053056 12.8461126,22.5920246 12.8148392,22.67861 C12.7256584,22.9242469 12.6711554,23.0211464 12.6470245,23.056595 C12.6115792,23.0659412 12.5259029,23.081329 12.3381627,23.0866696 L11.9961918,23.0856682 C11.9409545,23.0856682 11.8854835,23.0860688 11.8302462,23.0865695 C11.7797483,23.08697 11.7293505,23.0873706 11.678986,23.0873706 C11.6248835,23.0873706 11.5709478,23.0868031 11.516912,23.0851676 C11.3360139,23.0795599 11.3251333,23.0792928 11.2511386,22.8863949 C11.1538809,22.633448 11.0515166,22.3826374 10.9523897,22.1399712 C10.8206212,21.8167613 10.6959617,21.5113758 10.5821828,21.2006496 C10.1701556,20.0764745 8.57114321,19.3212721 7.33592956,19.3212721 C6.95560965,19.3212721 6.61667602,19.3918022 6.32867422,19.5311934 C5.98850568,19.6957524 5.64590069,19.8472602 5.28320333,20.0078805 C5.1184926,20.0806469 4.95384862,20.1536137 4.78970528,20.2275818 C4.72295322,20.2576897 4.68023189,20.2706075 4.65726918,20.2760482 C4.63901249,20.2638315 4.60720513,20.2394647 4.56144659,20.1946032 C4.2964075,19.9346133 4.03407187,19.6718863 3.77437295,19.4065224 C3.73866059,19.3699055 3.72183907,19.3440367 3.71619852,19.3332552 C3.71713305,19.3188021 3.72417539,19.2798153 3.75050908,19.2169624 C3.81923034,19.053071 3.89289124,18.884206 3.96408233,18.7210489 C4.17735518,18.231878 4.39797077,17.7261177 4.56441705,17.1861772 C4.95428251,15.9205081 4.1220511,14.0375924 2.9151737,13.4548932 C2.46226091,13.2362266 2.00127113,13.066327 1.55550081,12.9021685 C1.4179248,12.8517326 1.28054904,12.8005625 1.14354042,12.7488248 C1.01677825,12.7007255 0.958370186,12.6657776 0.935307346,12.6497556 C0.928932524,12.6245878 0.917951808,12.5660408 0.916149502,12.451951 C0.909741304,12.0813427 0.910041688,11.7834675 0.917084031,11.5145988 C0.919520482,11.4180998 0.92946654,11.3668628 0.935207218,11.3448326 C0.95706852,11.3290443 1.0144753,11.2935957 1.14237226,11.2442947 C1.25982253,11.1989325 1.37777343,11.1547386 1.49575771,11.1104111 C1.97984371,10.928495 2.48048423,10.7404704 2.96707343,10.480614 C4.29193511,9.77327728 5.01175604,7.83351695 4.47710535,6.41096596 C4.32320845,6.00157115 4.14214347,5.613806 3.96701942,5.23879168 C3.89753051,5.08978732 3.82790811,4.94074959 3.76042176,4.79091076 C3.72921517,4.72194951 3.71813433,4.67995859 3.71409583,4.65989774 C3.72440902,4.64330832 3.74777225,4.61086383 3.79576698,4.56196343 C4.04411806,4.30978424 4.30121365,4.05279845 4.55957753,3.79788217 C4.6126788,3.74561049 4.64605483,3.72371379 4.66013952,3.71560266 C4.6779957,3.71797258 4.72372086,3.72681805 4.80572578,3.76176598 C4.949977,3.82318354 5.09346057,3.88616993 5.23717777,3.94915631 C5.73651662,4.16792301 6.252944,4.39430015 6.80454972,4.56393279 C7.01588677,4.62885517 7.2470158,4.66196725 7.49136175,4.66196725 C8.54514328,4.66196725 10.0070803,3.99385094 10.5313177,2.91450398 C10.7564724,2.45113514 10.9305284,1.97885409 11.0989773,1.5221277 C11.150076,1.38300356 11.2018422,1.24401294 11.2542092,1.10538949 C11.2957958,0.996139653 11.3274029,0.95114461 11.3383168,0.937459174 C11.3541371,0.932118516 11.4026325,0.918933767 11.5066322,0.916463713 C11.6548885,0.913092422 11.8031449,0.911523604 11.9515013,0.91165712 C12.1303635,0.91165712 12.324345,0.913593109 12.5619156,0.918032531 C12.6230605,0.9192008 12.6480925,0.929114396 12.6509629,0.930282665 C12.6504289,0.930816731 12.6747934,0.955984581 12.7043979,1.03275654 C12.7933117,1.26290552 12.8862639,1.49121864 12.9762457,1.71195471 C13.1163917,2.05605997 13.2487277,2.38097225 13.3663114,2.71139208 C13.7958944,3.91838077 15.4086577,4.66537192 16.6565876,4.66537192 C17.0942476,4.66537192 17.4805752,4.57695065 17.8049235,4.40264493 C18.0951615,4.2465642 18.4058256,4.1105777 18.7347798,3.96661359 C18.8875753,3.89985536 19.0454439,3.8307606 19.2028119,3.75879523 C19.2708656,3.72775266 19.311284,3.71757203 19.3296742,3.71420074 C19.3450606,3.72331324 19.3775354,3.745744 19.426932,3.7946444 C19.7089261,4.07275916 19.9626507,4.32400374 20.2140056,4.58269186 C20.2495845,4.61947564 20.2676075,4.64450997 20.275818,4.65752782 C20.2728142,4.67488496 20.2643367,4.71113468 20.2390376,4.77098343 C20.1683806,4.9380125 20.0964218,5.104374 20.0231281,5.2702348 C19.8149284,5.74508605 19.5998198,6.23612617 19.435543,6.76027836 C19.0441422,8.00979204 19.7623945,9.78499335 20.9133337,10.4129546 C21.4592321,10.710763 22.0254565,10.9271932 22.5731572,11.1364802 C22.6516243,11.1664547 22.7299912,11.1964625 22.8082246,11.2265704 C22.9796439,11.2926611 23.042224,11.3375226 23.059713,11.3521427 C23.0662214,11.3715693 23.0827759,11.4351899 23.0850121,11.578887 C23.0899517,11.867416 23.0898182,12.1562455 23.0844781,12.444908 M23.9964448,11.5644004 C23.986165,10.9031936 23.7587741,10.6158328 23.1361108,10.3758036 C22.5319378,10.1427841 21.9159164,9.92141378 21.3499589,9.612657 C20.5881843,9.19695354 20.0468584,7.85748315 20.3052557,7.03255178 C20.5098174,6.37968973 20.8129386,5.75723605 21.0791792,5.12433471 C21.272126,4.66613964 21.2154201,4.30534481 20.8677086,3.94732046 C20.6046053,3.67638221 20.3360284,3.41078461 20.0670843,3.14545405 C19.6867644,2.77030621 19.3119515,2.70655211 18.8239605,2.92965809 C18.339474,3.15116188 17.8417039,3.34779823 17.3735382,3.59957687 C16.4910091,4.07392743 14.575692,3.39055687 14.2249767,2.40560604 C14.0208155,1.83178572 13.7742667,1.27321966 13.5548526,0.704606489 C13.3810636,0.254088614 13.0613546,0.0154947221 12.5787038,0.00648236186 C12.2143376,-0.00016008142 11.8495042,-0.00339785528 11.4851046,0.0051805765 C10.9075991,0.0188660124 10.6056461,0.247179138 10.4024862,0.78124493 C10.1811364,1.36317637 9.98294946,1.95762497 9.71166905,2.51619103 C9.32660975,3.30854439 7.90956346,3.95005755 7.07232564,3.69267121 C6.41872276,3.49162882 5.79465767,3.19211805 5.16308298,2.9232493 C4.67342318,2.71449634 4.30278232,2.77130759 3.91999258,3.14869183 C3.66016016,3.40477637 3.40229692,3.66269677 3.14636949,3.92255316 C2.76835252,4.30641295 2.706974,4.67201436 2.92942526,5.1652575 C3.16405878,5.68617192 3.42335719,6.19780695 3.62391378,6.73160571 C3.993787,7.71562193 3.46667929,9.18066453 2.5377575,9.67651124 C1.99135845,9.96834481 1.39529585,10.1696542 0.81441935,10.3936615 C0.240284809,10.6149316 0.0215382808,10.8897752 0.00585154473,11.4907327 C-0.00262596797,11.8161791 -0.000890414188,12.142026 0.00471675956,12.4674723 C0.0154972186,13.0955337 0.224531321,13.3746832 0.819692764,13.6007933 C1.38938829,13.8171901 1.9713662,14.0112562 2.51883329,14.2756856 C3.30510591,14.6552394 3.95113242,16.0804941 3.69323581,16.9175755 C3.48790644,17.5835556 3.18051317,18.2188268 2.91000041,18.8641118 C2.72145919,19.3131944 2.78166956,19.6950848 3.12297289,20.0439967 C3.38701069,20.3140337 3.65391884,20.5813336 3.92366395,20.8457629 C4.31279513,21.2270191 4.66230896,21.2848985 5.16405088,21.0584213 C5.6848839,20.8237327 6.21122396,20.6003597 6.72528164,20.3517187 C7.55968249,19.9481652 9.40200621,20.6295664 9.72612088,21.5142464 C9.93565562,22.0861307 10.1816704,22.6446634 10.4001499,23.2134101 C10.6016076,23.737362 10.9239867,23.978693 11.4882754,23.9961503 C11.6573583,24.0015243 11.8268752,23.9970849 11.9960583,23.9970849 L11.9960583,23.999822 C12.0742918,23.999822 12.1523917,24.0002225 12.2304916,23.999822 C13.1295418,23.9957831 13.3691484,23.8222451 13.6714018,22.9895364 C13.8483281,22.5020678 14.0123379,22.0056871 14.2382603,21.540449 C14.6634042,20.6642473 16.0658652,20.0268064 16.9938858,20.3149015 C17.6222898,20.5098689 18.2197876,20.8065091 18.8273315,21.066499 C19.3179259,21.2766873 19.6895012,21.2180068 20.072024,20.8443276 C20.3142672,20.6075362 20.5520715,20.366272 20.7905432,20.1258422 C21.2341775,19.6789293 21.2935201,19.3215392 21.0311844,18.7543279 C20.7969181,18.2475329 20.5361511,17.7493162 20.3480438,17.2254311 C19.9969279,16.248124 20.5348494,14.8028419 21.4502205,14.3171424 C21.9968866,14.0270112 22.5938837,13.8300077 23.1737923,13.6053662 C23.7446894,13.3842296 23.9828942,13.0698651 23.9955437,12.4631664 C24.0016515,12.1636556 24.0010173,11.8640447 23.9964448,11.5644004" id="Fill-1"></path>
                        <path d="M14.9797122,15.0001211 C14.1789488,15.786556 13.1040648,16.2196259 11.9532316,16.2198626 L11.9299093,16.2197612 C9.63267062,16.209722 7.77020541,14.3173228 7.78024411,12.0013859 C7.78514515,10.8422174 8.22204808,9.77414512 9.01027154,8.99406495 C9.80103001,8.21134824 10.8816938,7.78023885 12.0532129,7.78023885 L12.082653,7.78037406 C13.1922499,7.7865598 14.2330631,8.22916184 15.0108761,9.02668378 C15.7958209,9.83130412 16.2253215,10.905596 16.2200149,12.0515817 C16.214742,13.1724526 15.7742901,14.2196353 14.9797122,15.0001211 M15.6715709,8.38204781 C14.7198891,7.40642367 13.4462931,6.8649511 12.0855598,6.85727806 L12.0530777,6.85714286 C10.6369119,6.85714286 9.32556092,7.38306656 8.3609336,8.33797014 C7.39718509,9.29169065 6.86317384,10.5913398 6.85719118,11.9974311 C6.84505687,14.8222555 9.11968317,17.1305533 11.9278813,17.1428571 L11.9527584,17.1428571 C13.3469877,17.1428571 14.6517477,16.6157166 15.6264137,15.6585821 C16.5979025,14.7043545 17.136612,13.4248851 17.1427974,12.0556717 C17.1492871,10.6660758 16.6267003,9.36139016 15.6715709,8.38204781" id="Fill-3"></path>
                    </g>
                </g>
            </g>
        </g>
    </g>
</svg>