<?xml version="1.0" encoding="UTF-8"?>
<svg width="18px" height="18px" viewBox="0 0 18 18" version="1.1" xmlns="http://www.w3.org/2000/svg" xmlns:xlink="http://www.w3.org/1999/xlink">
    <!-- Generator: Sketch 52.4 (67378) - http://www.bohemiancoding.com/sketch -->
    <title>Combined Shape</title>
    <desc>Created with Sketch.</desc>
    <g id="B03-京麦App-Guideline-数据展示组件" stroke="none" stroke-width="1" fill="none" fill-rule="evenodd">
        <g id="数据展示－图标" transform="translate(-309.000000, -2894.000000)" fill="#666666">
            <g id="Group-5" transform="translate(307.000000, 2892.000000)">
                <path d="M20,19.5 C20,19.7761424 19.7761424,20 19.5,20 L2.5,20 C2.22385763,20 2,19.7761424 2,19.5 L2,2.5 C1.99998983,2.22385763 2.22384745,2 2.49998983,2 L9.50006104,2.00011489 C9.77617086,2.00011886 10,2.22395121 10,2.50006104 C10,2.7761697 9.7761697,3 9.50006104,3 L3,3 L3,19 L19,19 L19,12.5 C19,12.2238576 19.2238576,12 19.5,12 C19.7761424,12 20,12.2238576 20,12.5 L20,19.5 Z M19,3.72792206 L9.71751442,13.0104076 C9.52225228,13.2056698 9.20566979,13.2056698 9.01040764,13.0104076 C8.81514549,12.8151455 8.81514549,12.498563 9.01040764,12.3033009 L18.3137085,3 L14.4998779,3 C14.223803,3 14,2.77619703 14,2.50012207 C14,2.22404382 14.2237997,2.00023503 14.4998779,2.0002238 L19.5,2.00002034 C19.7761424,1.99998876 20.0000091,2.22383728 20.0000203,2.49997966 L20.0000203,7.5 C20.0000203,7.77614237 19.7761627,8 19.5000203,8 L19.5,8 C19.2238576,8 19,7.77614237 19,7.5 L19,3.72792206 Z" id="Combined-Shape"></path>
            </g>
        </g>
    </g>
</svg>