<?xml version="1.0" encoding="UTF-8"?>
<svg width="16px" height="16px" viewBox="0 0 16 16" version="1.1" xmlns="http://www.w3.org/2000/svg" xmlns:xlink="http://www.w3.org/1999/xlink">
    <!-- Generator: Sketch 52.4 (67378) - http://www.bohemiancoding.com/sketch -->
    <title>Star Copy 4</title>
    <desc>Created with Sketch.</desc>
    <g id="B03-京麦App-Guideline-数据展示组件" stroke="none" stroke-width="1" fill="none" fill-rule="evenodd">
        <g id="数据展示－图标" transform="translate(-560.000000, -2674.000000)" fill="#666666" fill-rule="nonzero">
            <g id="Group-37" transform="translate(559.000000, 2674.000000)">
                <path d="M12.1092592,10.6392732 C12.0258023,10.1526821 12.187125,9.65618176 12.5406541,9.31157602 L15.1073191,6.80969598 L11.5602753,6.29428035 C11.0717101,6.22328766 10.6493617,5.9164336 10.4308687,5.47371839 L8.84458247,2.25955146 L7.25829626,5.47371839 C7.03980324,5.9164336 6.61745486,6.22328766 6.12888962,6.29428035 L2.58184582,6.80969598 L5.14851083,9.31157602 C5.50203996,9.65618176 5.66336268,10.1526821 5.57990578,10.6392732 L4.97399836,14.1719845 L8.14657078,12.5040644 C8.58355682,12.2743273 9.10560813,12.2743273 9.54259416,12.5040644 L12.7151666,14.1719845 L12.1092592,10.6392732 Z M8.61191191,13.3891959 L4.54260341,15.5285579 C4.29818112,15.6570583 3.99586754,15.5630851 3.86736713,15.3186628 C3.8161976,15.2213326 3.79854026,15.1098485 3.81712868,15.0014697 L4.59429745,10.4702281 C4.62211642,10.3080311 4.56834218,10.142531 4.45049914,10.0276624 L1.1583594,6.81861926 C0.960617615,6.62586866 0.956571461,6.30931202 1.14932207,6.11157024 C1.22607637,6.03282842 1.32664758,5.98158483 1.43546609,5.96577257 L5.9850913,5.30467333 C6.14794638,5.2810091 6.28872918,5.17872442 6.36156018,5.03115268 L8.39621443,0.908492875 C8.51842558,0.660866045 8.8182385,0.559196546 9.06586533,0.681407693 C9.16447163,0.730072812 9.24428539,0.809886573 9.29295051,0.908492875 L11.3276048,5.03115268 C11.4004358,5.17872442 11.5412186,5.2810091 11.7040736,5.30467333 L16.2536989,5.96577257 C16.5269713,6.00548138 16.716312,6.25920281 16.6766032,6.53247524 C16.6607909,6.64129375 16.6095474,6.74186496 16.5308055,6.81861926 L13.2386658,10.0276624 C13.1208228,10.142531 13.0670485,10.3080311 13.0948675,10.4702281 L13.8720363,15.0014697 C13.9187168,15.2736379 13.7359229,15.5321159 13.4637546,15.5787964 C13.3553758,15.5973848 13.2438918,15.5797275 13.1465615,15.5285579 L9.07725304,13.3891959 C8.93159102,13.3126168 8.75757392,13.3126168 8.61191191,13.3891959 Z" id="Star-Copy-4"></path>
            </g>
        </g>
    </g>
</svg>