<?xml version="1.0" encoding="UTF-8"?>
<svg width="17px" height="16px" viewBox="0 0 17 16" version="1.1" xmlns="http://www.w3.org/2000/svg" xmlns:xlink="http://www.w3.org/1999/xlink">
    <!-- Generator: Sketch 52.4 (67378) - http://www.bohemiancoding.com/sketch -->
    <title>Star Copy 4</title>
    <desc>Created with Sketch.</desc>
    <g id="B03-京麦App-Guideline-数据展示组件" stroke="none" stroke-width="1" fill="none" fill-rule="evenodd">
        <g id="数据展示－图标" transform="translate(-525.000000, -2674.000000)" fill="#666666">
            <g id="star" transform="translate(525.000000, 2674.000000)">
                <path d="M8.23743159,13.3891959 L4.16812309,15.5285579 C3.9237008,15.6570583 3.62138722,15.5630851 3.49288682,15.3186628 C3.44171728,15.2213326 3.42405995,15.1098485 3.44264837,15.0014697 L4.21981714,10.4702281 C4.24763611,10.3080311 4.19386186,10.142531 4.07601882,10.0276624 L0.783879089,6.81861926 C0.5861373,6.62586866 0.582091147,6.30931202 0.774841753,6.11157024 C0.851596055,6.03282842 0.952167261,5.98158483 1.06098578,5.96577257 L5.61061099,5.30467333 C5.77346607,5.2810091 5.91424886,5.17872442 5.98707987,5.03115268 L8.02173412,0.908492875 C8.14394527,0.660866045 8.44375818,0.559196546 8.69138501,0.681407693 C8.78999132,0.730072812 8.86980508,0.809886573 8.9184702,0.908492875 L10.9531244,5.03115268 C11.0259555,5.17872442 11.1667382,5.2810091 11.3295933,5.30467333 L15.8792185,5.96577257 C16.152491,6.00548138 16.3418317,6.25920281 16.3021229,6.53247524 C16.2863106,6.64129375 16.235067,6.74186496 16.1563252,6.81861926 L12.8641855,10.0276624 C12.7463425,10.142531 12.6925682,10.3080311 12.7203872,10.4702281 L13.4975559,15.0014697 C13.5442365,15.2736379 13.3614425,15.5321159 13.0892743,15.5787964 C12.9808955,15.5973848 12.8694115,15.5797275 12.7720812,15.5285579 L8.70277272,13.3891959 C8.55711071,13.3126168 8.38309361,13.3126168 8.23743159,13.3891959 Z" id="Star-Copy-4"></path>
            </g>
        </g>
    </g>
</svg>