<?xml version="1.0" encoding="UTF-8"?>
<svg width="22px" height="26px" viewBox="0 0 22 26" version="1.1" xmlns="http://www.w3.org/2000/svg" xmlns:xlink="http://www.w3.org/1999/xlink">
    <!-- Generator: Sketch 52.4 (67378) - http://www.bohemiancoding.com/sketch -->
    <title>icon_dong_dingdan</title>
    <desc>Created with Sketch.</desc>
    <g id="B03-京麦App-Guideline-数据展示组件" stroke="none" stroke-width="1" fill="none" fill-rule="evenodd">
        <g id="数据展示－图标" transform="translate(-440.000000, -3049.000000)" fill="#666666">
            <g id="插件-6" transform="translate(429.000000, 3040.000000)">
                <g id="icon_dong_dingdan" transform="translate(11.000000, 9.000000)">
                    <path d="M1,3 L1,25 L21,25 L21,3 L1,3 Z M0.5,2 L21.5,2 C21.7761424,2 22,2.22385763 22,2.5 L22,25.5 C22,25.7761424 21.7761424,26 21.5,26 L0.5,26 C0.223857625,26 0,25.7761424 0,25.5 L0,2.5 C0,2.22385763 0.223857625,2 0.5,2 Z" id="Combined-Shape" fill-rule="nonzero"></path>
                    <path d="M4,7 L4,8 L5,8 L5,7 L4,7 Z M3.5,6 L5.5,6 C5.77614237,6 6,6.22385763 6,6.5 L6,8.5 C6,8.77614237 5.77614237,9 5.5,9 L3.5,9 C3.22385763,9 3,8.77614237 3,8.5 L3,6.5 C3,6.22385763 3.22385763,6 3.5,6 Z" id="Rectangle-17" fill-rule="nonzero"></path>
                    <path d="M4,13 L4,14 L5,14 L5,13 L4,13 Z M3.5,12 L5.5,12 C5.77614237,12 6,12.2238576 6,12.5 L6,14.5 C6,14.7761424 5.77614237,15 5.5,15 L3.5,15 C3.22385763,15 3,14.7761424 3,14.5 L3,12.5 C3,12.2238576 3.22385763,12 3.5,12 Z" id="Rectangle-17-Copy" fill-rule="nonzero"></path>
                    <path d="M4,19 L4,20 L5,20 L5,19 L4,19 Z M3.5,18 L5.5,18 C5.77614237,18 6,18.2238576 6,18.5 L6,20.5 C6,20.7761424 5.77614237,21 5.5,21 L3.5,21 C3.22385763,21 3,20.7761424 3,20.5 L3,18.5 C3,18.2238576 3.22385763,18 3.5,18 Z" id="Rectangle-17-Copy-2" fill-rule="nonzero"></path>
                    <rect id="Rectangle-26" x="7" y="7" width="12" height="1" rx="0.5"></rect>
                    <rect id="Rectangle-26-Copy" x="7" y="13" width="12" height="1" rx="0.5"></rect>
                    <rect id="Rectangle-26-Copy-2" x="7" y="19" width="12" height="1" rx="0.5"></rect>
                    <rect id="Rectangle-8" x="7" y="0" width="8" height="1" rx="0.5"></rect>
                </g>
            </g>
        </g>
    </g>
</svg>