<?xml version="1.0" encoding="UTF-8"?>
<svg width="11px" height="8px" viewBox="0 0 11 8" version="1.1" xmlns="http://www.w3.org/2000/svg" xmlns:xlink="http://www.w3.org/1999/xlink">
    <!-- Generator: Sketch 52.4 (67378) - http://www.bohemiancoding.com/sketch -->
    <title>合并形状</title>
    <desc>Created with Sketch.</desc>
    <g id="Page-1" stroke="none" stroke-width="1" fill="none" fill-rule="evenodd">
        <g id="麦头条改版-置顶" transform="translate(-20.000000, -703.000000)" fill="#666666" fill-rule="nonzero">
            <g id="文章单图" transform="translate(15.000000, 698.000000)">
                <g id="Group-8-Copy-6">
                    <g id="分组-11" transform="translate(5.000000, 5.000000)">
                        <path d="M8,2.11045806 L9.42462568,1.10825381 C9.87633396,0.79048335 10.5001197,0.899061407 10.8178902,1.35076969 C10.9363996,1.51922989 11,1.72017481 11,1.92614402 L11,6.07952773 C11,6.63181247 10.5522847,7.07952773 10,7.07952773 C9.79485457,7.07952773 9.59467259,7.01643452 9.42660171,6.89880448 L8,5.90034947 L8,7 C8,7.55228475 7.55228475,8 7,8 L1,8 C0.44771525,8 6.76353751e-17,7.55228475 0,7 L0,1 C-6.76353751e-17,0.44771525 0.44771525,1.01453063e-16 1,0 L7,0 C7.55228475,-1.01453063e-16 8,0.44771525 8,1 L8,2.11045806 Z M8,3.57764766 L8,4.43564295 L9.8,5.69543327 L9.8,2.31137282 L8,3.57764766 Z M1.5,1.5 L1.5,6.5 L6.5,6.5 L6.5,1.5 L1.5,1.5 Z" id="合并形状"></path>
                    </g>
                </g>
            </g>
        </g>
    </g>
</svg>