<?xml version="1.0" encoding="UTF-8"?>
<svg width="16px" height="12px" viewBox="0 0 16 12" version="1.1" xmlns="http://www.w3.org/2000/svg" xmlns:xlink="http://www.w3.org/1999/xlink">
    <!-- Generator: Sketch 52.4 (67378) - http://www.bohemiancoding.com/sketch -->
    <title>合并形状</title>
    <desc>Created with Sketch.</desc>
    <g id="B03-京麦App-Guideline-数据展示组件" stroke="none" stroke-width="1" fill="none" fill-rule="evenodd">
        <g id="数据展示－图标" transform="translate(-281.000000, -2622.000000)" fill="#666666" fill-rule="nonzero">
            <path d="M289,2626 C287.9,2626 287,2626.9 287,2628 C287,2629.1 287.9,2630 289,2630 C290.1,2630 291,2629.1 291,2628 C291,2626.9 290.1,2626 289,2626 Z M289,2625 C290.65,2625 292,2626.35 292,2628 C292,2629.65 290.65,2631 289,2631 C287.35,2631 286,2629.65 286,2628 C286,2626.35 287.35,2625 289,2625 Z M289,2623.09091 C285.228571,2623.09091 282.142857,2626.14545 282.142857,2628 C282.142857,2629.85455 285.228571,2632.90909 289,2632.90909 C292.657143,2632.90909 295.857143,2629.8 295.857143,2628 C295.857143,2626.2 292.657143,2623.09091 289,2623.09091 Z M289,2622 C293.4,2622 297,2625.65455 297,2628 C297,2630.34545 293.4,2634 289,2634 C284.6,2634 281,2630.34545 281,2628 C281,2625.65455 284.6,2622 289,2622 Z" id="合并形状"></path>
        </g>
    </g>
</svg>