<?xml version="1.0" encoding="UTF-8"?>
<svg width="39px" height="39px" viewBox="0 0 39 39" version="1.1" xmlns="http://www.w3.org/2000/svg" xmlns:xlink="http://www.w3.org/1999/xlink">
    <!-- Generator: Sketch 49 (51002) - http://www.bohemiancoding.com/sketch -->
    <title>Group 26</title>
    <desc>Created with Sketch.</desc>
    <defs></defs>
    <g id="A01-京麦App-Guideline元件" stroke="none" stroke-width="1" fill="none" fill-rule="evenodd">
        <g id="A01-京麦App-Guideline－元件" transform="translate(-728.000000, -7189.000000)" fill="#FFFFFF" fill-rule="nonzero">
            <g id="04-控件" transform="translate(206.000000, 3746.000000)">
                <g id="toast" transform="translate(0.000000, 3419.000000)">
                    <g id="Group-25" transform="translate(421.000000, 7.000000)">
                        <g id="Group-24-Copy" transform="translate(15.000000, 17.000000)">
                            <g id="Group-26" transform="translate(86.000000, 0.000000)">
                                <path d="M19.5,38 C29.7172679,38 38,29.7172679 38,19.5 C38,9.28273213 29.7172679,1 19.5,1 C9.28273213,1 1,9.28273213 1,19.5 C1,29.7172679 9.28273213,38 19.5,38 Z M19.5,39 C8.73044738,39 0,30.2695526 0,19.5 C0,8.73044738 8.73044738,0 19.5,0 C30.2695526,0 39,8.73044738 39,19.5 C39,30.2695526 30.2695526,39 19.5,39 Z" id="Oval-11"></path>
                                <g id="Group-28" transform="translate(13.000000, 13.000000)">
                                    <path d="M0.353553391,14.1521361 C0.158291245,14.3473982 -0.158291245,14.3473982 -0.353553391,14.1521361 C-0.548815536,13.9568739 -0.548815536,13.6402914 -0.353553391,13.4450293 L13.4450293,-0.353553391 C13.6402914,-0.548815536 13.9568739,-0.548815536 14.1521361,-0.353553391 C14.3473982,-0.158291245 14.3473982,0.158291245 14.1521361,0.353553391 L0.353553391,14.1521361 Z" id="Path-7"></path>
                                    <path d="M14.1521361,13.4450293 C14.3473982,13.6402914 14.3473982,13.9568739 14.1521361,14.1521361 C13.9568739,14.3473982 13.6402914,14.3473982 13.4450293,14.1521361 L-0.353553391,0.353553391 C-0.548815536,0.158291245 -0.548815536,-0.158291245 -0.353553391,-0.353553391 C-0.158291245,-0.548815536 0.158291245,-0.548815536 0.353553391,-0.353553391 L14.1521361,13.4450293 Z" id="Path-7"></path>
                                </g>
                            </g>
                        </g>
                    </g>
                </g>
            </g>
        </g>
    </g>
</svg>