<svg width="70" height="70" xmlns="http://www.w3.org/2000/svg"><g fill="none" fill-rule="evenodd"><path fill="#F7F7F7" d="M0 0h70v70H0z"/><path d="M46 34a8 8 0 110 16 8 8 0 010-16zm1-14a2 2 0 012 2v11.512a8.947 8.947 0 00-2-.457V22H19v22.759L27.586 30.2a1 1 0 011.636-.124l8.024 9.825A9.024 9.024 0 0037 42c0 2.305.867 4.408 2.292 6H19a2 2 0 01-2-2V22a2 2 0 012-2h28zm-1 25a1 1 0 100 2 1 1 0 000-2zm0-7a1 1 0 00-.993.883L45 39v4l.007.117a1 1 0 001.986 0L47 43v-4l-.007-.117A1 1 0 0046 38z" fill="#868786" fill-rule="nonzero"/></g></svg>