<svg width="134" height="134" xmlns="http://www.w3.org/2000/svg"><g transform="translate(5 5)" fill="none" fill-rule="evenodd"><path d="M65 122c33.137 0 60-26.863 60-60S98.137 2 65 2 5 28.863 5 62s26.863 60 60 60z" fill="#F5FAFF"/><circle stroke="#333" cx="60" cy="60" r="60.5"/><g transform="translate(4 3)" stroke="#333"><g stroke-linecap="round"><path d="M101.5 30v5.717M101.5 39.13v5.717"/><g><path d="M109 37.5h-5.717M99.87 37.5h-5.717"/></g></g><g stroke-linecap="round"><path d="M7.5 100v5.717M7.5 109.13v5.717"/><g><path d="M15 107.5H9.283M5.87 107.5H.153"/></g></g><circle fill="#F5FAFF" cx="5.5" cy="23.5" r="3"/><circle fill="#F5FAFF" cx="88" cy="5" r="5.5"/><circle fill="#F5FAFF" cx="101" cy="97" r="4.5"/></g><g transform="translate(25 31)"><rect stroke="#333" fill="#FFF" x=".5" y="10.5" width="69" height="79" rx="8"/><path d="M68.31 12a7.973 7.973 0 012.188 5.498v64a8 8 0 01-8 8h-54A7.973 7.973 0 013 87.309c.479.123.98.189 1.498.189h58a6 6 0 006-6v-68c0-.517-.066-1.02-.189-1.498z" fill="#F5FAFF"/><rect stroke="#333" x=".5" y="10.5" width="69" height="79" rx="8"/><path d="M7 20.5A1.5 1.5 0 005.5 22v61A1.5 1.5 0 007 84.5h56a1.5 1.5 0 001.5-1.5V22a1.5 1.5 0 00-1.5-1.5H7z" stroke="#333" fill="#FFF"/><path d="M30.5 6v.5h-12a4 4 0 100 8h33a4 4 0 100-8h-10V6a5.5 5.5 0 00-11 0zM36 8.5a2.5 2.5 0 110-5 2.5 2.5 0 010 5z" stroke="#333" fill="#F5FAFF"/><path d="M29 34h26.504M29 48h26.504M29 61h26.504" stroke="#333" stroke-linecap="round"/><path stroke="#333" stroke-linecap="round" stroke-linejoin="round" d="M15 59.963l3.518 3.519L25 57M15 46.963l3.518 3.519L25 44M15 33.963l3.518 3.519L25 31"/></g></g></svg>