<svg width="134" height="134" xmlns="http://www.w3.org/2000/svg"><g transform="translate(5 5)" fill="none" fill-rule="evenodd"><path d="M65 122c33.137 0 60-26.863 60-60S98.137 2 65 2 5 28.863 5 62s26.863 60 60 60z" fill="#F5FAFF"/><circle stroke="#333" cx="60" cy="60" r="60.5"/><g transform="translate(4 3)" stroke="#333"><g stroke-linecap="round"><path d="M101.5 30v5.717M101.5 39.13v5.717"/><g><path d="M109 37.5h-5.717M99.87 37.5h-5.717"/></g></g><g stroke-linecap="round"><path d="M7.5 100v5.717M7.5 109.13v5.717"/><g><path d="M15 107.5H9.283M5.87 107.5H.153"/></g></g><circle fill="#F5FAFF" cx="5.5" cy="23.5" r="3"/><circle fill="#F5FAFF" cx="88" cy="5" r="5.5"/><circle fill="#F5FAFF" cx="101" cy="97" r="4.5"/></g><g transform="translate(23 33)"><path d="M69.5 8A7.5 7.5 0 0062 .5H8A7.5 7.5 0 00.5 8v29A7.5 7.5 0 008 44.5h43.86a8.5 8.5 0 016.053 2.532l9.019 9.145a1.5 1.5 0 002.568-1.053V8z" stroke="#333" fill="#FFF"/><circle fill="#F5FAFF" cx="20" cy="23" r="5"/><circle fill="#F5FAFF" cx="37" cy="23" r="5"/><circle fill="#F5FAFF" cx="54" cy="23" r="5"/><circle stroke="#333" cx="18" cy="22" r="5"/><circle stroke="#333" cx="35" cy="22" r="5"/><circle stroke="#333" cx="52" cy="22" r="5"/></g></g></svg>