<svg width="134" height="134" xmlns="http://www.w3.org/2000/svg"><g transform="translate(5 5)" fill="none" fill-rule="evenodd"><path d="M65 122c33.137 0 60-26.863 60-60S98.137 2 65 2 5 28.863 5 62s26.863 60 60 60z" fill="#F5FAFF"/><circle stroke="#333" cx="60" cy="60" r="60.5"/><g transform="translate(4 3)" stroke="#333"><g stroke-linecap="round"><path d="M101.5 30v5.717M101.5 39.13v5.717"/><g><path d="M109 37.5h-5.717M99.87 37.5h-5.717"/></g></g><g stroke-linecap="round"><path d="M7.5 100v5.717M7.5 109.13v5.717"/><g><path d="M15 107.5H9.283M5.87 107.5H.153"/></g></g><g stroke-linecap="round"><path d="M90.5 78v5.717M90.5 87.13v5.717"/><g><path d="M98 85.5h-5.717M88.87 85.5h-5.717"/></g></g><circle fill="#F5FAFF" cx="5.5" cy="23.5" r="3"/><circle fill="#F5FAFF" cx="88" cy="5" r="5.5"/><circle fill="#F5FAFF" cx="101" cy="97" r="4.5"/></g><path d="M34.75 36.504c.082-.003.164-.004.246-.004H35V36h-.5v.504h.25z" stroke="#333" fill="#FFF"/><g transform="translate(38 61)"><path d="M12.243 3.536l1.06 1.06a.5.5 0 11-.707.707l-1.06-1.06-1.061 1.06a.5.5 0 11-.707-.707l1.06-1.06-1.06-1.061a.5.5 0 11.707-.707l1.06 1.06 1.061-1.06a.5.5 0 11.707.707l-1.06 1.06zM34.243 3.536l1.06 1.06a.5.5 0 11-.707.707l-1.06-1.06-1.061 1.06a.5.5 0 11-.707-.707l1.06-1.06-1.06-1.061a.5.5 0 11.707-.707l1.06 1.06 1.061-1.06a.5.5 0 11.707.707l-1.06 1.06z" fill="#333"/><rect stroke="#333" x="17.036" y="13.5" width="11" height="3" rx="1.5"/><ellipse fill="#F5FAFF" cx="41" cy="10" rx="4" ry="2"/><ellipse fill="#F5FAFF" cx="4" cy="10" rx="4" ry="2"/></g><path stroke="#333" fill="#F5FAFF" d="M27.5 46.5h65v9h-65z"/></g></svg>