<svg width="134" height="134" xmlns="http://www.w3.org/2000/svg"><g transform="translate(5 5)" fill="none" fill-rule="evenodd"><path d="M65 122c33.137 0 60-26.863 60-60S98.137 2 65 2 5 28.863 5 62s26.863 60 60 60z" fill="#F5FAFF"/><circle stroke="#333" cx="60" cy="60" r="60.5"/><g transform="translate(4 3)" stroke="#333"><g stroke-linecap="round"><path d="M101.5 30v5.717M101.5 39.13v5.717"/><g><path d="M109 37.5h-5.717M99.87 37.5h-5.717"/></g></g><g stroke-linecap="round"><path d="M7.5 100v5.717M7.5 109.13v5.717"/><g><path d="M15 107.5H9.283M5.87 107.5H.153"/></g></g><circle fill="#F5FAFF" cx="5.5" cy="23.5" r="3"/><circle fill="#F5FAFF" cx="88" cy="5" r="5.5"/><circle fill="#F5FAFF" cx="101" cy="97" r="4.5"/></g><g fill="#FFF" stroke="#333"><path d="M57.07 79.99l-16.056 8.44a2 2 0 01-2.901-2.109l3.066-17.877a2 2 0 00-.575-1.77l-12.99-12.66a2 2 0 011.11-3.412l17.95-2.609a2 2 0 001.505-1.094l8.028-16.265a2 2 0 013.586 0l8.028 16.265a2 2 0 001.506 1.094l17.95 2.609a2 2 0 011.108 3.411l-12.989 12.66a2 2 0 00-.575 1.771l3.066 17.877a2 2 0 01-2.901 2.109L58.93 79.99a2 2 0 00-1.862 0z"/><path d="M80.1 87.616l-6.217 3.27a1 1 0 01-1.45-1.055l1.187-6.923a1 1 0 00-.288-.885l-5.03-4.904a1 1 0 01.554-1.705l6.952-1.01a1 1 0 00.753-.547l3.108-6.3a1 1 0 011.794 0l3.108 6.3a1 1 0 00.753.547l6.952 1.01a1 1 0 01.554 1.705l-5.03 4.904a1 1 0 00-.288.885L88.7 89.83a1 1 0 01-1.451 1.054l-6.218-3.269a1 1 0 00-.93 0z"/></g></g></svg>