<svg width="134" height="134" xmlns="http://www.w3.org/2000/svg"><g transform="translate(5 5)" fill="none" fill-rule="evenodd"><path d="M65 122c33.137 0 60-26.863 60-60S98.137 2 65 2 5 28.863 5 62s26.863 60 60 60z" fill="#F5FAFF"/><circle stroke="#333" cx="60" cy="60" r="60.5"/><g transform="translate(4 3)" stroke="#333"><g stroke-linecap="round"><path d="M101.5 30v5.717M101.5 39.13v5.717"/><g><path d="M109 37.5h-5.717M99.87 37.5h-5.717"/></g></g><g stroke-linecap="round"><path d="M7.5 100v5.717M7.5 109.13v5.717"/><g><path d="M15 107.5H9.283M5.87 107.5H.153"/></g></g><g stroke-linecap="round"><path d="M90.5 78v5.717M90.5 87.13v5.717"/><g><path d="M98 85.5h-5.717M88.87 85.5h-5.717"/></g></g><circle fill="#F5FAFF" cx="5.5" cy="23.5" r="3"/><circle fill="#F5FAFF" cx="88" cy="5" r="5.5"/><circle fill="#F5FAFF" cx="101" cy="97" r="4.5"/></g><g transform="translate(25 7)"><rect fill="#333" x="34.453" y="41.563" width="1.094" height="54.688" rx=".5"/><rect fill="#333" transform="rotate(15 26.068 66.945)" x="25.521" y="39.601" width="1.094" height="54.688" rx=".5"/><rect fill="#333" transform="scale(-1 1) rotate(15 0 -266.728)" x="43.382" y="39.601" width="1.094" height="54.688" rx=".5"/><circle stroke="#333" fill="#FFF" cx="35" cy="35" r="6.563"/><path d="M42.734 42.734c4.271-4.271 4.271-11.197 0-15.468m-15.468 0c-4.271 4.271-4.271 11.197 0 15.468M22.626 22.626c-6.835 6.834-6.835 17.914 0 24.748m24.748 0c6.835-6.834 6.835-17.914 0-24.748" stroke="#333" stroke-linecap="round"/><path d="M52.015 52.015c9.397-9.397 9.397-24.633 0-34.03m-34.03 0c-9.397 9.397-9.397 24.633 0 34.03M31.172 50.313l10.39 7.656M38.828 50.313l-10.39 7.656M28.984 58.516l15.313 12.03M41.016 58.516l-15.313 12.03M25.703 70.547L49.766 89.14M44.297 70.547L20.234 89.14" stroke="#333" stroke-linecap="round"/></g></g></svg>