<svg width="134" height="134" xmlns="http://www.w3.org/2000/svg"><g transform="translate(5 5)" fill="none" fill-rule="evenodd"><path d="M65 122c33.137 0 60-26.863 60-60S98.137 2 65 2 5 28.863 5 62s26.863 60 60 60z" fill="#F5FAFF"/><circle stroke="#333" cx="60" cy="60" r="60.5"/><g transform="translate(4 3)" stroke="#333"><g stroke-linecap="round"><path d="M101.5 30v5.717M101.5 39.13v5.717"/><g><path d="M109 37.5h-5.717M99.87 37.5h-5.717"/></g></g><g stroke-linecap="round"><path d="M7.5 100v5.717M7.5 109.13v5.717"/><g><path d="M15 107.5H9.283M5.87 107.5H.153"/></g></g><g stroke-linecap="round"><path d="M90.5 78v5.717M90.5 87.13v5.717"/><g><path d="M98 85.5h-5.717M88.87 85.5h-5.717"/></g></g><circle fill="#F5FAFF" cx="5.5" cy="23.5" r="3"/><circle fill="#F5FAFF" cx="88" cy="5" r="5.5"/><circle fill="#F5FAFF" cx="101" cy="97" r="4.5"/></g><g transform="translate(26 33)"><path d="M14.542 4v1.5h-2.488a7.5 7.5 0 00-7.475 8.113l2.705 33a7.5 7.5 0 007.475 6.887H54.24a7.5 7.5 0 007.475-6.887l2.705-33A7.5 7.5 0 0056.947 5.5H33.625V4a3.5 3.5 0 00-3.5-3.5H18.042a3.5 3.5 0 00-3.5 3.5z" stroke="#333" fill="#F5FAFF"/><path d="M8 11.5a7.5 7.5 0 00-7.467 8.199l2.527 27a7.5 7.5 0 007.468 6.801h47.806a7.5 7.5 0 007.467-6.801l2.527-27a7.5 7.5 0 00-7.467-8.199H8z" stroke="#333" fill="#FFF"/><g transform="translate(21 25)" stroke="#333"><circle fill="#F5FAFF" cx="2" cy="2" r="2"/><circle fill="#F5FAFF" cx="25" cy="2" r="2"/><path d="M22.692 16.5c-5.076-5.077-13.308-5.077-18.384 0" stroke-linecap="round"/></g><ellipse fill="#F5FAFF" cx="55" cy="35" rx="6" ry="3"/><ellipse fill="#F5FAFF" cx="14" cy="35" rx="6" ry="3"/></g></g></svg>