<svg width="134" height="134" xmlns="http://www.w3.org/2000/svg"><g transform="translate(5 5)" fill="none" fill-rule="evenodd"><path d="M65 122c33.137 0 60-26.863 60-60S98.137 2 65 2 5 28.863 5 62s26.863 60 60 60z" fill="#F5FAFF"/><circle stroke="#333" cx="60" cy="60" r="60.5"/><g transform="translate(4 3)" stroke="#333"><g stroke-linecap="round"><path d="M101.5 30v5.717M101.5 39.13v5.717"/><g><path d="M109 37.5h-5.717M99.87 37.5h-5.717"/></g></g><g stroke-linecap="round"><path d="M7.5 100v5.717M7.5 109.13v5.717"/><g><path d="M15 107.5H9.283M5.87 107.5H.153"/></g></g><circle fill="#F5FAFF" cx="5.5" cy="23.5" r="3"/><circle fill="#F5FAFF" cx="88" cy="5" r="5.5"/><circle fill="#F5FAFF" cx="101" cy="97" r="4.5"/></g><g transform="translate(25 31)"><rect stroke="#333" fill="#F5FAFF" x=".5" y="10.5" width="69" height="79" rx="8"/><path d="M7 20.5A1.5 1.5 0 005.5 22v61A1.5 1.5 0 007 84.5h56a1.5 1.5 0 001.5-1.5V22a1.5 1.5 0 00-1.5-1.5H7z" stroke="#333" fill="#FFF"/><path d="M30.5 6v.5h-12a4 4 0 100 8h33a4 4 0 100-8h-10V6a5.5 5.5 0 00-11 0zM36 8.5a2.5 2.5 0 110-5 2.5 2.5 0 010 5z" stroke="#333" fill="#F5FAFF"/><g transform="rotate(-45 67.32 12.328)"><circle fill="#F5FAFF" cx="19.167" cy="23.41" r="19.167"/><circle stroke="#333" cx="19.167" cy="19.167" r="19.167"/><path d="M19.612 38.835a2.5 2.5 0 00-2.5 2.5V55.78a2.5 2.5 0 002.5 2.5H20a2.5 2.5 0 002.5-2.5V41.335a2.5 2.5 0 00-2.5-2.5h-.39z" stroke="#333" fill="#FFF"/></g><path d="M32 52.5a1.5 1.5 0 100-3 1.5 1.5 0 000 3zm6 0a1.5 1.5 0 100-3 1.5 1.5 0 000 3zm6 0a1.5 1.5 0 100-3 1.5 1.5 0 000 3z" stroke="#333"/></g></g></svg>